%TF.GenerationSoftware,KiCad,Pcbnew,10.0.0*%
%TF.CreationDate,2026-06-13T08:48:51-05:00*%
%TF.ProjectId,b2500_cluster_pwm_dimmer,62323530-305f-4636-9c75-737465725f70,rev?*%
%TF.SameCoordinates,Original*%
%TF.FileFunction,Copper,L2,Bot*%
%TF.FilePolarity,Positive*%
%FSLAX46Y46*%
G04 Gerber Fmt 4.6, Leading zero omitted, Abs format (unit mm)*
G04 Created by KiCad (PCBNEW 10.0.0) date 2026-06-13 08:48:51*
%MOMM*%
%LPD*%
G01*
G04 APERTURE LIST*
G04 Aperture macros list*
%AMRoundRect*
0 Rectangle with rounded corners*
0 $1 Rounding radius*
0 $2 $3 $4 $5 $6 $7 $8 $9 X,Y pos of 4 corners*
0 Add a 4 corners polygon primitive as box body*
4,1,4,$2,$3,$4,$5,$6,$7,$8,$9,$2,$3,0*
0 Add four circle primitives for the rounded corners*
1,1,$1+$1,$2,$3*
1,1,$1+$1,$4,$5*
1,1,$1+$1,$6,$7*
1,1,$1+$1,$8,$9*
0 Add four rect primitives between the rounded corners*
20,1,$1+$1,$2,$3,$4,$5,0*
20,1,$1+$1,$4,$5,$6,$7,0*
20,1,$1+$1,$6,$7,$8,$9,0*
20,1,$1+$1,$8,$9,$2,$3,0*%
G04 Aperture macros list end*
%TA.AperFunction,ComponentPad*%
%ADD10RoundRect,0.249999X0.850001X-0.850001X0.850001X0.850001X-0.850001X0.850001X-0.850001X-0.850001X0*%
%TD*%
%TA.AperFunction,ComponentPad*%
%ADD11C,2.200000*%
%TD*%
%TA.AperFunction,ComponentPad*%
%ADD12C,1.500000*%
%TD*%
%TA.AperFunction,ComponentPad*%
%ADD13RoundRect,0.250001X0.949999X-0.949999X0.949999X0.949999X-0.949999X0.949999X-0.949999X-0.949999X0*%
%TD*%
%TA.AperFunction,ComponentPad*%
%ADD14C,2.400000*%
%TD*%
%TA.AperFunction,ComponentPad*%
%ADD15C,6.400000*%
%TD*%
%TA.AperFunction,ComponentPad*%
%ADD16R,1.700000X1.700000*%
%TD*%
%TA.AperFunction,ComponentPad*%
%ADD17C,1.700000*%
%TD*%
%TA.AperFunction,ComponentPad*%
%ADD18C,2.000000*%
%TD*%
%TA.AperFunction,ComponentPad*%
%ADD19RoundRect,0.250000X1.350000X1.350000X-1.350000X1.350000X-1.350000X-1.350000X1.350000X-1.350000X0*%
%TD*%
%TA.AperFunction,ComponentPad*%
%ADD20C,3.200000*%
%TD*%
%TA.AperFunction,ComponentPad*%
%ADD21R,1.500000X1.500000*%
%TD*%
%TA.AperFunction,ComponentPad*%
%ADD22R,1.800000X1.800000*%
%TD*%
%TA.AperFunction,ComponentPad*%
%ADD23C,1.800000*%
%TD*%
%TA.AperFunction,ComponentPad*%
%ADD24RoundRect,0.250000X1.050000X-1.050000X1.050000X1.050000X-1.050000X1.050000X-1.050000X-1.050000X0*%
%TD*%
%TA.AperFunction,ComponentPad*%
%ADD25C,2.600000*%
%TD*%
%TA.AperFunction,ComponentPad*%
%ADD26R,1.905000X2.000000*%
%TD*%
%TA.AperFunction,ComponentPad*%
%ADD27O,1.905000X2.000000*%
%TD*%
%TA.AperFunction,ComponentPad*%
%ADD28RoundRect,0.250000X0.550000X-0.550000X0.550000X0.550000X-0.550000X0.550000X-0.550000X-0.550000X0*%
%TD*%
%TA.AperFunction,ComponentPad*%
%ADD29C,1.600000*%
%TD*%
%TA.AperFunction,ViaPad*%
%ADD30C,0.800000*%
%TD*%
%TA.AperFunction,Conductor*%
%ADD31C,1.500000*%
%TD*%
%TA.AperFunction,Conductor*%
%ADD32C,0.400000*%
%TD*%
G04 APERTURE END LIST*
D10*
%TO.P,D3,1*%
%TO.N,5V_XIAO*%
X87000000Y-42000000D03*
D11*
%TO.P,D3,2*%
%TO.N,5V_JMP*%
X87000000Y-31840000D03*
%TD*%
D12*
%TO.P,TP4,1*%
%TO.N,DIM_ADC*%
X51000000Y-23000000D03*
%TD*%
%TO.P,TP5,1*%
%TO.N,PWM_GATE*%
X64000000Y-58000000D03*
%TD*%
D13*
%TO.P,D2,1*%
%TO.N,VIN_PROT*%
X46000000Y-13000000D03*
D14*
%TO.P,D2,2*%
%TO.N,GND*%
X46000000Y-2840000D03*
%TD*%
D15*
%TO.P,REF\u002A\u002A,1*%
%TO.N,GND*%
X89000000Y-8000000D03*
%TD*%
D16*
%TO.P,JP1,1*%
%TO.N,5V_BUCK*%
X87000000Y-27000000D03*
D17*
%TO.P,JP1,2*%
%TO.N,5V_JMP*%
X89540000Y-27000000D03*
%TD*%
D15*
%TO.P,REF\u002A\u002A,1*%
%TO.N,GND*%
X6000000Y-56000000D03*
%TD*%
D18*
%TO.P,SW1,1*%
%TO.N,CAL_BTN*%
X57000000Y-18000000D03*
X63500000Y-18000000D03*
%TO.P,SW1,2*%
%TO.N,GND*%
X57000000Y-22500000D03*
X63500000Y-22500000D03*
%TD*%
D19*
%TO.P,D1,1*%
%TO.N,VIN_PROT*%
X38000000Y-9000000D03*
D20*
%TO.P,D1,2*%
%TO.N,VIN_RAW*%
X22760000Y-9000000D03*
%TD*%
D21*
%TO.P,Q2,1*%
%TO.N,GND*%
X46000000Y-47000000D03*
D12*
%TO.P,Q2,2*%
%TO.N,Q2_G*%
X48540000Y-47000000D03*
%TO.P,Q2,3*%
%TO.N,Q2_D*%
X51080000Y-47000000D03*
%TD*%
%TO.P,TP7,1*%
%TO.N,GND*%
X55000000Y-58000000D03*
%TD*%
D22*
%TO.P,U1,1*%
%TO.N,DIM_ADC*%
X60380000Y-34380000D03*
D23*
%TO.P,U1,2*%
%TO.N,PWM_GATE*%
X60380000Y-36920000D03*
%TO.P,U1,3*%
%TO.N,CAL_BTN*%
X60380000Y-39460000D03*
%TO.P,U1,4*%
%TO.N,IGN_DIV*%
X60380000Y-42000000D03*
%TO.P,U1,5*%
%TO.N,N/C*%
X60380000Y-44540000D03*
%TO.P,U1,6*%
X60380000Y-47080000D03*
%TO.P,U1,7*%
X60380000Y-49620000D03*
%TO.P,U1,8*%
X75620000Y-49620000D03*
%TO.P,U1,9*%
X75620000Y-47080000D03*
%TO.P,U1,10*%
X75620000Y-44540000D03*
%TO.P,U1,11*%
X75620000Y-42000000D03*
%TO.P,U1,12*%
%TO.N,3V3*%
X75620000Y-39460000D03*
%TO.P,U1,13*%
%TO.N,GND*%
X75620000Y-36920000D03*
%TO.P,U1,14*%
%TO.N,5V_XIAO*%
X75620000Y-34380000D03*
%TD*%
D24*
%TO.P,J1,1*%
%TO.N,VIN_RAW*%
X12000000Y-30000000D03*
D25*
%TO.P,J1,2*%
%TO.N,GND*%
X12000000Y-24920000D03*
%TO.P,J1,3*%
%TO.N,DIM_IN*%
X12000000Y-19840000D03*
%TO.P,J1,4*%
%TO.N,PWM_OUT*%
X12000000Y-14760000D03*
%TO.P,J1,5*%
%TO.N,IGN_SENSE_RAW*%
X12000000Y-9680000D03*
%TD*%
D26*
%TO.P,Q1,1*%
%TO.N,Q1_G*%
X26000000Y-53000000D03*
D27*
%TO.P,Q1,2*%
%TO.N,PWM_OUT*%
X28540000Y-53000000D03*
%TO.P,Q1,3*%
%TO.N,VIN_PROT*%
X31080000Y-53000000D03*
%TD*%
D28*
%TO.P,D5,1*%
%TO.N,VIN_PROT*%
X36000000Y-51000000D03*
D29*
%TO.P,D5,2*%
%TO.N,Q1_G*%
X36000000Y-43380000D03*
%TD*%
D28*
%TO.P,C1,1*%
%TO.N,VIN_PROT*%
X54000000Y-10000000D03*
D29*
%TO.P,C1,2*%
%TO.N,GND*%
X54000000Y-7500000D03*
%TD*%
D12*
%TO.P,TP1,1*%
%TO.N,VIN_PROT*%
X46000000Y-58000000D03*
%TD*%
%TO.P,TP3,1*%
%TO.N,3V3*%
X73000000Y-58000000D03*
%TD*%
%TO.P,TP6,1*%
%TO.N,PWM_OUT*%
X16000000Y-53000000D03*
%TD*%
%TO.P,TP2,1*%
%TO.N,5V_XIAO*%
X82000000Y-58000000D03*
%TD*%
D22*
%TO.P,U2,1*%
%TO.N,N/C*%
X71190000Y-20350000D03*
D23*
%TO.P,U2,2*%
%TO.N,VIN_PROT*%
X73730000Y-20350000D03*
%TO.P,U2,3*%
%TO.N,GND*%
X76270000Y-20350000D03*
%TO.P,U2,4*%
%TO.N,5V_BUCK*%
X78810000Y-20350000D03*
%TD*%
D30*
%TO.N,GND*%
X45000000Y-38000000D03*
X33000000Y-34000000D03*
X66000000Y-28000000D03*
X12000000Y-48000000D03*
%TO.N,DIM_IN*%
X17000000Y-32000000D03*
X25000000Y-28000000D03*
%TO.N,DIM_ADC*%
X60380000Y-30000000D03*
%TO.N,PWM_GATE*%
X54000000Y-47000000D03*
X54000000Y-46000000D03*
%TD*%
%TO.N,VIN_PROT*%
D31*
X38000000Y-9000000D02*
X38000000Y-51000000D01*
X38000000Y-51000000D02*
X36000000Y-51000000D01*
%TO.N,VIN_RAW*%
X12000000Y-30000000D02*
X22760000Y-30000000D01*
X22760000Y-30000000D02*
X22760000Y-9000000D01*
%TO.N,DIM_IN*%
D32*
X20000000Y-32000000D02*
X20500000Y-32000000D01*
X25000000Y-30000000D02*
X25000000Y-29500000D01*
X25000000Y-29500000D02*
X25000000Y-29000000D01*
X22500000Y-32000000D02*
X23000000Y-32000000D01*
X21000000Y-32000000D02*
X21500000Y-32000000D01*
X23500000Y-32000000D02*
X24000000Y-32000000D01*
X25000000Y-32000000D02*
X25000000Y-31500000D01*
X22000000Y-32000000D02*
X22500000Y-32000000D01*
X25000000Y-29000000D02*
X25000000Y-28500000D01*
X24000000Y-32000000D02*
X24500000Y-32000000D01*
X18000000Y-32000000D02*
X18500000Y-32000000D01*
X23000000Y-32000000D02*
X23500000Y-32000000D01*
X19500000Y-32000000D02*
X20000000Y-32000000D01*
X24500000Y-32000000D02*
X25000000Y-32000000D01*
X25000000Y-31000000D02*
X25000000Y-30500000D01*
X19000000Y-32000000D02*
X19500000Y-32000000D01*
X25000000Y-28500000D02*
X25000000Y-28000000D01*
X20500000Y-32000000D02*
X21000000Y-32000000D01*
X18500000Y-32000000D02*
X19000000Y-32000000D01*
X25000000Y-31500000D02*
X25000000Y-31000000D01*
X17000000Y-32000000D02*
X17500000Y-32000000D01*
X21500000Y-32000000D02*
X22000000Y-32000000D01*
X17500000Y-32000000D02*
X18000000Y-32000000D01*
X25000000Y-30500000D02*
X25000000Y-30000000D01*
%TO.N,DIM_ADC*%
X60380000Y-30000000D02*
X60380000Y-34380000D01*
%TO.N,PWM_GATE*%
X64000000Y-53500000D02*
X64000000Y-54000000D01*
X54000000Y-44000000D02*
X54000000Y-44500000D01*
X58000000Y-48500000D02*
X58000000Y-49000000D01*
X58500000Y-37000000D02*
X58000000Y-37000000D01*
X54000000Y-39500000D02*
X54000000Y-40000000D01*
X63500000Y-52000000D02*
X64000000Y-52000000D01*
X54000000Y-45500000D02*
X54000000Y-46000000D01*
X58000000Y-50000000D02*
X58500000Y-50000000D01*
X54000000Y-38500000D02*
X54000000Y-39000000D01*
X60500000Y-37000000D02*
X60000000Y-37000000D01*
X58000000Y-49000000D02*
X58000000Y-49500000D01*
X58000000Y-37000000D02*
X57500000Y-37000000D01*
X54000000Y-40000000D02*
X54000000Y-40500000D01*
X61500000Y-52000000D02*
X62000000Y-52000000D01*
X64000000Y-54000000D02*
X64000000Y-54500000D01*
X54000000Y-37500000D02*
X54000000Y-38000000D01*
X59000000Y-51000000D02*
X59000000Y-51500000D01*
X64000000Y-55500000D02*
X64000000Y-56000000D01*
X55000000Y-37000000D02*
X54500000Y-37000000D01*
X64000000Y-55000000D02*
X64000000Y-55500000D01*
X57000000Y-47000000D02*
X57500000Y-47000000D01*
X56000000Y-37000000D02*
X55500000Y-37000000D01*
X60000000Y-37000000D02*
X59500000Y-37000000D01*
X55000000Y-47000000D02*
X55500000Y-47000000D01*
X57000000Y-37000000D02*
X56500000Y-37000000D01*
X58500000Y-50500000D02*
X58500000Y-51000000D01*
X54000000Y-42500000D02*
X54000000Y-43000000D01*
X60000000Y-51500000D02*
X60000000Y-52000000D01*
X55500000Y-47000000D02*
X56000000Y-47000000D01*
X54500000Y-47000000D02*
X55000000Y-47000000D01*
X54000000Y-43000000D02*
X54000000Y-43500000D01*
X64000000Y-52500000D02*
X64000000Y-53000000D01*
X60380000Y-36920000D02*
X60500000Y-37000000D01*
X54000000Y-43500000D02*
X54000000Y-44000000D01*
X59000000Y-51500000D02*
X59500000Y-51500000D01*
X55500000Y-37000000D02*
X55000000Y-37000000D01*
X54000000Y-37000000D02*
X54000000Y-37500000D01*
X57500000Y-37000000D02*
X57000000Y-37000000D01*
X54000000Y-47000000D02*
X54500000Y-47000000D01*
X64000000Y-57500000D02*
X64000000Y-58000000D01*
X54000000Y-42000000D02*
X54000000Y-42500000D01*
X58000000Y-47500000D02*
X58000000Y-48000000D01*
X60500000Y-52000000D02*
X61000000Y-52000000D01*
X54000000Y-41000000D02*
X54000000Y-41500000D01*
X64000000Y-52000000D02*
X64000000Y-52500000D01*
X64000000Y-57000000D02*
X64000000Y-57500000D01*
X58500000Y-50000000D02*
X58500000Y-50500000D01*
X59500000Y-37000000D02*
X59000000Y-37000000D01*
X58000000Y-49500000D02*
X58000000Y-50000000D01*
X59000000Y-37000000D02*
X58500000Y-37000000D01*
X64000000Y-56000000D02*
X64000000Y-56500000D01*
X54000000Y-45000000D02*
X54000000Y-45500000D01*
X57500000Y-47000000D02*
X58000000Y-47000000D01*
X61000000Y-52000000D02*
X61500000Y-52000000D01*
X54000000Y-38000000D02*
X54000000Y-38500000D01*
X64000000Y-54500000D02*
X64000000Y-55000000D01*
X62000000Y-52000000D02*
X62500000Y-52000000D01*
X58500000Y-51000000D02*
X59000000Y-51000000D01*
X54000000Y-40500000D02*
X54000000Y-41000000D01*
X54000000Y-41500000D02*
X54000000Y-42000000D01*
X56500000Y-37000000D02*
X56000000Y-37000000D01*
X58000000Y-47000000D02*
X58000000Y-47500000D01*
X54500000Y-37000000D02*
X54000000Y-37000000D01*
X56500000Y-47000000D02*
X57000000Y-47000000D01*
X64000000Y-56500000D02*
X64000000Y-57000000D01*
X59500000Y-51500000D02*
X60000000Y-51500000D01*
X54000000Y-39000000D02*
X54000000Y-39500000D01*
X64000000Y-53000000D02*
X64000000Y-53500000D01*
X58000000Y-48000000D02*
X58000000Y-48500000D01*
X56000000Y-47000000D02*
X56500000Y-47000000D01*
X62500000Y-52000000D02*
X63000000Y-52000000D01*
X63000000Y-52000000D02*
X63500000Y-52000000D01*
X60000000Y-52000000D02*
X60500000Y-52000000D01*
X54000000Y-44500000D02*
X54000000Y-45000000D01*
%TO.N,CAL_BTN*%
X62000000Y-18000000D02*
X62000000Y-39460000D01*
X63500000Y-18000000D02*
X62000000Y-18000000D01*
X62000000Y-39460000D02*
X60380000Y-39460000D01*
%TD*%
%TA.AperFunction,Conductor*%
%TO.N,GND*%
G36*
X93343039Y-619685D02*
G01*
X93388794Y-672489D01*
X93400000Y-724000D01*
X93400000Y-61276000D01*
X93380315Y-61343039D01*
X93327511Y-61388794D01*
X93276000Y-61400000D01*
X724000Y-61400000D01*
X656961Y-61380315D01*
X611206Y-61327511D01*
X600000Y-61276000D01*
X600000Y-57896530D01*
X44949500Y-57896530D01*
X44949500Y-58103469D01*
X44989868Y-58306412D01*
X44989870Y-58306420D01*
X45069058Y-58497596D01*
X45184024Y-58669657D01*
X45330342Y-58815975D01*
X45330345Y-58815977D01*
X45502402Y-58930941D01*
X45693580Y-59010130D01*
X45896530Y-59050499D01*
X45896534Y-59050500D01*
X45896535Y-59050500D01*
X46103466Y-59050500D01*
X46103467Y-59050499D01*
X46137764Y-59043677D01*
X54309873Y-59043677D01*
X54309873Y-59043678D01*
X54344858Y-59069096D01*
X54520164Y-59158418D01*
X54707294Y-59219221D01*
X54901618Y-59250000D01*
X55098382Y-59250000D01*
X55292705Y-59219221D01*
X55479835Y-59158418D01*
X55655143Y-59069095D01*
X55690125Y-59043678D01*
X55690126Y-59043678D01*
X55000001Y-58353553D01*
X55000000Y-58353553D01*
X54309873Y-59043677D01*
X46137764Y-59043677D01*
X46306420Y-59010130D01*
X46497598Y-58930941D01*
X46669655Y-58815977D01*
X46815977Y-58669655D01*
X46930941Y-58497598D01*
X47010130Y-58306420D01*
X47050500Y-58103465D01*
X47050500Y-57901617D01*
X53750000Y-57901617D01*
X53750000Y-58098382D01*
X53780778Y-58292705D01*
X53841581Y-58479835D01*
X53930905Y-58655145D01*
X53956319Y-58690125D01*
X53956320Y-58690125D01*
X54646446Y-58000000D01*
X54646446Y-57999999D01*
X54600369Y-57953922D01*
X54650000Y-57953922D01*
X54650000Y-58046078D01*
X54673852Y-58135095D01*
X54719930Y-58214905D01*
X54785095Y-58280070D01*
X54864905Y-58326148D01*
X54953922Y-58350000D01*
X55046078Y-58350000D01*
X55135095Y-58326148D01*
X55214905Y-58280070D01*
X55280070Y-58214905D01*
X55326148Y-58135095D01*
X55350000Y-58046078D01*
X55350000Y-57999999D01*
X55353553Y-57999999D01*
X55353553Y-58000000D01*
X56043678Y-58690126D01*
X56043678Y-58690125D01*
X56069095Y-58655143D01*
X56158418Y-58479835D01*
X56219221Y-58292705D01*
X56250000Y-58098382D01*
X56250000Y-57901617D01*
X56219221Y-57707294D01*
X56158418Y-57520164D01*
X56069096Y-57344858D01*
X56043678Y-57309873D01*
X56043677Y-57309873D01*
X55353553Y-57999999D01*
X55350000Y-57999999D01*
X55350000Y-57953922D01*
X55326148Y-57864905D01*
X55280070Y-57785095D01*
X55214905Y-57719930D01*
X55135095Y-57673852D01*
X55046078Y-57650000D01*
X54953922Y-57650000D01*
X54864905Y-57673852D01*
X54785095Y-57719930D01*
X54719930Y-57785095D01*
X54673852Y-57864905D01*
X54650000Y-57953922D01*
X54600369Y-57953922D01*
X53956320Y-57309872D01*
X53956320Y-57309873D01*
X53930902Y-57344859D01*
X53930899Y-57344863D01*
X53841582Y-57520161D01*
X53780778Y-57707294D01*
X53750000Y-57901617D01*
X47050500Y-57901617D01*
X47050500Y-57896535D01*
X47010130Y-57693580D01*
X46930941Y-57502402D01*
X46815977Y-57330345D01*
X46815975Y-57330342D01*
X46669658Y-57184025D01*
X46669650Y-57184019D01*
X46553979Y-57106730D01*
X46553905Y-57106682D01*
X46497598Y-57069059D01*
X46306420Y-56989870D01*
X46306412Y-56989868D01*
X46137755Y-56956320D01*
X54309872Y-56956320D01*
X55000000Y-57646446D01*
X55000001Y-57646446D01*
X55690125Y-56956320D01*
X55690125Y-56956319D01*
X55655145Y-56930905D01*
X55479835Y-56841581D01*
X55292705Y-56780778D01*
X55098382Y-56750000D01*
X54901618Y-56750000D01*
X54707294Y-56780778D01*
X54520161Y-56841582D01*
X54344863Y-56930899D01*
X54344859Y-56930902D01*
X54309873Y-56956320D01*
X54309872Y-56956320D01*
X46137755Y-56956320D01*
X46103469Y-56949500D01*
X46103465Y-56949500D01*
X45896535Y-56949500D01*
X45896530Y-56949500D01*
X45693587Y-56989868D01*
X45693579Y-56989870D01*
X45502403Y-57069058D01*
X45330342Y-57184024D01*
X45184024Y-57330342D01*
X45069058Y-57502403D01*
X44989870Y-57693579D01*
X44989868Y-57693587D01*
X44949500Y-57896530D01*
X600000Y-57896530D01*
X600000Y-52896530D01*
X14949500Y-52896530D01*
X14949500Y-53103469D01*
X14989868Y-53306412D01*
X14989870Y-53306420D01*
X15069058Y-53497596D01*
X15184024Y-53669657D01*
X15330342Y-53815975D01*
X15330345Y-53815977D01*
X15502402Y-53930941D01*
X15693580Y-54010130D01*
X15896530Y-54050499D01*
X15896534Y-54050500D01*
X15896535Y-54050500D01*
X16103466Y-54050500D01*
X16103467Y-54050499D01*
X16306420Y-54010130D01*
X16497598Y-53930941D01*
X16669655Y-53815977D01*
X16815977Y-53669655D01*
X16930941Y-53497598D01*
X17010130Y-53306420D01*
X17050500Y-53103465D01*
X17050500Y-52896535D01*
X17010130Y-52693580D01*
X16930941Y-52502402D01*
X16815977Y-52330345D01*
X16815975Y-52330342D01*
X16669657Y-52184024D01*
X16532541Y-52092407D01*
X16497598Y-52069059D01*
X16489952Y-52065892D01*
X16306420Y-51989870D01*
X16306412Y-51989868D01*
X16131778Y-51955131D01*
X24747000Y-51955131D01*
X24747000Y-54044856D01*
X24747002Y-54044882D01*
X24749913Y-54069987D01*
X24749915Y-54069991D01*
X24795293Y-54172764D01*
X24795294Y-54172765D01*
X24874735Y-54252206D01*
X24977509Y-54297585D01*
X25002635Y-54300500D01*
X26997364Y-54300499D01*
X26997379Y-54300497D01*
X26997382Y-54300497D01*
X27022487Y-54297586D01*
X27022488Y-54297585D01*
X27022491Y-54297585D01*
X27125265Y-54252206D01*
X27204706Y-54172765D01*
X27250085Y-54069991D01*
X27253000Y-54044865D01*
X27252999Y-53789457D01*
X27272683Y-53722421D01*
X27325487Y-53676666D01*
X27394646Y-53666722D01*
X27458201Y-53695747D01*
X27477317Y-53716574D01*
X27584265Y-53863775D01*
X27723725Y-54003235D01*
X27883285Y-54119162D01*
X27988485Y-54172764D01*
X28059017Y-54208702D01*
X28152801Y-54239174D01*
X28246588Y-54269647D01*
X28336807Y-54283936D01*
X28441382Y-54300500D01*
X28441387Y-54300500D01*
X28638618Y-54300500D01*
X28733052Y-54285542D01*
X28833412Y-54269647D01*
X29020985Y-54208701D01*
X29196715Y-54119162D01*
X29356275Y-54003235D01*
X29495735Y-53863775D01*
X29611662Y-53704215D01*
X29699515Y-53531794D01*
X29747490Y-53480998D01*
X29815311Y-53464203D01*
X29881446Y-53486740D01*
X29920485Y-53531794D01*
X30008338Y-53704215D01*
X30124265Y-53863775D01*
X30263725Y-54003235D01*
X30423285Y-54119162D01*
X30528485Y-54172764D01*
X30599017Y-54208702D01*
X30692801Y-54239174D01*
X30786588Y-54269647D01*
X30876807Y-54283936D01*
X30981382Y-54300500D01*
X30981387Y-54300500D01*
X31178618Y-54300500D01*
X31273052Y-54285542D01*
X31373412Y-54269647D01*
X31560985Y-54208701D01*
X31736715Y-54119162D01*
X31896275Y-54003235D01*
X32035735Y-53863775D01*
X32151662Y-53704215D01*
X32241201Y-53528485D01*
X32302147Y-53340912D01*
X32318042Y-53240552D01*
X32333000Y-53146118D01*
X32333000Y-52853881D01*
X32307610Y-52693580D01*
X32302147Y-52659088D01*
X32250619Y-52500500D01*
X32241202Y-52471517D01*
X32205017Y-52400500D01*
X32151662Y-52295785D01*
X32035735Y-52136225D01*
X31896275Y-51996765D01*
X31736715Y-51880838D01*
X31560982Y-51791297D01*
X31373413Y-51730353D01*
X31178618Y-51699500D01*
X31178613Y-51699500D01*
X30981387Y-51699500D01*
X30981382Y-51699500D01*
X30786586Y-51730353D01*
X30599017Y-51791297D01*
X30423284Y-51880838D01*
X30263722Y-51996767D01*
X30124267Y-52136222D01*
X30008338Y-52295784D01*
X29920485Y-52468205D01*
X29872510Y-52519001D01*
X29804689Y-52535796D01*
X29738554Y-52513258D01*
X29699515Y-52468205D01*
X29629271Y-52330345D01*
X29611662Y-52295785D01*
X29495735Y-52136225D01*
X29356275Y-51996765D01*
X29196715Y-51880838D01*
X29020982Y-51791297D01*
X28833413Y-51730353D01*
X28638618Y-51699500D01*
X28638613Y-51699500D01*
X28441387Y-51699500D01*
X28441382Y-51699500D01*
X28246586Y-51730353D01*
X28059017Y-51791297D01*
X27883284Y-51880838D01*
X27723722Y-51996767D01*
X27584267Y-52136222D01*
X27584267Y-52136223D01*
X27584265Y-52136225D01*
X27542880Y-52193187D01*
X27477317Y-52283426D01*
X27421987Y-52326091D01*
X27352373Y-52332070D01*
X27290578Y-52299464D01*
X27256221Y-52238625D01*
X27252999Y-52210540D01*
X27252999Y-51955143D01*
X27252999Y-51955136D01*
X27252997Y-51955117D01*
X27250086Y-51930012D01*
X27250085Y-51930010D01*
X27250085Y-51930009D01*
X27204706Y-51827235D01*
X27125265Y-51747794D01*
X27085765Y-51730353D01*
X27022492Y-51702415D01*
X26997365Y-51699500D01*
X25002643Y-51699500D01*
X25002617Y-51699502D01*
X24977512Y-51702413D01*
X24977508Y-51702415D01*
X24874735Y-51747793D01*
X24795294Y-51827234D01*
X24749915Y-51930006D01*
X24749915Y-51930008D01*
X24747000Y-51955131D01*
X16131778Y-51955131D01*
X16103469Y-51949500D01*
X16103465Y-51949500D01*
X15896535Y-51949500D01*
X15896530Y-51949500D01*
X15693587Y-51989868D01*
X15693579Y-51989870D01*
X15502403Y-52069058D01*
X15330342Y-52184024D01*
X15184024Y-52330342D01*
X15069058Y-52502403D01*
X14989870Y-52693579D01*
X14989868Y-52693587D01*
X14949500Y-52896530D01*
X600000Y-52896530D01*
X600000Y-43293389D01*
X34899500Y-43293389D01*
X34899500Y-43466611D01*
X34926598Y-43637701D01*
X34980127Y-43802445D01*
X35058768Y-43956788D01*
X35160586Y-44096928D01*
X35283072Y-44219414D01*
X35423212Y-44321232D01*
X35577555Y-44399873D01*
X35742299Y-44453402D01*
X35913389Y-44480500D01*
X35913390Y-44480500D01*
X36086610Y-44480500D01*
X36086611Y-44480500D01*
X36257701Y-44453402D01*
X36422445Y-44399873D01*
X36576788Y-44321232D01*
X36716928Y-44219414D01*
X36737819Y-44198523D01*
X36799142Y-44165038D01*
X36868834Y-44170022D01*
X36924767Y-44211894D01*
X36949184Y-44277358D01*
X36949500Y-44286204D01*
X36949500Y-49825500D01*
X36929815Y-49892539D01*
X36877011Y-49938294D01*
X36825500Y-49949500D01*
X36804982Y-49949500D01*
X36759493Y-49940854D01*
X36723814Y-49926784D01*
X36681563Y-49910122D01*
X36628978Y-49903808D01*
X36593102Y-49899500D01*
X35406898Y-49899500D01*
X35367853Y-49904188D01*
X35318438Y-49910122D01*
X35177656Y-49965639D01*
X35057077Y-50057077D01*
X34965639Y-50177656D01*
X34910122Y-50318438D01*
X34904188Y-50367853D01*
X34899500Y-50406898D01*
X34899500Y-51593102D01*
X34900269Y-51599502D01*
X34910122Y-51681561D01*
X34910122Y-51681563D01*
X34910123Y-51681564D01*
X34917197Y-51699502D01*
X34965639Y-51822343D01*
X35057077Y-51942922D01*
X35177656Y-52034360D01*
X35177657Y-52034360D01*
X35177658Y-52034361D01*
X35318436Y-52089877D01*
X35406898Y-52100500D01*
X35406903Y-52100500D01*
X36593097Y-52100500D01*
X36593102Y-52100500D01*
X36681564Y-52089877D01*
X36759493Y-52059145D01*
X36804982Y-52050500D01*
X38103466Y-52050500D01*
X38103467Y-52050499D01*
X38306420Y-52010130D01*
X38497598Y-51930941D01*
X38669655Y-51815977D01*
X38815977Y-51669655D01*
X38930941Y-51497598D01*
X39010130Y-51306420D01*
X39050500Y-51103465D01*
X39050500Y-46202155D01*
X44750000Y-46202155D01*
X44750000Y-46750000D01*
X45684314Y-46750000D01*
X45679920Y-46754394D01*
X45627259Y-46845606D01*
X45600000Y-46947339D01*
X45600000Y-47052661D01*
X45627259Y-47154394D01*
X45679920Y-47245606D01*
X45684314Y-47250000D01*
X44750000Y-47250000D01*
X44750000Y-47797844D01*
X44756401Y-47857372D01*
X44756403Y-47857379D01*
X44806645Y-47992086D01*
X44806649Y-47992093D01*
X44892809Y-48107187D01*
X44892812Y-48107190D01*
X45007906Y-48193350D01*
X45007913Y-48193354D01*
X45142620Y-48243596D01*
X45142627Y-48243598D01*
X45202155Y-48249999D01*
X45202172Y-48250000D01*
X45750000Y-48250000D01*
X45750000Y-47315686D01*
X45754394Y-47320080D01*
X45845606Y-47372741D01*
X45947339Y-47400000D01*
X46052661Y-47400000D01*
X46154394Y-47372741D01*
X46245606Y-47320080D01*
X46250000Y-47315686D01*
X46250000Y-48250000D01*
X46797828Y-48250000D01*
X46797844Y-48249999D01*
X46857372Y-48243598D01*
X46857379Y-48243596D01*
X46992086Y-48193354D01*
X46992093Y-48193350D01*
X47107187Y-48107190D01*
X47107190Y-48107187D01*
X47193350Y-47992093D01*
X47193354Y-47992086D01*
X47243596Y-47857379D01*
X47243598Y-47857372D01*
X47249999Y-47797844D01*
X47250000Y-47797827D01*
X47250000Y-47158410D01*
X47269685Y-47091371D01*
X47322489Y-47045616D01*
X47391647Y-47035672D01*
X47455203Y-47064697D01*
X47492977Y-47123475D01*
X47495617Y-47134219D01*
X47509563Y-47204332D01*
X47529870Y-47306420D01*
X47609059Y-47497598D01*
X47637947Y-47540832D01*
X47724024Y-47669657D01*
X47870342Y-47815975D01*
X47870345Y-47815977D01*
X48042402Y-47930941D01*
X48233580Y-48010130D01*
X48436530Y-48050499D01*
X48436534Y-48050500D01*
X48436535Y-48050500D01*
X48643466Y-48050500D01*
X48643467Y-48050499D01*
X48846420Y-48010130D01*
X49037598Y-47930941D01*
X49209655Y-47815977D01*
X49355977Y-47669655D01*
X49470941Y-47497598D01*
X49550130Y-47306420D01*
X49590500Y-47103465D01*
X49590500Y-46896535D01*
X49590499Y-46896530D01*
X50029500Y-46896530D01*
X50029500Y-47103469D01*
X50057773Y-47245606D01*
X50069870Y-47306420D01*
X50149059Y-47497598D01*
X50177947Y-47540832D01*
X50264024Y-47669657D01*
X50410342Y-47815975D01*
X50410345Y-47815977D01*
X50582402Y-47930941D01*
X50773580Y-48010130D01*
X50976530Y-48050499D01*
X50976534Y-48050500D01*
X50976535Y-48050500D01*
X51183466Y-48050500D01*
X51183467Y-48050499D01*
X51386420Y-48010130D01*
X51577598Y-47930941D01*
X51749655Y-47815977D01*
X51895977Y-47669655D01*
X52010941Y-47497598D01*
X52090130Y-47306420D01*
X52130500Y-47103465D01*
X52130500Y-46896535D01*
X52090130Y-46693580D01*
X52010941Y-46502402D01*
X51895977Y-46330345D01*
X51895975Y-46330342D01*
X51749657Y-46184024D01*
X51577596Y-46069057D01*
X51577446Y-46068995D01*
X53299499Y-46068995D01*
X53326418Y-46204322D01*
X53326421Y-46204332D01*
X53379221Y-46331804D01*
X53379228Y-46331817D01*
X53445573Y-46431109D01*
X53466451Y-46497787D01*
X53447966Y-46565167D01*
X53445573Y-46568891D01*
X53379228Y-46668182D01*
X53379221Y-46668195D01*
X53326421Y-46795667D01*
X53326418Y-46795677D01*
X53299500Y-46931004D01*
X53299500Y-46931007D01*
X53299500Y-47068993D01*
X53299500Y-47068995D01*
X53299499Y-47068995D01*
X53326418Y-47204322D01*
X53326421Y-47204332D01*
X53379221Y-47331804D01*
X53379228Y-47331817D01*
X53455885Y-47446541D01*
X53455888Y-47446545D01*
X53553454Y-47544111D01*
X53553458Y-47544114D01*
X53668182Y-47620771D01*
X53668195Y-47620778D01*
X53786196Y-47669655D01*
X53795672Y-47673580D01*
X53795676Y-47673580D01*
X53795677Y-47673581D01*
X53931004Y-47700500D01*
X53931007Y-47700500D01*
X54068995Y-47700500D01*
X54160041Y-47682389D01*
X54204328Y-47673580D01*
X54331811Y-47620775D01*
X54446542Y-47544114D01*
X54449824Y-47540832D01*
X54453838Y-47536819D01*
X54515161Y-47503334D01*
X54541519Y-47500500D01*
X54934108Y-47500500D01*
X55434108Y-47500500D01*
X55934108Y-47500500D01*
X56434108Y-47500500D01*
X56934108Y-47500500D01*
X57375500Y-47500500D01*
X57442539Y-47520185D01*
X57488294Y-47572989D01*
X57499500Y-47624500D01*
X57499500Y-50065891D01*
X57533608Y-50193187D01*
X57565947Y-50249199D01*
X57599500Y-50307314D01*
X57692686Y-50400500D01*
X57806814Y-50466392D01*
X57907594Y-50493395D01*
X57967254Y-50529760D01*
X57997783Y-50592607D01*
X57999500Y-50613170D01*
X57999500Y-51065891D01*
X58033608Y-51193187D01*
X58066554Y-51250250D01*
X58099500Y-51307314D01*
X58192686Y-51400500D01*
X58306814Y-51466392D01*
X58416529Y-51495789D01*
X58476189Y-51532154D01*
X58504209Y-51583469D01*
X58533608Y-51693186D01*
X58599500Y-51807314D01*
X58692686Y-51900500D01*
X58806814Y-51966392D01*
X58934108Y-52000500D01*
X59065892Y-52000500D01*
X59386830Y-52000500D01*
X59453869Y-52020185D01*
X59499624Y-52072989D01*
X59506603Y-52092402D01*
X59522690Y-52152439D01*
X59533608Y-52193187D01*
X59543627Y-52210540D01*
X59599500Y-52307314D01*
X59692686Y-52400500D01*
X59806814Y-52466392D01*
X59934108Y-52500500D01*
X60065892Y-52500500D01*
X60434108Y-52500500D01*
X60934108Y-52500500D01*
X61434108Y-52500500D01*
X61934108Y-52500500D01*
X62434108Y-52500500D01*
X62934108Y-52500500D01*
X63375500Y-52500500D01*
X63442539Y-52520185D01*
X63488294Y-52572989D01*
X63499500Y-52624500D01*
X63499500Y-57004718D01*
X63479815Y-57071757D01*
X63444390Y-57107820D01*
X63330349Y-57184019D01*
X63330341Y-57184025D01*
X63184024Y-57330342D01*
X63069058Y-57502403D01*
X62989870Y-57693579D01*
X62989868Y-57693587D01*
X62949500Y-57896530D01*
X62949500Y-58103469D01*
X62989868Y-58306412D01*
X62989870Y-58306420D01*
X63069058Y-58497596D01*
X63184024Y-58669657D01*
X63330342Y-58815975D01*
X63330345Y-58815977D01*
X63502402Y-58930941D01*
X63693580Y-59010130D01*
X63896530Y-59050499D01*
X63896534Y-59050500D01*
X63896535Y-59050500D01*
X64103466Y-59050500D01*
X64103467Y-59050499D01*
X64306420Y-59010130D01*
X64497598Y-58930941D01*
X64669655Y-58815977D01*
X64815977Y-58669655D01*
X64930941Y-58497598D01*
X65010130Y-58306420D01*
X65050500Y-58103465D01*
X65050500Y-57896535D01*
X65050499Y-57896530D01*
X71949500Y-57896530D01*
X71949500Y-58103469D01*
X71989868Y-58306412D01*
X71989870Y-58306420D01*
X72069058Y-58497596D01*
X72184024Y-58669657D01*
X72330342Y-58815975D01*
X72330345Y-58815977D01*
X72502402Y-58930941D01*
X72693580Y-59010130D01*
X72896530Y-59050499D01*
X72896534Y-59050500D01*
X72896535Y-59050500D01*
X73103466Y-59050500D01*
X73103467Y-59050499D01*
X73306420Y-59010130D01*
X73497598Y-58930941D01*
X73669655Y-58815977D01*
X73815977Y-58669655D01*
X73930941Y-58497598D01*
X74010130Y-58306420D01*
X74050500Y-58103465D01*
X74050500Y-57896535D01*
X74050499Y-57896530D01*
X80949500Y-57896530D01*
X80949500Y-58103469D01*
X80989868Y-58306412D01*
X80989870Y-58306420D01*
X81069058Y-58497596D01*
X81184024Y-58669657D01*
X81330342Y-58815975D01*
X81330345Y-58815977D01*
X81502402Y-58930941D01*
X81693580Y-59010130D01*
X81896530Y-59050499D01*
X81896534Y-59050500D01*
X81896535Y-59050500D01*
X82103466Y-59050500D01*
X82103467Y-59050499D01*
X82306420Y-59010130D01*
X82497598Y-58930941D01*
X82669655Y-58815977D01*
X82815977Y-58669655D01*
X82930941Y-58497598D01*
X83010130Y-58306420D01*
X83050500Y-58103465D01*
X83050500Y-57896535D01*
X83010130Y-57693580D01*
X82930941Y-57502402D01*
X82815977Y-57330345D01*
X82815975Y-57330342D01*
X82669657Y-57184024D01*
X82553905Y-57106682D01*
X82497598Y-57069059D01*
X82306420Y-56989870D01*
X82306412Y-56989868D01*
X82103469Y-56949500D01*
X82103465Y-56949500D01*
X81896535Y-56949500D01*
X81896530Y-56949500D01*
X81693587Y-56989868D01*
X81693579Y-56989870D01*
X81502403Y-57069058D01*
X81330342Y-57184024D01*
X81184024Y-57330342D01*
X81069058Y-57502403D01*
X80989870Y-57693579D01*
X80989868Y-57693587D01*
X80949500Y-57896530D01*
X74050499Y-57896530D01*
X74010130Y-57693580D01*
X73930941Y-57502402D01*
X73815977Y-57330345D01*
X73815975Y-57330342D01*
X73669657Y-57184024D01*
X73553905Y-57106682D01*
X73497598Y-57069059D01*
X73306420Y-56989870D01*
X73306412Y-56989868D01*
X73103469Y-56949500D01*
X73103465Y-56949500D01*
X72896535Y-56949500D01*
X72896530Y-56949500D01*
X72693587Y-56989868D01*
X72693579Y-56989870D01*
X72502403Y-57069058D01*
X72330342Y-57184024D01*
X72184024Y-57330342D01*
X72069058Y-57502403D01*
X71989870Y-57693579D01*
X71989868Y-57693587D01*
X71949500Y-57896530D01*
X65050499Y-57896530D01*
X65010130Y-57693580D01*
X64930941Y-57502402D01*
X64815977Y-57330345D01*
X64815975Y-57330342D01*
X64669658Y-57184025D01*
X64669650Y-57184019D01*
X64555610Y-57107820D01*
X64510804Y-57054208D01*
X64500500Y-57004718D01*
X64500500Y-51934110D01*
X64500500Y-51934108D01*
X64466392Y-51806814D01*
X64400500Y-51692686D01*
X64307314Y-51599500D01*
X64249103Y-51565892D01*
X64193187Y-51533608D01*
X64129539Y-51516554D01*
X64065892Y-51499500D01*
X64065891Y-51499500D01*
X60613170Y-51499500D01*
X60546131Y-51479815D01*
X60500376Y-51427011D01*
X60493395Y-51407593D01*
X60466392Y-51306814D01*
X60400500Y-51192686D01*
X60307314Y-51099500D01*
X60224845Y-51051886D01*
X60176631Y-51001319D01*
X60163409Y-50932712D01*
X60189377Y-50867848D01*
X60246291Y-50827320D01*
X60286847Y-50820500D01*
X60474486Y-50820500D01*
X60661118Y-50790940D01*
X60840832Y-50732547D01*
X61009199Y-50646760D01*
X61162073Y-50535690D01*
X61295690Y-50402073D01*
X61406760Y-50249199D01*
X61492547Y-50080832D01*
X61550940Y-49901118D01*
X61570093Y-49780192D01*
X61580500Y-49714486D01*
X61580500Y-49525513D01*
X61550940Y-49338881D01*
X61492545Y-49159163D01*
X61406759Y-48990800D01*
X61295690Y-48837927D01*
X61162073Y-48704310D01*
X61009199Y-48593240D01*
X60840836Y-48507454D01*
X60766472Y-48483291D01*
X60719195Y-48467930D01*
X60661521Y-48428493D01*
X60634323Y-48364134D01*
X60646238Y-48295288D01*
X60693482Y-48243812D01*
X60719194Y-48232069D01*
X60840832Y-48192547D01*
X61009199Y-48106760D01*
X61162073Y-47995690D01*
X61295690Y-47862073D01*
X61406760Y-47709199D01*
X61492547Y-47540832D01*
X61550940Y-47361118D01*
X61559603Y-47306420D01*
X61580500Y-47174486D01*
X61580500Y-46985513D01*
X61550940Y-46798881D01*
X61492545Y-46619163D01*
X61406759Y-46450800D01*
X61295690Y-46297927D01*
X61162073Y-46164310D01*
X61009199Y-46053240D01*
X60982186Y-46039476D01*
X60840836Y-45967454D01*
X60728654Y-45931004D01*
X60719195Y-45927930D01*
X60661521Y-45888493D01*
X60634323Y-45824134D01*
X60646238Y-45755288D01*
X60693482Y-45703812D01*
X60719194Y-45692069D01*
X60840832Y-45652547D01*
X61009199Y-45566760D01*
X61162073Y-45455690D01*
X61295690Y-45322073D01*
X61406760Y-45169199D01*
X61492547Y-45000832D01*
X61550940Y-44821118D01*
X61580500Y-44634486D01*
X61580500Y-44445513D01*
X61550940Y-44258881D01*
X61498318Y-44096929D01*
X61492547Y-44079168D01*
X61492545Y-44079165D01*
X61492545Y-44079163D01*
X61406759Y-43910800D01*
X61295690Y-43757927D01*
X61162073Y-43624310D01*
X61009199Y-43513240D01*
X60840836Y-43427454D01*
X60757877Y-43400499D01*
X60719195Y-43387930D01*
X60661521Y-43348493D01*
X60634323Y-43284134D01*
X60646238Y-43215288D01*
X60693482Y-43163812D01*
X60719194Y-43152069D01*
X60840832Y-43112547D01*
X61009199Y-43026760D01*
X61162073Y-42915690D01*
X61295690Y-42782073D01*
X61406760Y-42629199D01*
X61492547Y-42460832D01*
X61550940Y-42281118D01*
X61551196Y-42279500D01*
X61580500Y-42094486D01*
X61580500Y-41905513D01*
X61550940Y-41718881D01*
X61492545Y-41539163D01*
X61406759Y-41370800D01*
X61295690Y-41217927D01*
X61162073Y-41084310D01*
X61009199Y-40973240D01*
X60840836Y-40887454D01*
X60766472Y-40863291D01*
X60719195Y-40847930D01*
X60661521Y-40808493D01*
X60634323Y-40744134D01*
X60646238Y-40675288D01*
X60693482Y-40623812D01*
X60719194Y-40612069D01*
X60840832Y-40572547D01*
X61009199Y-40486760D01*
X61162073Y-40375690D01*
X61295690Y-40242073D01*
X61406760Y-40089199D01*
X61437838Y-40028205D01*
X61485813Y-39977409D01*
X61548323Y-39960500D01*
X62065890Y-39960500D01*
X62065892Y-39960500D01*
X62193186Y-39926392D01*
X62307314Y-39860500D01*
X62400500Y-39767314D01*
X62466392Y-39653186D01*
X62500500Y-39525892D01*
X62500500Y-36809818D01*
X74220000Y-36809818D01*
X74220000Y-37030181D01*
X74254473Y-37247835D01*
X74322567Y-37457410D01*
X74422611Y-37653756D01*
X74468932Y-37717513D01*
X75137037Y-37049408D01*
X75154075Y-37112993D01*
X75219901Y-37227007D01*
X75312993Y-37320099D01*
X75427007Y-37385925D01*
X75490590Y-37402962D01*
X74822485Y-38071065D01*
X74822485Y-38071066D01*
X74886243Y-38117388D01*
X75031629Y-38191466D01*
X75082425Y-38239440D01*
X75099220Y-38307261D01*
X75076683Y-38373396D01*
X75031631Y-38412435D01*
X74990805Y-38433238D01*
X74990801Y-38433240D01*
X74837927Y-38544310D01*
X74837925Y-38544312D01*
X74837924Y-38544312D01*
X74704312Y-38677924D01*
X74704312Y-38677925D01*
X74704310Y-38677927D01*
X74691783Y-38695169D01*
X74593240Y-38830800D01*
X74507454Y-38999163D01*
X74449059Y-39178881D01*
X74419500Y-39365513D01*
X74419500Y-39554486D01*
X74449059Y-39741118D01*
X74507454Y-39920836D01*
X74536280Y-39977409D01*
X74593240Y-40089199D01*
X74704310Y-40242073D01*
X74837927Y-40375690D01*
X74990801Y-40486760D01*
X75070347Y-40527290D01*
X75159163Y-40572545D01*
X75159165Y-40572545D01*
X75159168Y-40572547D01*
X75242120Y-40599500D01*
X75280803Y-40612069D01*
X75338478Y-40651507D01*
X75365676Y-40715866D01*
X75353761Y-40784712D01*
X75306516Y-40836188D01*
X75280803Y-40847931D01*
X75159163Y-40887454D01*
X74990800Y-40973240D01*
X74903579Y-41036610D01*
X74837927Y-41084310D01*
X74837925Y-41084312D01*
X74837924Y-41084312D01*
X74704312Y-41217924D01*
X74704312Y-41217925D01*
X74704310Y-41217927D01*
X74656610Y-41283579D01*
X74593240Y-41370800D01*
X74507454Y-41539163D01*
X74449059Y-41718881D01*
X74419500Y-41905513D01*
X74419500Y-42094486D01*
X74449059Y-42281118D01*
X74507454Y-42460836D01*
X74576596Y-42596534D01*
X74593240Y-42629199D01*
X74704310Y-42782073D01*
X74837927Y-42915690D01*
X74990801Y-43026760D01*
X75070347Y-43067290D01*
X75159163Y-43112545D01*
X75159165Y-43112545D01*
X75159168Y-43112547D01*
X75248734Y-43141649D01*
X75280803Y-43152069D01*
X75338478Y-43191507D01*
X75365676Y-43255866D01*
X75353761Y-43324712D01*
X75306516Y-43376188D01*
X75280803Y-43387931D01*
X75159163Y-43427454D01*
X74990800Y-43513240D01*
X74903579Y-43576610D01*
X74837927Y-43624310D01*
X74837925Y-43624312D01*
X74837924Y-43624312D01*
X74704312Y-43757924D01*
X74704312Y-43757925D01*
X74704310Y-43757927D01*
X74671966Y-43802445D01*
X74593240Y-43910800D01*
X74507454Y-44079163D01*
X74449059Y-44258881D01*
X74419500Y-44445513D01*
X74419500Y-44634486D01*
X74449059Y-44821118D01*
X74507454Y-45000836D01*
X74593240Y-45169199D01*
X74704310Y-45322073D01*
X74837927Y-45455690D01*
X74990801Y-45566760D01*
X75070347Y-45607290D01*
X75159163Y-45652545D01*
X75159165Y-45652545D01*
X75159168Y-45652547D01*
X75248734Y-45681649D01*
X75280803Y-45692069D01*
X75338478Y-45731507D01*
X75365676Y-45795866D01*
X75353761Y-45864712D01*
X75306516Y-45916188D01*
X75280803Y-45927931D01*
X75159163Y-45967454D01*
X74990800Y-46053240D01*
X74903579Y-46116610D01*
X74837927Y-46164310D01*
X74837925Y-46164312D01*
X74837924Y-46164312D01*
X74704312Y-46297924D01*
X74704312Y-46297925D01*
X74704310Y-46297927D01*
X74660771Y-46357853D01*
X74593240Y-46450800D01*
X74507454Y-46619163D01*
X74449059Y-46798881D01*
X74419500Y-46985513D01*
X74419500Y-47174486D01*
X74449059Y-47361118D01*
X74507454Y-47540836D01*
X74573091Y-47669655D01*
X74593240Y-47709199D01*
X74704310Y-47862073D01*
X74837927Y-47995690D01*
X74990801Y-48106760D01*
X75070347Y-48147290D01*
X75159163Y-48192545D01*
X75159165Y-48192545D01*
X75159168Y-48192547D01*
X75248734Y-48221649D01*
X75280803Y-48232069D01*
X75338478Y-48271507D01*
X75365676Y-48335866D01*
X75353761Y-48404712D01*
X75306516Y-48456188D01*
X75280803Y-48467931D01*
X75159163Y-48507454D01*
X74990800Y-48593240D01*
X74903579Y-48656610D01*
X74837927Y-48704310D01*
X74837925Y-48704312D01*
X74837924Y-48704312D01*
X74704312Y-48837924D01*
X74704312Y-48837925D01*
X74704310Y-48837927D01*
X74656610Y-48903579D01*
X74593240Y-48990800D01*
X74507454Y-49159163D01*
X74449059Y-49338881D01*
X74419500Y-49525513D01*
X74419500Y-49714486D01*
X74449059Y-49901118D01*
X74507454Y-50080836D01*
X74593240Y-50249199D01*
X74704310Y-50402073D01*
X74837927Y-50535690D01*
X74990801Y-50646760D01*
X75070347Y-50687290D01*
X75159163Y-50732545D01*
X75159165Y-50732545D01*
X75159168Y-50732547D01*
X75255497Y-50763846D01*
X75338881Y-50790940D01*
X75525514Y-50820500D01*
X75525519Y-50820500D01*
X75714486Y-50820500D01*
X75901118Y-50790940D01*
X76080832Y-50732547D01*
X76249199Y-50646760D01*
X76402073Y-50535690D01*
X76535690Y-50402073D01*
X76646760Y-50249199D01*
X76732547Y-50080832D01*
X76790940Y-49901118D01*
X76810093Y-49780192D01*
X76820500Y-49714486D01*
X76820500Y-49525513D01*
X76790940Y-49338881D01*
X76732545Y-49159163D01*
X76646759Y-48990800D01*
X76535690Y-48837927D01*
X76402073Y-48704310D01*
X76249199Y-48593240D01*
X76080836Y-48507454D01*
X76006472Y-48483291D01*
X75959195Y-48467930D01*
X75901521Y-48428493D01*
X75874323Y-48364134D01*
X75886238Y-48295288D01*
X75933482Y-48243812D01*
X75959194Y-48232069D01*
X76080832Y-48192547D01*
X76249199Y-48106760D01*
X76402073Y-47995690D01*
X76535690Y-47862073D01*
X76646760Y-47709199D01*
X76732547Y-47540832D01*
X76790940Y-47361118D01*
X76799603Y-47306420D01*
X76820500Y-47174486D01*
X76820500Y-46985513D01*
X76790940Y-46798881D01*
X76732545Y-46619163D01*
X76646759Y-46450800D01*
X76535690Y-46297927D01*
X76402073Y-46164310D01*
X76249199Y-46053240D01*
X76222186Y-46039476D01*
X76080836Y-45967454D01*
X75968654Y-45931004D01*
X75959195Y-45927930D01*
X75901521Y-45888493D01*
X75874323Y-45824134D01*
X75886238Y-45755288D01*
X75933482Y-45703812D01*
X75959194Y-45692069D01*
X76080832Y-45652547D01*
X76249199Y-45566760D01*
X76402073Y-45455690D01*
X76535690Y-45322073D01*
X76646760Y-45169199D01*
X76732547Y-45000832D01*
X76790940Y-44821118D01*
X76820500Y-44634486D01*
X76820500Y-44445513D01*
X76790940Y-44258881D01*
X76738318Y-44096929D01*
X76732547Y-44079168D01*
X76732545Y-44079165D01*
X76732545Y-44079163D01*
X76646759Y-43910800D01*
X76535690Y-43757927D01*
X76402073Y-43624310D01*
X76249199Y-43513240D01*
X76080836Y-43427454D01*
X75997877Y-43400499D01*
X75959195Y-43387930D01*
X75901521Y-43348493D01*
X75874323Y-43284134D01*
X75886238Y-43215288D01*
X75933482Y-43163812D01*
X75959194Y-43152069D01*
X76080832Y-43112547D01*
X76249199Y-43026760D01*
X76402073Y-42915690D01*
X76535690Y-42782073D01*
X76646760Y-42629199D01*
X76732547Y-42460832D01*
X76790940Y-42281118D01*
X76791196Y-42279500D01*
X76820500Y-42094486D01*
X76820500Y-41905513D01*
X76790940Y-41718881D01*
X76732545Y-41539163D01*
X76646759Y-41370800D01*
X76535690Y-41217927D01*
X76424660Y-41106897D01*
X85599500Y-41106897D01*
X85599500Y-41106898D01*
X85599500Y-41106902D01*
X85599500Y-42893096D01*
X85599501Y-42893102D01*
X85610123Y-42981565D01*
X85610123Y-42981566D01*
X85610124Y-42981568D01*
X85665637Y-43122339D01*
X85665640Y-43122345D01*
X85757076Y-43242923D01*
X85877654Y-43334359D01*
X85877657Y-43334361D01*
X86018435Y-43389877D01*
X86106897Y-43400500D01*
X87893102Y-43400499D01*
X87981565Y-43389877D01*
X88122343Y-43334361D01*
X88242923Y-43242923D01*
X88334361Y-43122343D01*
X88389877Y-42981565D01*
X88400500Y-42893103D01*
X88400499Y-41106898D01*
X88389877Y-41018435D01*
X88334361Y-40877657D01*
X88334359Y-40877654D01*
X88242923Y-40757076D01*
X88122345Y-40665640D01*
X88122339Y-40665637D01*
X87981566Y-40610123D01*
X87968927Y-40608605D01*
X87893103Y-40599500D01*
X87893097Y-40599500D01*
X86106903Y-40599500D01*
X86018435Y-40610123D01*
X86018431Y-40610124D01*
X85877660Y-40665637D01*
X85877654Y-40665640D01*
X85757076Y-40757076D01*
X85665640Y-40877654D01*
X85665637Y-40877660D01*
X85610123Y-41018433D01*
X85610123Y-41018435D01*
X85599500Y-41106897D01*
X76424660Y-41106897D01*
X76402073Y-41084310D01*
X76249199Y-40973240D01*
X76080836Y-40887454D01*
X76006472Y-40863291D01*
X75959195Y-40847930D01*
X75901521Y-40808493D01*
X75874323Y-40744134D01*
X75886238Y-40675288D01*
X75933482Y-40623812D01*
X75959194Y-40612069D01*
X76080832Y-40572547D01*
X76249199Y-40486760D01*
X76402073Y-40375690D01*
X76535690Y-40242073D01*
X76646760Y-40089199D01*
X76732547Y-39920832D01*
X76790940Y-39741118D01*
X76804867Y-39653186D01*
X76820500Y-39554486D01*
X76820500Y-39365513D01*
X76790940Y-39178881D01*
X76732545Y-38999163D01*
X76646759Y-38830800D01*
X76535690Y-38677927D01*
X76402073Y-38544310D01*
X76249199Y-38433240D01*
X76249198Y-38433239D01*
X76249196Y-38433238D01*
X76208369Y-38412435D01*
X76157573Y-38364460D01*
X76140779Y-38296639D01*
X76163317Y-38230504D01*
X76208371Y-38191466D01*
X76353758Y-38117388D01*
X76417513Y-38071066D01*
X76417514Y-38071066D01*
X75749409Y-37402962D01*
X75812993Y-37385925D01*
X75927007Y-37320099D01*
X76020099Y-37227007D01*
X76085925Y-37112993D01*
X76102962Y-37049410D01*
X76771066Y-37717514D01*
X76771066Y-37717513D01*
X76817386Y-37653760D01*
X76917432Y-37457410D01*
X76985526Y-37247835D01*
X77020000Y-37030181D01*
X77020000Y-36809818D01*
X76985526Y-36592164D01*
X76917432Y-36382589D01*
X76817388Y-36186243D01*
X76771066Y-36122485D01*
X76771065Y-36122485D01*
X76102962Y-36790589D01*
X76085925Y-36727007D01*
X76020099Y-36612993D01*
X75927007Y-36519901D01*
X75812993Y-36454075D01*
X75749407Y-36437037D01*
X76417513Y-35768932D01*
X76353756Y-35722611D01*
X76208370Y-35648533D01*
X76157574Y-35600558D01*
X76140779Y-35532737D01*
X76163316Y-35466602D01*
X76208371Y-35427563D01*
X76249197Y-35406761D01*
X76249196Y-35406761D01*
X76249199Y-35406760D01*
X76402073Y-35295690D01*
X76535690Y-35162073D01*
X76646760Y-35009199D01*
X76732547Y-34840832D01*
X76790940Y-34661118D01*
X76820500Y-34474486D01*
X76820500Y-34285513D01*
X76790940Y-34098881D01*
X76732545Y-33919163D01*
X76646759Y-33750800D01*
X76535690Y-33597927D01*
X76402073Y-33464310D01*
X76249199Y-33353240D01*
X76080836Y-33267454D01*
X75901118Y-33209059D01*
X75714486Y-33179500D01*
X75714481Y-33179500D01*
X75525519Y-33179500D01*
X75525514Y-33179500D01*
X75338881Y-33209059D01*
X75159163Y-33267454D01*
X74990800Y-33353240D01*
X74903579Y-33416610D01*
X74837927Y-33464310D01*
X74837925Y-33464312D01*
X74837924Y-33464312D01*
X74704312Y-33597924D01*
X74704312Y-33597925D01*
X74704310Y-33597927D01*
X74656610Y-33663579D01*
X74593240Y-33750800D01*
X74507454Y-33919163D01*
X74449059Y-34098881D01*
X74419500Y-34285513D01*
X74419500Y-34474486D01*
X74449059Y-34661118D01*
X74507454Y-34840836D01*
X74593240Y-35009199D01*
X74704310Y-35162073D01*
X74837927Y-35295690D01*
X74990801Y-35406760D01*
X75021550Y-35422427D01*
X75031629Y-35427563D01*
X75082425Y-35475538D01*
X75099220Y-35543359D01*
X75076682Y-35609494D01*
X75031630Y-35648532D01*
X74886237Y-35722614D01*
X74886234Y-35722616D01*
X74822485Y-35768931D01*
X74822485Y-35768932D01*
X75490590Y-36437037D01*
X75427007Y-36454075D01*
X75312993Y-36519901D01*
X75219901Y-36612993D01*
X75154075Y-36727007D01*
X75137037Y-36790590D01*
X74468932Y-36122485D01*
X74468931Y-36122485D01*
X74422616Y-36186233D01*
X74322567Y-36382589D01*
X74254473Y-36592164D01*
X74220000Y-36809818D01*
X62500500Y-36809818D01*
X62500500Y-31729778D01*
X85599500Y-31729778D01*
X85599500Y-31950221D01*
X85633985Y-32167952D01*
X85702103Y-32377603D01*
X85702104Y-32377606D01*
X85747344Y-32466392D01*
X85786944Y-32544111D01*
X85802187Y-32574025D01*
X85931752Y-32752358D01*
X85931756Y-32752363D01*
X86087636Y-32908243D01*
X86087641Y-32908247D01*
X86243192Y-33021260D01*
X86265978Y-33037815D01*
X86394375Y-33103237D01*
X86462393Y-33137895D01*
X86462396Y-33137896D01*
X86555954Y-33168294D01*
X86672049Y-33206015D01*
X86889778Y-33240500D01*
X86889779Y-33240500D01*
X87110221Y-33240500D01*
X87110222Y-33240500D01*
X87327951Y-33206015D01*
X87537606Y-33137895D01*
X87734022Y-33037815D01*
X87912365Y-32908242D01*
X88068242Y-32752365D01*
X88197815Y-32574022D01*
X88297895Y-32377606D01*
X88366015Y-32167951D01*
X88400500Y-31950222D01*
X88400500Y-31729778D01*
X88366015Y-31512049D01*
X88331955Y-31407221D01*
X88297896Y-31302396D01*
X88297895Y-31302393D01*
X88236328Y-31181564D01*
X88197815Y-31105978D01*
X88157508Y-31050500D01*
X88068247Y-30927641D01*
X88068243Y-30927636D01*
X87912363Y-30771756D01*
X87912358Y-30771752D01*
X87734025Y-30642187D01*
X87734024Y-30642186D01*
X87734022Y-30642185D01*
X87671096Y-30610122D01*
X87537606Y-30542104D01*
X87537603Y-30542103D01*
X87327952Y-30473985D01*
X87200717Y-30453833D01*
X87110222Y-30439500D01*
X86889778Y-30439500D01*
X86817201Y-30450995D01*
X86672047Y-30473985D01*
X86462396Y-30542103D01*
X86462393Y-30542104D01*
X86265974Y-30642187D01*
X86087641Y-30771752D01*
X86087636Y-30771756D01*
X85931756Y-30927636D01*
X85931752Y-30927641D01*
X85802187Y-31105974D01*
X85702104Y-31302393D01*
X85702103Y-31302396D01*
X85633985Y-31512047D01*
X85599500Y-31729778D01*
X62500500Y-31729778D01*
X62500500Y-26105131D01*
X85849500Y-26105131D01*
X85849500Y-27894856D01*
X85849502Y-27894882D01*
X85852413Y-27919987D01*
X85852415Y-27919991D01*
X85897793Y-28022764D01*
X85897794Y-28022765D01*
X85977235Y-28102206D01*
X86080009Y-28147585D01*
X86105135Y-28150500D01*
X87894864Y-28150499D01*
X87894879Y-28150497D01*
X87894882Y-28150497D01*
X87919987Y-28147586D01*
X87919988Y-28147585D01*
X87919991Y-28147585D01*
X88022765Y-28102206D01*
X88102206Y-28022765D01*
X88147585Y-27919991D01*
X88150500Y-27894865D01*
X88150499Y-27157125D01*
X88170183Y-27090089D01*
X88222987Y-27044334D01*
X88292146Y-27034390D01*
X88355702Y-27063415D01*
X88393476Y-27122193D01*
X88396972Y-27137729D01*
X88417829Y-27269410D01*
X88473787Y-27441636D01*
X88473788Y-27441639D01*
X88556006Y-27602997D01*
X88662441Y-27749494D01*
X88662445Y-27749499D01*
X88790500Y-27877554D01*
X88790505Y-27877558D01*
X88918287Y-27970396D01*
X88937006Y-27983996D01*
X89013094Y-28022765D01*
X89098360Y-28066211D01*
X89098363Y-28066212D01*
X89184476Y-28094191D01*
X89270591Y-28122171D01*
X89353429Y-28135291D01*
X89449449Y-28150500D01*
X89449454Y-28150500D01*
X89630551Y-28150500D01*
X89717259Y-28136765D01*
X89809409Y-28122171D01*
X89981639Y-28066211D01*
X90142994Y-27983996D01*
X90289501Y-27877553D01*
X90417553Y-27749501D01*
X90523996Y-27602994D01*
X90606211Y-27441639D01*
X90662171Y-27269409D01*
X90676765Y-27177259D01*
X90690500Y-27090551D01*
X90690500Y-26909448D01*
X90674019Y-26805397D01*
X90662171Y-26730591D01*
X90606211Y-26558361D01*
X90606211Y-26558360D01*
X90577740Y-26502484D01*
X90523996Y-26397006D01*
X90495131Y-26357276D01*
X90417558Y-26250505D01*
X90417554Y-26250500D01*
X90289499Y-26122445D01*
X90289494Y-26122441D01*
X90142997Y-26016006D01*
X90142996Y-26016005D01*
X90142994Y-26016004D01*
X90066906Y-25977235D01*
X89981639Y-25933788D01*
X89981636Y-25933787D01*
X89809410Y-25877829D01*
X89630551Y-25849500D01*
X89630546Y-25849500D01*
X89449454Y-25849500D01*
X89449449Y-25849500D01*
X89270589Y-25877829D01*
X89098363Y-25933787D01*
X89098360Y-25933788D01*
X88937002Y-26016006D01*
X88790505Y-26122441D01*
X88790500Y-26122445D01*
X88662445Y-26250500D01*
X88662441Y-26250505D01*
X88556006Y-26397002D01*
X88473788Y-26558360D01*
X88473787Y-26558363D01*
X88417829Y-26730589D01*
X88396972Y-26862271D01*
X88367042Y-26925405D01*
X88307731Y-26962336D01*
X88237868Y-26961338D01*
X88179636Y-26922728D01*
X88151522Y-26858764D01*
X88150499Y-26842872D01*
X88150499Y-26105143D01*
X88150499Y-26105136D01*
X88150497Y-26105117D01*
X88147586Y-26080012D01*
X88147585Y-26080010D01*
X88147585Y-26080009D01*
X88102206Y-25977235D01*
X88022765Y-25897794D01*
X88022763Y-25897793D01*
X87919992Y-25852415D01*
X87894865Y-25849500D01*
X86105143Y-25849500D01*
X86105117Y-25849502D01*
X86080012Y-25852413D01*
X86080008Y-25852415D01*
X85977235Y-25897793D01*
X85897794Y-25977234D01*
X85852415Y-26080006D01*
X85852415Y-26080008D01*
X85849500Y-26105131D01*
X62500500Y-26105131D01*
X62500500Y-23871286D01*
X62520185Y-23804247D01*
X62572989Y-23758492D01*
X62642147Y-23748548D01*
X62697387Y-23770969D01*
X62713827Y-23782914D01*
X62924197Y-23890102D01*
X63148752Y-23963065D01*
X63148751Y-23963065D01*
X63381948Y-24000000D01*
X63618052Y-24000000D01*
X63851247Y-23963065D01*
X64075802Y-23890102D01*
X64286163Y-23782918D01*
X64286169Y-23782914D01*
X64369104Y-23722658D01*
X64369105Y-23722658D01*
X63670234Y-23023787D01*
X63712292Y-23012518D01*
X63837708Y-22940110D01*
X63940110Y-22837708D01*
X64012518Y-22712292D01*
X64023787Y-22670234D01*
X64722658Y-23369105D01*
X64722658Y-23369104D01*
X64782914Y-23286169D01*
X64782918Y-23286163D01*
X64890102Y-23075802D01*
X64963065Y-22851247D01*
X65000000Y-22618052D01*
X65000000Y-22381947D01*
X64963065Y-22148752D01*
X64890102Y-21924197D01*
X64782914Y-21713828D01*
X64722658Y-21630894D01*
X64722658Y-21630893D01*
X64023787Y-22329765D01*
X64012518Y-22287708D01*
X63940110Y-22162292D01*
X63837708Y-22059890D01*
X63712292Y-21987482D01*
X63670233Y-21976212D01*
X64369105Y-21277340D01*
X64369104Y-21277338D01*
X64286174Y-21217087D01*
X64075802Y-21109897D01*
X63851247Y-21036934D01*
X63851248Y-21036934D01*
X63618052Y-21000000D01*
X63381948Y-21000000D01*
X63148752Y-21036934D01*
X62924197Y-21109897D01*
X62713825Y-21217086D01*
X62697384Y-21229032D01*
X62631577Y-21252511D01*
X62563523Y-21236684D01*
X62514829Y-21186578D01*
X62500500Y-21128713D01*
X62500500Y-19405131D01*
X69989500Y-19405131D01*
X69989500Y-21294856D01*
X69989502Y-21294882D01*
X69992413Y-21319987D01*
X69992415Y-21319991D01*
X70037793Y-21422764D01*
X70037794Y-21422765D01*
X70117235Y-21502206D01*
X70220009Y-21547585D01*
X70245135Y-21550500D01*
X72134864Y-21550499D01*
X72134879Y-21550497D01*
X72134882Y-21550497D01*
X72159987Y-21547586D01*
X72159988Y-21547585D01*
X72159991Y-21547585D01*
X72262765Y-21502206D01*
X72342206Y-21422765D01*
X72387585Y-21319991D01*
X72390500Y-21294865D01*
X72390499Y-20881906D01*
X72410183Y-20814870D01*
X72462987Y-20769115D01*
X72532146Y-20759171D01*
X72595702Y-20788196D01*
X72624984Y-20825614D01*
X72682437Y-20938371D01*
X72703240Y-20979199D01*
X72814310Y-21132073D01*
X72947927Y-21265690D01*
X73100801Y-21376760D01*
X73180347Y-21417290D01*
X73269163Y-21462545D01*
X73269165Y-21462545D01*
X73269168Y-21462547D01*
X73365497Y-21493846D01*
X73448881Y-21520940D01*
X73635514Y-21550500D01*
X73635519Y-21550500D01*
X73824486Y-21550500D01*
X74011118Y-21520940D01*
X74190832Y-21462547D01*
X74359199Y-21376760D01*
X74512073Y-21265690D01*
X74645690Y-21132073D01*
X74756760Y-20979199D01*
X74777563Y-20938371D01*
X74825537Y-20887574D01*
X74893358Y-20870779D01*
X74959493Y-20893316D01*
X74998533Y-20938370D01*
X75072611Y-21083756D01*
X75118932Y-21147513D01*
X75787037Y-20479408D01*
X75804075Y-20542993D01*
X75869901Y-20657007D01*
X75962993Y-20750099D01*
X76077007Y-20815925D01*
X76140590Y-20832962D01*
X75472485Y-21501065D01*
X75472485Y-21501066D01*
X75536243Y-21547388D01*
X75732589Y-21647432D01*
X75942164Y-21715526D01*
X76159819Y-21750000D01*
X76380181Y-21750000D01*
X76597835Y-21715526D01*
X76807410Y-21647432D01*
X77003760Y-21547386D01*
X77067513Y-21501066D01*
X77067514Y-21501066D01*
X76399409Y-20832962D01*
X76462993Y-20815925D01*
X76577007Y-20750099D01*
X76670099Y-20657007D01*
X76735925Y-20542993D01*
X76752962Y-20479410D01*
X77421066Y-21147514D01*
X77421066Y-21147513D01*
X77467388Y-21083758D01*
X77541466Y-20938371D01*
X77589440Y-20887574D01*
X77657261Y-20870779D01*
X77723396Y-20893316D01*
X77762435Y-20938369D01*
X77783238Y-20979196D01*
X77783240Y-20979199D01*
X77894310Y-21132073D01*
X78027927Y-21265690D01*
X78180801Y-21376760D01*
X78260347Y-21417290D01*
X78349163Y-21462545D01*
X78349165Y-21462545D01*
X78349168Y-21462547D01*
X78445497Y-21493846D01*
X78528881Y-21520940D01*
X78715514Y-21550500D01*
X78715519Y-21550500D01*
X78904486Y-21550500D01*
X79091118Y-21520940D01*
X79270832Y-21462547D01*
X79439199Y-21376760D01*
X79592073Y-21265690D01*
X79725690Y-21132073D01*
X79836760Y-20979199D01*
X79922547Y-20810832D01*
X79980940Y-20631118D01*
X80010500Y-20444486D01*
X80010500Y-20255513D01*
X79980940Y-20068881D01*
X79939706Y-19941977D01*
X79922547Y-19889168D01*
X79922545Y-19889165D01*
X79922545Y-19889163D01*
X79836759Y-19720800D01*
X79831846Y-19714038D01*
X79725690Y-19567927D01*
X79592073Y-19434310D01*
X79439199Y-19323240D01*
X79270836Y-19237454D01*
X79091118Y-19179059D01*
X78904486Y-19149500D01*
X78904481Y-19149500D01*
X78715519Y-19149500D01*
X78715514Y-19149500D01*
X78528881Y-19179059D01*
X78349163Y-19237454D01*
X78180800Y-19323240D01*
X78102661Y-19380012D01*
X78027927Y-19434310D01*
X78027925Y-19434312D01*
X78027924Y-19434312D01*
X77894312Y-19567924D01*
X77894312Y-19567925D01*
X77894310Y-19567927D01*
X77788154Y-19714038D01*
X77783240Y-19720801D01*
X77762435Y-19761631D01*
X77714459Y-19812426D01*
X77646638Y-19829220D01*
X77580503Y-19806681D01*
X77541466Y-19761629D01*
X77467388Y-19616243D01*
X77421066Y-19552485D01*
X77421065Y-19552485D01*
X76752962Y-20220589D01*
X76735925Y-20157007D01*
X76670099Y-20042993D01*
X76577007Y-19949901D01*
X76462993Y-19884075D01*
X76399407Y-19867037D01*
X77067513Y-19198932D01*
X77003756Y-19152611D01*
X76807410Y-19052567D01*
X76597835Y-18984473D01*
X76380181Y-18950000D01*
X76159819Y-18950000D01*
X75942164Y-18984473D01*
X75732589Y-19052567D01*
X75536233Y-19152616D01*
X75472485Y-19198931D01*
X75472485Y-19198932D01*
X76140590Y-19867037D01*
X76077007Y-19884075D01*
X75962993Y-19949901D01*
X75869901Y-20042993D01*
X75804075Y-20157007D01*
X75787037Y-20220590D01*
X75118932Y-19552485D01*
X75118931Y-19552485D01*
X75072616Y-19616234D01*
X75072614Y-19616237D01*
X74998532Y-19761630D01*
X74950558Y-19812425D01*
X74882737Y-19829220D01*
X74816602Y-19806682D01*
X74777563Y-19761629D01*
X74756759Y-19720800D01*
X74751846Y-19714038D01*
X74645690Y-19567927D01*
X74512073Y-19434310D01*
X74391226Y-19346509D01*
X74391224Y-19346507D01*
X74359202Y-19323242D01*
X74359201Y-19323241D01*
X74359199Y-19323240D01*
X74268909Y-19277235D01*
X74190836Y-19237454D01*
X74011118Y-19179059D01*
X73824486Y-19149500D01*
X73824481Y-19149500D01*
X73635519Y-19149500D01*
X73635514Y-19149500D01*
X73448881Y-19179059D01*
X73269163Y-19237454D01*
X73100800Y-19323240D01*
X73022661Y-19380012D01*
X72947927Y-19434310D01*
X72947925Y-19434312D01*
X72947924Y-19434312D01*
X72814312Y-19567924D01*
X72814312Y-19567925D01*
X72814310Y-19567927D01*
X72779213Y-19616234D01*
X72703240Y-19720800D01*
X72624984Y-19874386D01*
X72577009Y-19925182D01*
X72509188Y-19941977D01*
X72443053Y-19919439D01*
X72399602Y-19864724D01*
X72390499Y-19818091D01*
X72390499Y-19405143D01*
X72390499Y-19405136D01*
X72390497Y-19405117D01*
X72387586Y-19380012D01*
X72387585Y-19380010D01*
X72387585Y-19380009D01*
X72342206Y-19277235D01*
X72262765Y-19197794D01*
X72262763Y-19197793D01*
X72159992Y-19152415D01*
X72134865Y-19149500D01*
X70245143Y-19149500D01*
X70245117Y-19149502D01*
X70220012Y-19152413D01*
X70220008Y-19152415D01*
X70117235Y-19197793D01*
X70037794Y-19277234D01*
X69992415Y-19380006D01*
X69992415Y-19380008D01*
X69989500Y-19405131D01*
X62500500Y-19405131D01*
X62500500Y-19124691D01*
X62520185Y-19057652D01*
X62572989Y-19011897D01*
X62642147Y-19001953D01*
X62697385Y-19024373D01*
X62801055Y-19099692D01*
X62818390Y-19112287D01*
X62934607Y-19171503D01*
X63000776Y-19205218D01*
X63000778Y-19205218D01*
X63000781Y-19205220D01*
X63063569Y-19225621D01*
X63195465Y-19268477D01*
X63262416Y-19279081D01*
X63397648Y-19300500D01*
X63397649Y-19300500D01*
X63602351Y-19300500D01*
X63602352Y-19300500D01*
X63804534Y-19268477D01*
X63999219Y-19205220D01*
X64181610Y-19112287D01*
X64274590Y-19044732D01*
X64347213Y-18991971D01*
X64347215Y-18991968D01*
X64347219Y-18991966D01*
X64491966Y-18847219D01*
X64491968Y-18847215D01*
X64491971Y-18847213D01*
X64544732Y-18774590D01*
X64612287Y-18681610D01*
X64705220Y-18499219D01*
X64768477Y-18304534D01*
X64800500Y-18102352D01*
X64800500Y-17897648D01*
X64768477Y-17695466D01*
X64705220Y-17500781D01*
X64705218Y-17500778D01*
X64705218Y-17500776D01*
X64670070Y-17431795D01*
X64612287Y-17318390D01*
X64604556Y-17307749D01*
X64491971Y-17152786D01*
X64347213Y-17008028D01*
X64181613Y-16887715D01*
X64181612Y-16887714D01*
X64181610Y-16887713D01*
X64124653Y-16858691D01*
X63999223Y-16794781D01*
X63804534Y-16731522D01*
X63629995Y-16703878D01*
X63602352Y-16699500D01*
X63397648Y-16699500D01*
X63373329Y-16703351D01*
X63195465Y-16731522D01*
X63000776Y-16794781D01*
X62818386Y-16887715D01*
X62652786Y-17008028D01*
X62508028Y-17152786D01*
X62387715Y-17318386D01*
X62329930Y-17431795D01*
X62281955Y-17482591D01*
X62219445Y-17499500D01*
X61934108Y-17499500D01*
X61806812Y-17533608D01*
X61692686Y-17599500D01*
X61692683Y-17599502D01*
X61599502Y-17692683D01*
X61599500Y-17692686D01*
X61533608Y-17806812D01*
X61499500Y-17934108D01*
X61499500Y-33060847D01*
X61479815Y-33127886D01*
X61427011Y-33173641D01*
X61359267Y-33183381D01*
X61359255Y-33183490D01*
X61358844Y-33183442D01*
X61357853Y-33183585D01*
X61355020Y-33182998D01*
X61324868Y-33179500D01*
X61324865Y-33179500D01*
X61004500Y-33179500D01*
X60937461Y-33159815D01*
X60891706Y-33107011D01*
X60880500Y-33055500D01*
X60880500Y-30541518D01*
X60900185Y-30474479D01*
X60916823Y-30453833D01*
X60924114Y-30446542D01*
X61000775Y-30331811D01*
X61053580Y-30204328D01*
X61080500Y-30068993D01*
X61080500Y-29931007D01*
X61080500Y-29931004D01*
X61053581Y-29795677D01*
X61053580Y-29795676D01*
X61053580Y-29795672D01*
X61053578Y-29795667D01*
X61000778Y-29668195D01*
X61000771Y-29668182D01*
X60924114Y-29553458D01*
X60924111Y-29553454D01*
X60826545Y-29455888D01*
X60826541Y-29455885D01*
X60711817Y-29379228D01*
X60711804Y-29379221D01*
X60584332Y-29326421D01*
X60584322Y-29326418D01*
X60448995Y-29299500D01*
X60448993Y-29299500D01*
X60311007Y-29299500D01*
X60311005Y-29299500D01*
X60175677Y-29326418D01*
X60175667Y-29326421D01*
X60048195Y-29379221D01*
X60048182Y-29379228D01*
X59933458Y-29455885D01*
X59933454Y-29455888D01*
X59835888Y-29553454D01*
X59835885Y-29553458D01*
X59759228Y-29668182D01*
X59759221Y-29668195D01*
X59706421Y-29795667D01*
X59706418Y-29795677D01*
X59679500Y-29931004D01*
X59679500Y-29931007D01*
X59679500Y-30068993D01*
X59679500Y-30068995D01*
X59679499Y-30068995D01*
X59706418Y-30204322D01*
X59706421Y-30204332D01*
X59759221Y-30331804D01*
X59759228Y-30331817D01*
X59835885Y-30446541D01*
X59843177Y-30453833D01*
X59876665Y-30515155D01*
X59879500Y-30541518D01*
X59879500Y-33055500D01*
X59859815Y-33122539D01*
X59807011Y-33168294D01*
X59755500Y-33179500D01*
X59435143Y-33179500D01*
X59435117Y-33179502D01*
X59410012Y-33182413D01*
X59410008Y-33182415D01*
X59307235Y-33227793D01*
X59227794Y-33307234D01*
X59182415Y-33410006D01*
X59182415Y-33410008D01*
X59179500Y-33435131D01*
X59179500Y-35324856D01*
X59179502Y-35324882D01*
X59182413Y-35349987D01*
X59182415Y-35349991D01*
X59227793Y-35452764D01*
X59227794Y-35452765D01*
X59307235Y-35532206D01*
X59410009Y-35577585D01*
X59435135Y-35580500D01*
X59848092Y-35580499D01*
X59915129Y-35600183D01*
X59960884Y-35652987D01*
X59970828Y-35722146D01*
X59941803Y-35785702D01*
X59904385Y-35814983D01*
X59750805Y-35893236D01*
X59648885Y-35967286D01*
X59597927Y-36004310D01*
X59597925Y-36004312D01*
X59597924Y-36004312D01*
X59464312Y-36137924D01*
X59464312Y-36137925D01*
X59464310Y-36137927D01*
X59429206Y-36186243D01*
X59353240Y-36290800D01*
X59281400Y-36431795D01*
X59233425Y-36482591D01*
X59170915Y-36499500D01*
X53934108Y-36499500D01*
X53806812Y-36533608D01*
X53692686Y-36599500D01*
X53692683Y-36599502D01*
X53599502Y-36692683D01*
X53599500Y-36692686D01*
X53533608Y-36806812D01*
X53499500Y-36934108D01*
X53499500Y-45458481D01*
X53479815Y-45525520D01*
X53463181Y-45546162D01*
X53455888Y-45553454D01*
X53455885Y-45553458D01*
X53379228Y-45668182D01*
X53379221Y-45668195D01*
X53326421Y-45795667D01*
X53326418Y-45795677D01*
X53299500Y-45931004D01*
X53299500Y-45931007D01*
X53299500Y-46068993D01*
X53299500Y-46068995D01*
X53299499Y-46068995D01*
X51577446Y-46068995D01*
X51506179Y-46039476D01*
X51386420Y-45989870D01*
X51386412Y-45989868D01*
X51183469Y-45949500D01*
X51183465Y-45949500D01*
X50976535Y-45949500D01*
X50976530Y-45949500D01*
X50773587Y-45989868D01*
X50773579Y-45989870D01*
X50582403Y-46069058D01*
X50410342Y-46184024D01*
X50264024Y-46330342D01*
X50149058Y-46502403D01*
X50069870Y-46693579D01*
X50069868Y-46693587D01*
X50029500Y-46896530D01*
X49590499Y-46896530D01*
X49550130Y-46693580D01*
X49470941Y-46502402D01*
X49355977Y-46330345D01*
X49355975Y-46330342D01*
X49209657Y-46184024D01*
X49123626Y-46126541D01*
X49037598Y-46069059D01*
X49037593Y-46069057D01*
X48846420Y-45989870D01*
X48846412Y-45989868D01*
X48643469Y-45949500D01*
X48643465Y-45949500D01*
X48436535Y-45949500D01*
X48436530Y-45949500D01*
X48233587Y-45989868D01*
X48233579Y-45989870D01*
X48042403Y-46069058D01*
X47870342Y-46184024D01*
X47724024Y-46330342D01*
X47609058Y-46502403D01*
X47529870Y-46693579D01*
X47529868Y-46693587D01*
X47495617Y-46865780D01*
X47463232Y-46927691D01*
X47402517Y-46962265D01*
X47332747Y-46958526D01*
X47276075Y-46917660D01*
X47250494Y-46852641D01*
X47250000Y-46841589D01*
X47250000Y-46202172D01*
X47249999Y-46202155D01*
X47243598Y-46142627D01*
X47243596Y-46142620D01*
X47193354Y-46007913D01*
X47193350Y-46007906D01*
X47107190Y-45892812D01*
X47107187Y-45892809D01*
X46992093Y-45806649D01*
X46992086Y-45806645D01*
X46857379Y-45756403D01*
X46857372Y-45756401D01*
X46797844Y-45750000D01*
X46250000Y-45750000D01*
X46250000Y-46684314D01*
X46245606Y-46679920D01*
X46154394Y-46627259D01*
X46052661Y-46600000D01*
X45947339Y-46600000D01*
X45845606Y-46627259D01*
X45754394Y-46679920D01*
X45750000Y-46684314D01*
X45750000Y-45750000D01*
X45202155Y-45750000D01*
X45142627Y-45756401D01*
X45142620Y-45756403D01*
X45007913Y-45806645D01*
X45007906Y-45806649D01*
X44892812Y-45892809D01*
X44892809Y-45892812D01*
X44806649Y-46007906D01*
X44806645Y-46007913D01*
X44756403Y-46142620D01*
X44756401Y-46142627D01*
X44750000Y-46202155D01*
X39050500Y-46202155D01*
X39050500Y-22896530D01*
X49949500Y-22896530D01*
X49949500Y-23103469D01*
X49989868Y-23306412D01*
X49989870Y-23306420D01*
X50069058Y-23497596D01*
X50184024Y-23669657D01*
X50330342Y-23815975D01*
X50330345Y-23815977D01*
X50502402Y-23930941D01*
X50693580Y-24010130D01*
X50896530Y-24050499D01*
X50896534Y-24050500D01*
X50896535Y-24050500D01*
X51103466Y-24050500D01*
X51103467Y-24050499D01*
X51306420Y-24010130D01*
X51497598Y-23930941D01*
X51669655Y-23815977D01*
X51815977Y-23669655D01*
X51930941Y-23497598D01*
X52010130Y-23306420D01*
X52050500Y-23103465D01*
X52050500Y-22896535D01*
X52010130Y-22693580D01*
X51930941Y-22502402D01*
X51930940Y-22502400D01*
X51930940Y-22502399D01*
X51893233Y-22445967D01*
X51893231Y-22445965D01*
X51850456Y-22381947D01*
X55500000Y-22381947D01*
X55500000Y-22618052D01*
X55536934Y-22851247D01*
X55609897Y-23075802D01*
X55717087Y-23286174D01*
X55777338Y-23369104D01*
X55777340Y-23369105D01*
X56476212Y-22670233D01*
X56487482Y-22712292D01*
X56559890Y-22837708D01*
X56662292Y-22940110D01*
X56787708Y-23012518D01*
X56829765Y-23023787D01*
X56130893Y-23722658D01*
X56213828Y-23782914D01*
X56424197Y-23890102D01*
X56648752Y-23963065D01*
X56648751Y-23963065D01*
X56881948Y-24000000D01*
X57118052Y-24000000D01*
X57351247Y-23963065D01*
X57575802Y-23890102D01*
X57786163Y-23782918D01*
X57786169Y-23782914D01*
X57869104Y-23722658D01*
X57869105Y-23722658D01*
X57170233Y-23023787D01*
X57212292Y-23012518D01*
X57337708Y-22940110D01*
X57440110Y-22837708D01*
X57512518Y-22712292D01*
X57523787Y-22670234D01*
X58222658Y-23369105D01*
X58222658Y-23369104D01*
X58282914Y-23286169D01*
X58282918Y-23286163D01*
X58390102Y-23075802D01*
X58463065Y-22851247D01*
X58500000Y-22618052D01*
X58500000Y-22381947D01*
X58463065Y-22148752D01*
X58390102Y-21924197D01*
X58282914Y-21713828D01*
X58222658Y-21630894D01*
X58222658Y-21630893D01*
X57523787Y-22329765D01*
X57512518Y-22287708D01*
X57440110Y-22162292D01*
X57337708Y-22059890D01*
X57212292Y-21987482D01*
X57170234Y-21976212D01*
X57869105Y-21277340D01*
X57869104Y-21277338D01*
X57786174Y-21217087D01*
X57575802Y-21109897D01*
X57351247Y-21036934D01*
X57351248Y-21036934D01*
X57118052Y-21000000D01*
X56881948Y-21000000D01*
X56648752Y-21036934D01*
X56424197Y-21109897D01*
X56213830Y-21217084D01*
X56130894Y-21277340D01*
X56829766Y-21976212D01*
X56787708Y-21987482D01*
X56662292Y-22059890D01*
X56559890Y-22162292D01*
X56487482Y-22287708D01*
X56476212Y-22329766D01*
X55777340Y-21630894D01*
X55717084Y-21713830D01*
X55609897Y-21924197D01*
X55536934Y-22148752D01*
X55500000Y-22381947D01*
X51850456Y-22381947D01*
X51815975Y-22330342D01*
X51669657Y-22184024D01*
X51583626Y-22126541D01*
X51497598Y-22069059D01*
X51475462Y-22059890D01*
X51306420Y-21989870D01*
X51306412Y-21989868D01*
X51103469Y-21949500D01*
X51103465Y-21949500D01*
X50896535Y-21949500D01*
X50896530Y-21949500D01*
X50693587Y-21989868D01*
X50693579Y-21989870D01*
X50502403Y-22069058D01*
X50330342Y-22184024D01*
X50184024Y-22330342D01*
X50069058Y-22502403D01*
X49989870Y-22693579D01*
X49989868Y-22693587D01*
X49949500Y-22896530D01*
X39050500Y-22896530D01*
X39050500Y-17897648D01*
X55699500Y-17897648D01*
X55699500Y-18102351D01*
X55731522Y-18304534D01*
X55794781Y-18499223D01*
X55887715Y-18681613D01*
X56008028Y-18847213D01*
X56152786Y-18991971D01*
X56307749Y-19104556D01*
X56318390Y-19112287D01*
X56434607Y-19171503D01*
X56500776Y-19205218D01*
X56500778Y-19205218D01*
X56500781Y-19205220D01*
X56563569Y-19225621D01*
X56695465Y-19268477D01*
X56762416Y-19279081D01*
X56897648Y-19300500D01*
X56897649Y-19300500D01*
X57102351Y-19300500D01*
X57102352Y-19300500D01*
X57304534Y-19268477D01*
X57499219Y-19205220D01*
X57681610Y-19112287D01*
X57774590Y-19044732D01*
X57847213Y-18991971D01*
X57847215Y-18991968D01*
X57847219Y-18991966D01*
X57991966Y-18847219D01*
X57991968Y-18847215D01*
X57991971Y-18847213D01*
X58044732Y-18774590D01*
X58112287Y-18681610D01*
X58205220Y-18499219D01*
X58268477Y-18304534D01*
X58300500Y-18102352D01*
X58300500Y-17897648D01*
X58268477Y-17695466D01*
X58205220Y-17500781D01*
X58205218Y-17500778D01*
X58205218Y-17500776D01*
X58170070Y-17431795D01*
X58112287Y-17318390D01*
X58104556Y-17307749D01*
X57991971Y-17152786D01*
X57847213Y-17008028D01*
X57681613Y-16887715D01*
X57681612Y-16887714D01*
X57681610Y-16887713D01*
X57624653Y-16858691D01*
X57499223Y-16794781D01*
X57304534Y-16731522D01*
X57129995Y-16703878D01*
X57102352Y-16699500D01*
X56897648Y-16699500D01*
X56873329Y-16703351D01*
X56695465Y-16731522D01*
X56500776Y-16794781D01*
X56318386Y-16887715D01*
X56152786Y-17008028D01*
X56008028Y-17152786D01*
X55887715Y-17318386D01*
X55794781Y-17500776D01*
X55731522Y-17695465D01*
X55699500Y-17897648D01*
X39050500Y-17897648D01*
X39050500Y-12006900D01*
X44499500Y-12006900D01*
X44499500Y-13993091D01*
X44510123Y-14081562D01*
X44565639Y-14222342D01*
X44565640Y-14222344D01*
X44657077Y-14342922D01*
X44712849Y-14385215D01*
X44777658Y-14434361D01*
X44918436Y-14489876D01*
X45006901Y-14500500D01*
X46993098Y-14500499D01*
X47081564Y-14489876D01*
X47222342Y-14434361D01*
X47342922Y-14342922D01*
X47434361Y-14222342D01*
X47489876Y-14081564D01*
X47500500Y-13993099D01*
X47500499Y-12006902D01*
X47489876Y-11918436D01*
X47434361Y-11777658D01*
X47434359Y-11777655D01*
X47342922Y-11657077D01*
X47222344Y-11565640D01*
X47222342Y-11565639D01*
X47081564Y-11510124D01*
X47081561Y-11510123D01*
X46993099Y-11499500D01*
X45006908Y-11499500D01*
X44918437Y-11510123D01*
X44777657Y-11565639D01*
X44777655Y-11565640D01*
X44657077Y-11657077D01*
X44565640Y-11777655D01*
X44510124Y-11918437D01*
X44510123Y-11918438D01*
X44499500Y-12006900D01*
X39050500Y-12006900D01*
X39050500Y-11024500D01*
X39070185Y-10957461D01*
X39122989Y-10911706D01*
X39174500Y-10900500D01*
X39393097Y-10900500D01*
X39393102Y-10900500D01*
X39481564Y-10889877D01*
X39622342Y-10834361D01*
X39742922Y-10742922D01*
X39834361Y-10622342D01*
X39889877Y-10481564D01*
X39900500Y-10393102D01*
X39900500Y-7606898D01*
X39889877Y-7518436D01*
X39842257Y-7397682D01*
X52700000Y-7397682D01*
X52700000Y-7602317D01*
X52732009Y-7804417D01*
X52795244Y-7999031D01*
X52888141Y-8181350D01*
X52888147Y-8181359D01*
X52920523Y-8225921D01*
X52920524Y-8225922D01*
X53600000Y-7546446D01*
X53600000Y-7552661D01*
X53627259Y-7654394D01*
X53679920Y-7745606D01*
X53754394Y-7820080D01*
X53845606Y-7872741D01*
X53947339Y-7900000D01*
X53953553Y-7900000D01*
X53274076Y-8579474D01*
X53318652Y-8611861D01*
X53429229Y-8668202D01*
X53480026Y-8716176D01*
X53496821Y-8783997D01*
X53474284Y-8850132D01*
X53419569Y-8893584D01*
X53387720Y-8901802D01*
X53318441Y-8910121D01*
X53177656Y-8965639D01*
X53057077Y-9057077D01*
X52965639Y-9177656D01*
X52910122Y-9318438D01*
X52904188Y-9367853D01*
X52899500Y-9406898D01*
X52899500Y-10593102D01*
X52905126Y-10639954D01*
X52910122Y-10681561D01*
X52965639Y-10822343D01*
X53057077Y-10942922D01*
X53177656Y-11034360D01*
X53177657Y-11034360D01*
X53177658Y-11034361D01*
X53318436Y-11089877D01*
X53406898Y-11100500D01*
X53406903Y-11100500D01*
X54593097Y-11100500D01*
X54593102Y-11100500D01*
X54681564Y-11089877D01*
X54822342Y-11034361D01*
X54942922Y-10942922D01*
X55034361Y-10822342D01*
X55089877Y-10681564D01*
X55100500Y-10593102D01*
X55100500Y-9406898D01*
X55089877Y-9318436D01*
X55034361Y-9177658D01*
X55034360Y-9177657D01*
X55034360Y-9177656D01*
X54942922Y-9057077D01*
X54822343Y-8965639D01*
X54749336Y-8936849D01*
X54681564Y-8910123D01*
X54681562Y-8910122D01*
X54681558Y-8910121D01*
X54612280Y-8901802D01*
X54548065Y-8874265D01*
X54508933Y-8816383D01*
X54507306Y-8746532D01*
X54543701Y-8686890D01*
X54570770Y-8668202D01*
X54681346Y-8611861D01*
X54681347Y-8611861D01*
X54725921Y-8579474D01*
X54046447Y-7900000D01*
X54052661Y-7900000D01*
X54154394Y-7872741D01*
X54245606Y-7820080D01*
X54320080Y-7745606D01*
X54372741Y-7654394D01*
X54400000Y-7552661D01*
X54400000Y-7546447D01*
X55079474Y-8225921D01*
X55111859Y-8181349D01*
X55204755Y-7999031D01*
X55267990Y-7804417D01*
X55300000Y-7602317D01*
X55300000Y-7397682D01*
X55267990Y-7195582D01*
X55204755Y-7000968D01*
X55111859Y-6818650D01*
X55079474Y-6774077D01*
X55079474Y-6774076D01*
X54400000Y-7453551D01*
X54400000Y-7447339D01*
X54372741Y-7345606D01*
X54320080Y-7254394D01*
X54245606Y-7179920D01*
X54154394Y-7127259D01*
X54052661Y-7100000D01*
X54046446Y-7100000D01*
X54725922Y-6420524D01*
X54725921Y-6420523D01*
X54681359Y-6388147D01*
X54681350Y-6388141D01*
X54499031Y-6295244D01*
X54304417Y-6232009D01*
X54102317Y-6200000D01*
X53897683Y-6200000D01*
X53695582Y-6232009D01*
X53500968Y-6295244D01*
X53318644Y-6388143D01*
X53274077Y-6420523D01*
X53274077Y-6420524D01*
X53953554Y-7100000D01*
X53947339Y-7100000D01*
X53845606Y-7127259D01*
X53754394Y-7179920D01*
X53679920Y-7254394D01*
X53627259Y-7345606D01*
X53600000Y-7447339D01*
X53600000Y-7453553D01*
X52920524Y-6774077D01*
X52920523Y-6774077D01*
X52888143Y-6818644D01*
X52795244Y-7000968D01*
X52732009Y-7195582D01*
X52700000Y-7397682D01*
X39842257Y-7397682D01*
X39834361Y-7377658D01*
X39834360Y-7377657D01*
X39834360Y-7377656D01*
X39742922Y-7257077D01*
X39622343Y-7165639D01*
X39481561Y-7110122D01*
X39435926Y-7104642D01*
X39393102Y-7099500D01*
X36606898Y-7099500D01*
X36567853Y-7104188D01*
X36518438Y-7110122D01*
X36377656Y-7165639D01*
X36257077Y-7257077D01*
X36165639Y-7377656D01*
X36110122Y-7518438D01*
X36106013Y-7552661D01*
X36099500Y-7606898D01*
X36099500Y-10393102D01*
X36104163Y-10431933D01*
X36110122Y-10481561D01*
X36165639Y-10622343D01*
X36257077Y-10742922D01*
X36377656Y-10834360D01*
X36377657Y-10834360D01*
X36377658Y-10834361D01*
X36518436Y-10889877D01*
X36606898Y-10900500D01*
X36825500Y-10900500D01*
X36892539Y-10920185D01*
X36938294Y-10972989D01*
X36949500Y-11024500D01*
X36949500Y-42473796D01*
X36929815Y-42540835D01*
X36877011Y-42586590D01*
X36807853Y-42596534D01*
X36744297Y-42567509D01*
X36737819Y-42561477D01*
X36716930Y-42540588D01*
X36716928Y-42540586D01*
X36576788Y-42438768D01*
X36422445Y-42360127D01*
X36257701Y-42306598D01*
X36257699Y-42306597D01*
X36257698Y-42306597D01*
X36126271Y-42285781D01*
X36086611Y-42279500D01*
X35913389Y-42279500D01*
X35873728Y-42285781D01*
X35742302Y-42306597D01*
X35577552Y-42360128D01*
X35423211Y-42438768D01*
X35375000Y-42473796D01*
X35283072Y-42540586D01*
X35283070Y-42540588D01*
X35283069Y-42540588D01*
X35160588Y-42663069D01*
X35160588Y-42663070D01*
X35160586Y-42663072D01*
X35116859Y-42723256D01*
X35058768Y-42803211D01*
X34980128Y-42957552D01*
X34926597Y-43122302D01*
X34914212Y-43200500D01*
X34899500Y-43293389D01*
X600000Y-43293389D01*
X600000Y-32068995D01*
X16299499Y-32068995D01*
X16326418Y-32204322D01*
X16326421Y-32204332D01*
X16379221Y-32331804D01*
X16379228Y-32331817D01*
X16455885Y-32446541D01*
X16455888Y-32446545D01*
X16553454Y-32544111D01*
X16553458Y-32544114D01*
X16668182Y-32620771D01*
X16668195Y-32620778D01*
X16795667Y-32673578D01*
X16795672Y-32673580D01*
X16795676Y-32673580D01*
X16795677Y-32673581D01*
X16931004Y-32700500D01*
X16931007Y-32700500D01*
X17068995Y-32700500D01*
X17160041Y-32682389D01*
X17204328Y-32673580D01*
X17331811Y-32620775D01*
X17446542Y-32544114D01*
X17446545Y-32544111D01*
X17453838Y-32536819D01*
X17515161Y-32503334D01*
X17541519Y-32500500D01*
X25065890Y-32500500D01*
X25065892Y-32500500D01*
X25193186Y-32466392D01*
X25307314Y-32400500D01*
X25400500Y-32307314D01*
X25466392Y-32193186D01*
X25500500Y-32065892D01*
X25500500Y-31434108D01*
X25500500Y-30934108D01*
X25500500Y-30434108D01*
X25500500Y-29934108D01*
X25500500Y-29434108D01*
X25500500Y-28934108D01*
X25500500Y-28541518D01*
X25520185Y-28474479D01*
X25536823Y-28453833D01*
X25544114Y-28446542D01*
X25620775Y-28331811D01*
X25673580Y-28204328D01*
X25689922Y-28122171D01*
X25700500Y-28068995D01*
X25700500Y-27931004D01*
X25673581Y-27795677D01*
X25673580Y-27795676D01*
X25673580Y-27795672D01*
X25673578Y-27795667D01*
X25620778Y-27668195D01*
X25620771Y-27668182D01*
X25544114Y-27553458D01*
X25544111Y-27553454D01*
X25446545Y-27455888D01*
X25446541Y-27455885D01*
X25331817Y-27379228D01*
X25331804Y-27379221D01*
X25204332Y-27326421D01*
X25204322Y-27326418D01*
X25068995Y-27299500D01*
X25068993Y-27299500D01*
X24931007Y-27299500D01*
X24931005Y-27299500D01*
X24795677Y-27326418D01*
X24795667Y-27326421D01*
X24668195Y-27379221D01*
X24668182Y-27379228D01*
X24553458Y-27455885D01*
X24553454Y-27455888D01*
X24455888Y-27553454D01*
X24455885Y-27553458D01*
X24379228Y-27668182D01*
X24379221Y-27668195D01*
X24326421Y-27795667D01*
X24326418Y-27795677D01*
X24299500Y-27931004D01*
X24299500Y-27931007D01*
X24299500Y-28068993D01*
X24299500Y-28068995D01*
X24299499Y-28068995D01*
X24326418Y-28204322D01*
X24326421Y-28204332D01*
X24379221Y-28331804D01*
X24379228Y-28331817D01*
X24455885Y-28446541D01*
X24463177Y-28453833D01*
X24496665Y-28515155D01*
X24499500Y-28541518D01*
X24499500Y-31375500D01*
X24479815Y-31442539D01*
X24427011Y-31488294D01*
X24375500Y-31499500D01*
X17541519Y-31499500D01*
X17474480Y-31479815D01*
X17453838Y-31463181D01*
X17446545Y-31455888D01*
X17446541Y-31455885D01*
X17331817Y-31379228D01*
X17331804Y-31379221D01*
X17204332Y-31326421D01*
X17204322Y-31326418D01*
X17068995Y-31299500D01*
X17068993Y-31299500D01*
X16931007Y-31299500D01*
X16931005Y-31299500D01*
X16795677Y-31326418D01*
X16795667Y-31326421D01*
X16668195Y-31379221D01*
X16668182Y-31379228D01*
X16553458Y-31455885D01*
X16553454Y-31455888D01*
X16455888Y-31553454D01*
X16455885Y-31553458D01*
X16379228Y-31668182D01*
X16379221Y-31668195D01*
X16326421Y-31795667D01*
X16326418Y-31795677D01*
X16299500Y-31931004D01*
X16299500Y-31931007D01*
X16299500Y-32068993D01*
X16299500Y-32068995D01*
X16299499Y-32068995D01*
X600000Y-32068995D01*
X600000Y-28906898D01*
X10399500Y-28906898D01*
X10399500Y-31093102D01*
X10405126Y-31139954D01*
X10410122Y-31181561D01*
X10465639Y-31322343D01*
X10557077Y-31442922D01*
X10677656Y-31534360D01*
X10677657Y-31534360D01*
X10677658Y-31534361D01*
X10818436Y-31589877D01*
X10906898Y-31600500D01*
X10906903Y-31600500D01*
X13093097Y-31600500D01*
X13093102Y-31600500D01*
X13181564Y-31589877D01*
X13322342Y-31534361D01*
X13442922Y-31442922D01*
X13534361Y-31322342D01*
X13589877Y-31181564D01*
X13592500Y-31159716D01*
X13620036Y-31095503D01*
X13677918Y-31056369D01*
X13715616Y-31050500D01*
X22863466Y-31050500D01*
X22863467Y-31050499D01*
X23066420Y-31010130D01*
X23257598Y-30930941D01*
X23429655Y-30815977D01*
X23575977Y-30669655D01*
X23690941Y-30497598D01*
X23770130Y-30306420D01*
X23810500Y-30103465D01*
X23810500Y-10650601D01*
X23830185Y-10583562D01*
X23859012Y-10552226D01*
X24015776Y-10431938D01*
X24191938Y-10255776D01*
X24343599Y-10058127D01*
X24468164Y-9842373D01*
X24563502Y-9612207D01*
X24627982Y-9371565D01*
X24660500Y-9124565D01*
X24660500Y-8875435D01*
X24627982Y-8628435D01*
X24563502Y-8387793D01*
X24496452Y-8225921D01*
X24468169Y-8157638D01*
X24468162Y-8157623D01*
X24343599Y-7941873D01*
X24191939Y-7744225D01*
X24191933Y-7744218D01*
X24015781Y-7568066D01*
X24015774Y-7568060D01*
X23818126Y-7416400D01*
X23602376Y-7291837D01*
X23602361Y-7291830D01*
X23372207Y-7196498D01*
X23131561Y-7132017D01*
X22884575Y-7099501D01*
X22884570Y-7099500D01*
X22884565Y-7099500D01*
X22635435Y-7099500D01*
X22635429Y-7099500D01*
X22635424Y-7099501D01*
X22388438Y-7132017D01*
X22147792Y-7196498D01*
X21917638Y-7291830D01*
X21917623Y-7291837D01*
X21701873Y-7416400D01*
X21504225Y-7568060D01*
X21504218Y-7568066D01*
X21328066Y-7744218D01*
X21328060Y-7744225D01*
X21176400Y-7941873D01*
X21051837Y-8157623D01*
X21051830Y-8157638D01*
X20956498Y-8387792D01*
X20892017Y-8628438D01*
X20859501Y-8875424D01*
X20859500Y-8875441D01*
X20859500Y-9124558D01*
X20859501Y-9124575D01*
X20885023Y-9318438D01*
X20892018Y-9371565D01*
X20901487Y-9406903D01*
X20956498Y-9612207D01*
X21051830Y-9842361D01*
X21051837Y-9842376D01*
X21176400Y-10058126D01*
X21328060Y-10255774D01*
X21328066Y-10255781D01*
X21504218Y-10431933D01*
X21504224Y-10431938D01*
X21660986Y-10552225D01*
X21702189Y-10608652D01*
X21709500Y-10650601D01*
X21709500Y-28825500D01*
X21689815Y-28892539D01*
X21637011Y-28938294D01*
X21585500Y-28949500D01*
X13715616Y-28949500D01*
X13648577Y-28929815D01*
X13602822Y-28877011D01*
X13592500Y-28840282D01*
X13589877Y-28818438D01*
X13589877Y-28818436D01*
X13534361Y-28677658D01*
X13534360Y-28677657D01*
X13534360Y-28677656D01*
X13442922Y-28557077D01*
X13322343Y-28465639D01*
X13181561Y-28410122D01*
X13135926Y-28404642D01*
X13093102Y-28399500D01*
X10906898Y-28399500D01*
X10867853Y-28404188D01*
X10818438Y-28410122D01*
X10677656Y-28465639D01*
X10557077Y-28557077D01*
X10465639Y-28677656D01*
X10410122Y-28818438D01*
X10404188Y-28867853D01*
X10399500Y-28906898D01*
X600000Y-28906898D01*
X600000Y-24802014D01*
X10200000Y-24802014D01*
X10200000Y-25037985D01*
X10230799Y-25271914D01*
X10291870Y-25499837D01*
X10382160Y-25717819D01*
X10382165Y-25717828D01*
X10500144Y-25922171D01*
X10500145Y-25922172D01*
X10562721Y-26003723D01*
X11398958Y-25167487D01*
X11423978Y-25227890D01*
X11495112Y-25334351D01*
X11585649Y-25424888D01*
X11692110Y-25496022D01*
X11752511Y-25521041D01*
X10916275Y-26357277D01*
X10997827Y-26419854D01*
X10997828Y-26419855D01*
X11202171Y-26537834D01*
X11202180Y-26537839D01*
X11420163Y-26628129D01*
X11420161Y-26628129D01*
X11648085Y-26689200D01*
X11882014Y-26719999D01*
X11882029Y-26720000D01*
X12117971Y-26720000D01*
X12117985Y-26719999D01*
X12351914Y-26689200D01*
X12579837Y-26628129D01*
X12797819Y-26537839D01*
X12797828Y-26537834D01*
X13002181Y-26419850D01*
X13083723Y-26357279D01*
X13083723Y-26357276D01*
X12247487Y-25521041D01*
X12307890Y-25496022D01*
X12414351Y-25424888D01*
X12504888Y-25334351D01*
X12576022Y-25227890D01*
X12601041Y-25167488D01*
X13437276Y-26003723D01*
X13437279Y-26003723D01*
X13499850Y-25922181D01*
X13617834Y-25717828D01*
X13617839Y-25717819D01*
X13708129Y-25499837D01*
X13769200Y-25271914D01*
X13799999Y-25037985D01*
X13800000Y-25037971D01*
X13800000Y-24802028D01*
X13799999Y-24802014D01*
X13769200Y-24568085D01*
X13708129Y-24340162D01*
X13617839Y-24122180D01*
X13617834Y-24122171D01*
X13499855Y-23917828D01*
X13499854Y-23917827D01*
X13437277Y-23836275D01*
X12601041Y-24672511D01*
X12576022Y-24612110D01*
X12504888Y-24505649D01*
X12414351Y-24415112D01*
X12307890Y-24343978D01*
X12247488Y-24318958D01*
X13083723Y-23482721D01*
X13002172Y-23420145D01*
X13002171Y-23420144D01*
X12797828Y-23302165D01*
X12797819Y-23302160D01*
X12579836Y-23211870D01*
X12579838Y-23211870D01*
X12351914Y-23150799D01*
X12117985Y-23120000D01*
X11882014Y-23120000D01*
X11648085Y-23150799D01*
X11420162Y-23211870D01*
X11202180Y-23302160D01*
X11202171Y-23302165D01*
X10997828Y-23420144D01*
X10997818Y-23420150D01*
X10916275Y-23482720D01*
X10916275Y-23482721D01*
X11752512Y-24318958D01*
X11692110Y-24343978D01*
X11585649Y-24415112D01*
X11495112Y-24505649D01*
X11423978Y-24612110D01*
X11398958Y-24672512D01*
X10562721Y-23836275D01*
X10562720Y-23836275D01*
X10500150Y-23917818D01*
X10500144Y-23917828D01*
X10382165Y-24122171D01*
X10382160Y-24122180D01*
X10291870Y-24340162D01*
X10230799Y-24568085D01*
X10200000Y-24802014D01*
X600000Y-24802014D01*
X600000Y-19714038D01*
X10399500Y-19714038D01*
X10399500Y-19965961D01*
X10438910Y-20214785D01*
X10516760Y-20454383D01*
X10631132Y-20678848D01*
X10779201Y-20882649D01*
X10779205Y-20882654D01*
X10957345Y-21060794D01*
X10957350Y-21060798D01*
X11130473Y-21186578D01*
X11161155Y-21208870D01*
X11272665Y-21265687D01*
X11385616Y-21323239D01*
X11385618Y-21323239D01*
X11385621Y-21323241D01*
X11625215Y-21401090D01*
X11874038Y-21440500D01*
X11874039Y-21440500D01*
X12125961Y-21440500D01*
X12125962Y-21440500D01*
X12374785Y-21401090D01*
X12614379Y-21323241D01*
X12838845Y-21208870D01*
X13042656Y-21060793D01*
X13220793Y-20882656D01*
X13368870Y-20678845D01*
X13483241Y-20454379D01*
X13561090Y-20214785D01*
X13600500Y-19965962D01*
X13600500Y-19714038D01*
X13561090Y-19465215D01*
X13483241Y-19225621D01*
X13483239Y-19225618D01*
X13483239Y-19225616D01*
X13431815Y-19124691D01*
X13368870Y-19001155D01*
X13331704Y-18950000D01*
X13220798Y-18797350D01*
X13220794Y-18797345D01*
X13042654Y-18619205D01*
X13042649Y-18619201D01*
X12838848Y-18471132D01*
X12838847Y-18471131D01*
X12838845Y-18471130D01*
X12768747Y-18435413D01*
X12614383Y-18356760D01*
X12374785Y-18278910D01*
X12125962Y-18239500D01*
X11874038Y-18239500D01*
X11749626Y-18259205D01*
X11625214Y-18278910D01*
X11385616Y-18356760D01*
X11161151Y-18471132D01*
X10957350Y-18619201D01*
X10957345Y-18619205D01*
X10779205Y-18797345D01*
X10779201Y-18797350D01*
X10631132Y-19001151D01*
X10516760Y-19225616D01*
X10438910Y-19465214D01*
X10399500Y-19714038D01*
X600000Y-19714038D01*
X600000Y-14634038D01*
X10399500Y-14634038D01*
X10399500Y-14885961D01*
X10438910Y-15134785D01*
X10516760Y-15374383D01*
X10631132Y-15598848D01*
X10779201Y-15802649D01*
X10779205Y-15802654D01*
X10957345Y-15980794D01*
X10957350Y-15980798D01*
X11135117Y-16109952D01*
X11161155Y-16128870D01*
X11304184Y-16201747D01*
X11385616Y-16243239D01*
X11385618Y-16243239D01*
X11385621Y-16243241D01*
X11625215Y-16321090D01*
X11874038Y-16360500D01*
X11874039Y-16360500D01*
X12125961Y-16360500D01*
X12125962Y-16360500D01*
X12374785Y-16321090D01*
X12614379Y-16243241D01*
X12838845Y-16128870D01*
X13042656Y-15980793D01*
X13220793Y-15802656D01*
X13368870Y-15598845D01*
X13483241Y-15374379D01*
X13561090Y-15134785D01*
X13600500Y-14885962D01*
X13600500Y-14634038D01*
X13561090Y-14385215D01*
X13483241Y-14145621D01*
X13483239Y-14145618D01*
X13483239Y-14145616D01*
X13405527Y-13993099D01*
X13368870Y-13921155D01*
X13349952Y-13895117D01*
X13220798Y-13717350D01*
X13220794Y-13717345D01*
X13042654Y-13539205D01*
X13042649Y-13539201D01*
X12838848Y-13391132D01*
X12838847Y-13391131D01*
X12838845Y-13391130D01*
X12768747Y-13355413D01*
X12614383Y-13276760D01*
X12374785Y-13198910D01*
X12125962Y-13159500D01*
X11874038Y-13159500D01*
X11749626Y-13179205D01*
X11625214Y-13198910D01*
X11385616Y-13276760D01*
X11161151Y-13391132D01*
X10957350Y-13539201D01*
X10957345Y-13539205D01*
X10779205Y-13717345D01*
X10779201Y-13717350D01*
X10631132Y-13921151D01*
X10516760Y-14145616D01*
X10438910Y-14385214D01*
X10399500Y-14634038D01*
X600000Y-14634038D01*
X600000Y-9554038D01*
X10399500Y-9554038D01*
X10399500Y-9805962D01*
X10438910Y-10054785D01*
X10516760Y-10294383D01*
X10586846Y-10431933D01*
X10612134Y-10481564D01*
X10631132Y-10518848D01*
X10779201Y-10722649D01*
X10779205Y-10722654D01*
X10957345Y-10900794D01*
X10957350Y-10900798D01*
X11127612Y-11024500D01*
X11161155Y-11048870D01*
X11262485Y-11100500D01*
X11385616Y-11163239D01*
X11385618Y-11163239D01*
X11385621Y-11163241D01*
X11625215Y-11241090D01*
X11874038Y-11280500D01*
X11874039Y-11280500D01*
X12125961Y-11280500D01*
X12125962Y-11280500D01*
X12374785Y-11241090D01*
X12614379Y-11163241D01*
X12838845Y-11048870D01*
X13042656Y-10900793D01*
X13220793Y-10722656D01*
X13368870Y-10518845D01*
X13483241Y-10294379D01*
X13561090Y-10054785D01*
X13600500Y-9805962D01*
X13600500Y-9554038D01*
X13561090Y-9305215D01*
X13483241Y-9065621D01*
X13483239Y-9065618D01*
X13483239Y-9065616D01*
X13432298Y-8965639D01*
X13368870Y-8841155D01*
X13278068Y-8716176D01*
X13220798Y-8637350D01*
X13220794Y-8637345D01*
X13042654Y-8459205D01*
X13042649Y-8459201D01*
X12838848Y-8311132D01*
X12838847Y-8311131D01*
X12838845Y-8311130D01*
X12768747Y-8275413D01*
X12614383Y-8196760D01*
X12374785Y-8118910D01*
X12125962Y-8079500D01*
X11874038Y-8079500D01*
X11749626Y-8099205D01*
X11625214Y-8118910D01*
X11385616Y-8196760D01*
X11161151Y-8311132D01*
X10957350Y-8459201D01*
X10957345Y-8459205D01*
X10779205Y-8637345D01*
X10779201Y-8637350D01*
X10631132Y-8841151D01*
X10516760Y-9065616D01*
X10438910Y-9305214D01*
X10438910Y-9305215D01*
X10399500Y-9554038D01*
X600000Y-9554038D01*
X600000Y-2728575D01*
X44300000Y-2728575D01*
X44300000Y-2951424D01*
X44329085Y-3172354D01*
X44329088Y-3172367D01*
X44386763Y-3387618D01*
X44472045Y-3593502D01*
X44472054Y-3593520D01*
X44583464Y-3786491D01*
X44583473Y-3786504D01*
X44634040Y-3852403D01*
X44634043Y-3852403D01*
X45435387Y-3051058D01*
X45440889Y-3071591D01*
X45519881Y-3208408D01*
X45631592Y-3320119D01*
X45768409Y-3399111D01*
X45788940Y-3404612D01*
X44987595Y-4205955D01*
X44987595Y-4205956D01*
X45053507Y-4256533D01*
X45246485Y-4367949D01*
X45246497Y-4367954D01*
X45452381Y-4453236D01*
X45667632Y-4510911D01*
X45667645Y-4510914D01*
X45888575Y-4540000D01*
X46111425Y-4540000D01*
X46332354Y-4510914D01*
X46332367Y-4510911D01*
X46547618Y-4453236D01*
X46753502Y-4367954D01*
X46753514Y-4367949D01*
X46946498Y-4256530D01*
X47012403Y-4205957D01*
X47012404Y-4205956D01*
X46211059Y-3404612D01*
X46231591Y-3399111D01*
X46368408Y-3320119D01*
X46480119Y-3208408D01*
X46559111Y-3071591D01*
X46564612Y-3051059D01*
X47365956Y-3852404D01*
X47365957Y-3852403D01*
X47416530Y-3786498D01*
X47527949Y-3593514D01*
X47527954Y-3593502D01*
X47613236Y-3387618D01*
X47670911Y-3172367D01*
X47670914Y-3172354D01*
X47700000Y-2951424D01*
X47700000Y-2728575D01*
X47670914Y-2507645D01*
X47670911Y-2507632D01*
X47613236Y-2292381D01*
X47527954Y-2086497D01*
X47527949Y-2086485D01*
X47416533Y-1893507D01*
X47365956Y-1827595D01*
X47365955Y-1827595D01*
X46564612Y-2628939D01*
X46559111Y-2608409D01*
X46480119Y-2471592D01*
X46368408Y-2359881D01*
X46231591Y-2280889D01*
X46211058Y-2275387D01*
X47012403Y-1474043D01*
X47012403Y-1474040D01*
X46946504Y-1423473D01*
X46946491Y-1423464D01*
X46753520Y-1312054D01*
X46753502Y-1312045D01*
X46547618Y-1226763D01*
X46332367Y-1169088D01*
X46332354Y-1169085D01*
X46111425Y-1140000D01*
X45888575Y-1140000D01*
X45667645Y-1169085D01*
X45667632Y-1169088D01*
X45452381Y-1226763D01*
X45246497Y-1312045D01*
X45246479Y-1312054D01*
X45053511Y-1423462D01*
X44987595Y-1474042D01*
X45788941Y-2275387D01*
X45768409Y-2280889D01*
X45631592Y-2359881D01*
X45519881Y-2471592D01*
X45440889Y-2608409D01*
X45435387Y-2628940D01*
X44634042Y-1827595D01*
X44583462Y-1893511D01*
X44472054Y-2086479D01*
X44472045Y-2086497D01*
X44386763Y-2292381D01*
X44329088Y-2507632D01*
X44329085Y-2507645D01*
X44300000Y-2728575D01*
X600000Y-2728575D01*
X600000Y-724000D01*
X619685Y-656961D01*
X672489Y-611206D01*
X724000Y-600000D01*
X93276000Y-600000D01*
X93343039Y-619685D01*
G37*
%TD.AperFunction*%
%TD*%
M02*
