M48
; DRILL file KiCad 10.0.0 date 2026-06-13T08:48:52
; FORMAT={-:-/ absolute / metric / decimal}
; #@! TF.CreationDate,2026-06-13T08:48:52-05:00
; #@! TF.GenerationSoftware,Kicad,Pcbnew,10.0.0
; #@! TF.FileFunction,Plated,1,2,PTH
FMAT,2
METRIC
; #@! TA.AperFunction,Plated,PTH,ViaDrill
T1C0.400
; #@! TA.AperFunction,Plated,PTH,ComponentDrill
T2C0.700
; #@! TA.AperFunction,Plated,PTH,ComponentDrill
T3C0.800
; #@! TA.AperFunction,Plated,PTH,ComponentDrill
T4C1.000
; #@! TA.AperFunction,Plated,PTH,ComponentDrill
T5C1.100
; #@! TA.AperFunction,Plated,PTH,ComponentDrill
T6C1.200
; #@! TA.AperFunction,Plated,PTH,ComponentDrill
T7C1.300
; #@! TA.AperFunction,Plated,PTH,ComponentDrill
T8C1.600
; #@! TA.AperFunction,Plated,PTH,ComponentDrill
T9C3.200
%
G90
G05
T1
X12.0Y-48.0
X17.0Y-32.0
X25.0Y-28.0
X33.0Y-34.0
X45.0Y-38.0
X54.0Y-46.0
X54.0Y-47.0
X60.38Y-30.0
X66.0Y-28.0
T2
X16.0Y-53.0
X46.0Y-58.0
X51.0Y-23.0
X55.0Y-58.0
X64.0Y-58.0
X73.0Y-58.0
X82.0Y-58.0
T3
X36.0Y-43.38
X36.0Y-51.0
X46.0Y-47.0
X48.54Y-47.0
X51.08Y-47.0
X54.0Y-7.5
X54.0Y-10.0
T4
X60.38Y-34.38
X60.38Y-36.92
X60.38Y-39.46
X60.38Y-42.0
X60.38Y-44.54
X60.38Y-47.08
X60.38Y-49.62
X71.19Y-20.35
X73.73Y-20.35
X75.62Y-34.38
X75.62Y-36.92
X75.62Y-39.46
X75.62Y-42.0
X75.62Y-44.54
X75.62Y-47.08
X75.62Y-49.62
X76.27Y-20.35
X78.81Y-20.35
X87.0Y-27.0
X89.54Y-27.0
T5
X26.0Y-53.0
X28.54Y-53.0
X31.08Y-53.0
X57.0Y-18.0
X57.0Y-22.5
X63.5Y-18.0
X63.5Y-22.5
X87.0Y-31.84
X87.0Y-42.0
T6
X46.0Y-2.84
X46.0Y-13.0
T7
X12.0Y-9.68
X12.0Y-14.76
X12.0Y-19.84
X12.0Y-24.92
X12.0Y-30.0
T8
X22.76Y-9.0
X38.0Y-9.0
T9
X6.0Y-56.0
X89.0Y-8.0
M30
