%TF.GenerationSoftware,KiCad,Pcbnew,10.0.0*%
%TF.CreationDate,2026-06-15T19:26:44-05:00*%
%TF.ProjectId,b2500_cluster_pwm_dimmer,62323530-305f-4636-9c75-737465725f70,rev?*%
%TF.SameCoordinates,Original*%
%TF.FileFunction,Copper,L1,Top*%
%TF.FilePolarity,Positive*%
%FSLAX46Y46*%
G04 Gerber Fmt 4.6, Leading zero omitted, Abs format (unit mm)*
G04 Created by KiCad (PCBNEW 10.0.0) date 2026-06-15 19:26:44*
%MOMM*%
%LPD*%
G01*
G04 APERTURE LIST*
G04 Aperture macros list*
%AMRoundRect*
0 Rectangle with rounded corners*
0 $1 Rounding radius*
0 $2 $3 $4 $5 $6 $7 $8 $9 X,Y pos of 4 corners*
0 Add a 4 corners polygon primitive as box body*
4,1,4,$2,$3,$4,$5,$6,$7,$8,$9,$2,$3,0*
0 Add four circle primitives for the rounded corners*
1,1,$1+$1,$2,$3*
1,1,$1+$1,$4,$5*
1,1,$1+$1,$6,$7*
1,1,$1+$1,$8,$9*
0 Add four rect primitives between the rounded corners*
20,1,$1+$1,$2,$3,$4,$5,0*
20,1,$1+$1,$4,$5,$6,$7,0*
20,1,$1+$1,$6,$7,$8,$9,0*
20,1,$1+$1,$8,$9,$2,$3,0*%
G04 Aperture macros list end*
%TA.AperFunction,ComponentPad*%
%ADD10RoundRect,0.250000X1.350000X1.350000X-1.350000X1.350000X-1.350000X-1.350000X1.350000X-1.350000X0*%
%TD*%
%TA.AperFunction,ComponentPad*%
%ADD11C,3.200000*%
%TD*%
%TA.AperFunction,ComponentPad*%
%ADD12C,1.500000*%
%TD*%
%TA.AperFunction,SMDPad,CuDef*%
%ADD13RoundRect,0.250000X-0.350000X-0.450000X0.350000X-0.450000X0.350000X0.450000X-0.350000X0.450000X0*%
%TD*%
%TA.AperFunction,SMDPad,CuDef*%
%ADD14RoundRect,0.150000X-0.587500X-0.150000X0.587500X-0.150000X0.587500X0.150000X-0.587500X0.150000X0*%
%TD*%
%TA.AperFunction,ComponentPad*%
%ADD15R,1.500000X1.500000*%
%TD*%
%TA.AperFunction,ComponentPad*%
%ADD16C,6.400000*%
%TD*%
%TA.AperFunction,SMDPad,CuDef*%
%ADD17RoundRect,0.250000X0.450000X-0.350000X0.450000X0.350000X-0.450000X0.350000X-0.450000X-0.350000X0*%
%TD*%
%TA.AperFunction,ComponentPad*%
%ADD18R,1.800000X1.800000*%
%TD*%
%TA.AperFunction,ComponentPad*%
%ADD19C,1.800000*%
%TD*%
%TA.AperFunction,SMDPad,CuDef*%
%ADD20RoundRect,0.250000X0.475000X-0.337500X0.475000X0.337500X-0.475000X0.337500X-0.475000X-0.337500X0*%
%TD*%
%TA.AperFunction,ComponentPad*%
%ADD21R,1.700000X1.700000*%
%TD*%
%TA.AperFunction,ComponentPad*%
%ADD22C,1.700000*%
%TD*%
%TA.AperFunction,ComponentPad*%
%ADD23RoundRect,0.250000X1.050000X-1.050000X1.050000X1.050000X-1.050000X1.050000X-1.050000X-1.050000X0*%
%TD*%
%TA.AperFunction,ComponentPad*%
%ADD24C,2.600000*%
%TD*%
%TA.AperFunction,ComponentPad*%
%ADD25RoundRect,0.249999X0.850001X-0.850001X0.850001X0.850001X-0.850001X0.850001X-0.850001X-0.850001X0*%
%TD*%
%TA.AperFunction,ComponentPad*%
%ADD26C,2.200000*%
%TD*%
%TA.AperFunction,SMDPad,CuDef*%
%ADD27RoundRect,0.250000X-0.337500X-0.475000X0.337500X-0.475000X0.337500X0.475000X-0.337500X0.475000X0*%
%TD*%
%TA.AperFunction,ComponentPad*%
%ADD28RoundRect,0.250000X0.550000X-0.550000X0.550000X0.550000X-0.550000X0.550000X-0.550000X-0.550000X0*%
%TD*%
%TA.AperFunction,ComponentPad*%
%ADD29C,1.600000*%
%TD*%
%TA.AperFunction,ComponentPad*%
%ADD30R,1.905000X2.000000*%
%TD*%
%TA.AperFunction,ComponentPad*%
%ADD31O,1.905000X2.000000*%
%TD*%
%TA.AperFunction,ComponentPad*%
%ADD32C,2.000000*%
%TD*%
%TA.AperFunction,ComponentPad*%
%ADD33RoundRect,0.250001X0.949999X-0.949999X0.949999X0.949999X-0.949999X0.949999X-0.949999X-0.949999X0*%
%TD*%
%TA.AperFunction,ComponentPad*%
%ADD34C,2.400000*%
%TD*%
%TA.AperFunction,ViaPad*%
%ADD35C,0.800000*%
%TD*%
%TA.AperFunction,Conductor*%
%ADD36C,0.400000*%
%TD*%
%TA.AperFunction,Conductor*%
%ADD37C,1.500000*%
%TD*%
G04 APERTURE END LIST*
D10*
%TO.P,D1,1*%
%TO.N,VIN_PROT*%
X38000000Y-9000000D03*
D11*
%TO.P,D1,2*%
%TO.N,VIN_RAW*%
X22760000Y-9000000D03*
%TD*%
D12*
%TO.P,TP1,1*%
%TO.N,VIN_PROT*%
X46000000Y-58000000D03*
%TD*%
D13*
%TO.P,R1,1*%
%TO.N,IGN_SENSE_RAW*%
X23000000Y-42000000D03*
%TO.P,R1,2*%
%TO.N,IGN_DIV*%
X25000000Y-42000000D03*
%TD*%
D14*
%TO.P,D4,1*%
%TO.N,GND*%
X50062500Y-29050000D03*
%TO.P,D4,2*%
%TO.N,3V3*%
X50062500Y-30950000D03*
%TO.P,D4,3*%
%TO.N,DIM_ADC*%
X51937500Y-30000000D03*
%TD*%
D15*
%TO.P,Q2,1*%
%TO.N,GND*%
X46000000Y-47000000D03*
D12*
%TO.P,Q2,2*%
%TO.N,Q2_G*%
X48540000Y-47000000D03*
%TO.P,Q2,3*%
%TO.N,Q2_D*%
X51080000Y-47000000D03*
%TD*%
%TO.P,TP7,1*%
%TO.N,GND*%
X55000000Y-58000000D03*
%TD*%
%TO.P,TP3,1*%
%TO.N,3V3*%
X73000000Y-58000000D03*
%TD*%
D16*
%TO.P,REF\u002A\u002A,1*%
%TO.N,GND*%
X89000000Y-8000000D03*
%TD*%
D13*
%TO.P,R3,1*%
%TO.N,DIM_IN*%
X25000000Y-28000000D03*
%TO.P,R3,2*%
%TO.N,DIM_DIV*%
X27000000Y-28000000D03*
%TD*%
D17*
%TO.P,R4,1*%
%TO.N,DIM_DIV*%
X33000000Y-25000000D03*
%TO.P,R4,2*%
%TO.N,GND*%
X33000000Y-23000000D03*
%TD*%
D18*
%TO.P,U1,1*%
%TO.N,DIM_ADC*%
X60380000Y-34380000D03*
D19*
%TO.P,U1,2*%
%TO.N,PWM_GATE*%
X60380000Y-36920000D03*
%TO.P,U1,3*%
%TO.N,CAL_BTN*%
X60380000Y-39460000D03*
%TO.P,U1,4*%
%TO.N,IGN_DIV*%
X60380000Y-42000000D03*
%TO.P,U1,5*%
%TO.N,N/C*%
X60380000Y-44540000D03*
%TO.P,U1,6*%
X60380000Y-47080000D03*
%TO.P,U1,7*%
X60380000Y-49620000D03*
%TO.P,U1,8*%
X75620000Y-49620000D03*
%TO.P,U1,9*%
X75620000Y-47080000D03*
%TO.P,U1,10*%
X75620000Y-44540000D03*
%TO.P,U1,11*%
X75620000Y-42000000D03*
%TO.P,U1,12*%
%TO.N,3V3*%
X75620000Y-39460000D03*
%TO.P,U1,13*%
%TO.N,GND*%
X75620000Y-36920000D03*
%TO.P,U1,14*%
%TO.N,5V_XIAO*%
X75620000Y-34380000D03*
%TD*%
D20*
%TO.P,C4,1*%
%TO.N,5V_XIAO*%
X81000000Y-34037500D03*
%TO.P,C4,2*%
%TO.N,GND*%
X81000000Y-31962500D03*
%TD*%
D12*
%TO.P,TP5,1*%
%TO.N,PWM_GATE*%
X64000000Y-58000000D03*
%TD*%
D21*
%TO.P,JP1,1*%
%TO.N,5V_BUCK*%
X87000000Y-27000000D03*
D22*
%TO.P,JP1,2*%
%TO.N,5V_JMP*%
X89540000Y-27000000D03*
%TD*%
D23*
%TO.P,J1,1*%
%TO.N,VIN_RAW*%
X12000000Y-30000000D03*
D24*
%TO.P,J1,2*%
%TO.N,GND*%
X12000000Y-24920000D03*
%TO.P,J1,3*%
%TO.N,DIM_IN*%
X12000000Y-19840000D03*
%TO.P,J1,4*%
%TO.N,PWM_OUT*%
X12000000Y-14760000D03*
%TO.P,J1,5*%
%TO.N,IGN_SENSE_RAW*%
X12000000Y-9680000D03*
%TD*%
D13*
%TO.P,R8,1*%
%TO.N,PWM_GATE*%
X54000000Y-46000000D03*
%TO.P,R8,2*%
%TO.N,Q2_G*%
X56000000Y-46000000D03*
%TD*%
D25*
%TO.P,D3,1*%
%TO.N,5V_XIAO*%
X87000000Y-42000000D03*
D26*
%TO.P,D3,2*%
%TO.N,5V_JMP*%
X87000000Y-31840000D03*
%TD*%
D18*
%TO.P,D6,1*%
%TO.N,GND*%
X78000000Y-20000000D03*
D19*
%TO.P,D6,2*%
%TO.N,LED_A*%
X78000000Y-17460000D03*
%TD*%
D17*
%TO.P,R9,1*%
%TO.N,Q2_G*%
X55000000Y-51000000D03*
%TO.P,R9,2*%
%TO.N,GND*%
X55000000Y-49000000D03*
%TD*%
%TO.P,R6,1*%
%TO.N,VIN_PROT*%
X33000000Y-48000000D03*
%TO.P,R6,2*%
%TO.N,Q1_G*%
X33000000Y-46000000D03*
%TD*%
D27*
%TO.P,C5,1*%
%TO.N,SNUB*%
X40962500Y-58000000D03*
%TO.P,C5,2*%
%TO.N,GND*%
X43037500Y-58000000D03*
%TD*%
D13*
%TO.P,R5,1*%
%TO.N,DIM_DIV*%
X44000000Y-28000000D03*
%TO.P,R5,2*%
%TO.N,DIM_ADC*%
X46000000Y-28000000D03*
%TD*%
D28*
%TO.P,C1,1*%
%TO.N,VIN_PROT*%
X54000000Y-10000000D03*
D29*
%TO.P,C1,2*%
%TO.N,GND*%
X54000000Y-7500000D03*
%TD*%
D13*
%TO.P,R11,1*%
%TO.N,VIN_PROT*%
X69000000Y-20000000D03*
%TO.P,R11,2*%
%TO.N,LED_A*%
X71000000Y-20000000D03*
%TD*%
%TO.P,R10,1*%
%TO.N,PWM_OUT*%
X33000000Y-58000000D03*
%TO.P,R10,2*%
%TO.N,SNUB*%
X35000000Y-58000000D03*
%TD*%
D21*
%TO.P,U2,1*%
%TO.N,VIN_PROT*%
X74000000Y-12000000D03*
D22*
%TO.P,U2,2*%
%TO.N,GND*%
X74000000Y-14540000D03*
%TO.P,U2,3*%
%TO.N,5V_BUCK*%
X74000000Y-17080000D03*
%TD*%
D20*
%TO.P,C3,1*%
%TO.N,DIM_DIV*%
X38000000Y-25037500D03*
%TO.P,C3,2*%
%TO.N,GND*%
X38000000Y-22962500D03*
%TD*%
D27*
%TO.P,C2,1*%
%TO.N,VIN_PROT*%
X59962500Y-9000000D03*
%TO.P,C2,2*%
%TO.N,GND*%
X62037500Y-9000000D03*
%TD*%
D16*
%TO.P,REF\u002A\u002A,1*%
%TO.N,GND*%
X6000000Y-56000000D03*
%TD*%
D28*
%TO.P,D5,1*%
%TO.N,VIN_PROT*%
X36000000Y-51000000D03*
D29*
%TO.P,D5,2*%
%TO.N,Q1_G*%
X36000000Y-43380000D03*
%TD*%
D12*
%TO.P,TP2,1*%
%TO.N,5V_XIAO*%
X82000000Y-58000000D03*
%TD*%
%TO.P,TP4,1*%
%TO.N,DIM_ADC*%
X51000000Y-23000000D03*
%TD*%
D17*
%TO.P,R2,1*%
%TO.N,IGN_DIV*%
X30000000Y-43000000D03*
%TO.P,R2,2*%
%TO.N,GND*%
X30000000Y-41000000D03*
%TD*%
D30*
%TO.P,Q1,1*%
%TO.N,Q1_G*%
X26000000Y-53000000D03*
D31*
%TO.P,Q1,2*%
%TO.N,PWM_OUT*%
X28540000Y-53000000D03*
%TO.P,Q1,3*%
%TO.N,VIN_PROT*%
X31080000Y-53000000D03*
%TD*%
D12*
%TO.P,TP6,1*%
%TO.N,PWM_OUT*%
X16000000Y-53000000D03*
%TD*%
D13*
%TO.P,R7,1*%
%TO.N,Q2_D*%
X39000000Y-47000000D03*
%TO.P,R7,2*%
%TO.N,Q1_G*%
X41000000Y-47000000D03*
%TD*%
D32*
%TO.P,SW1,1*%
%TO.N,CAL_BTN*%
X57000000Y-18000000D03*
X63500000Y-18000000D03*
%TO.P,SW1,2*%
%TO.N,GND*%
X57000000Y-22500000D03*
X63500000Y-22500000D03*
%TD*%
D33*
%TO.P,D2,1*%
%TO.N,VIN_PROT*%
X46000000Y-13000000D03*
D34*
%TO.P,D2,2*%
%TO.N,GND*%
X46000000Y-2840000D03*
%TD*%
D35*
%TO.N,GND*%
X33000000Y-34000000D03*
X66000000Y-28000000D03*
X45000000Y-38000000D03*
X12000000Y-48000000D03*
%TO.N,DIM_IN*%
X25000000Y-28000000D03*
X17000000Y-32000000D03*
%TO.N,DIM_ADC*%
X60380000Y-30000000D03*
%TO.N,PWM_GATE*%
X54000000Y-47000000D03*
X54000000Y-46000000D03*
%TO.N,LED_A*%
X72000000Y-19000000D03*
%TD*%
%TO.N,GND*%
D36*
X57000000Y-22500000D02*
X63500000Y-22500000D01*
%TO.N,VIN_PROT*%
D37*
X74000000Y-12000000D02*
X69000000Y-12000000D01*
X33000000Y-51000000D02*
X33000000Y-48000000D01*
X59962500Y-10000000D02*
X59962500Y-9000000D01*
X36000000Y-51000000D02*
X46000000Y-51000000D01*
X59962500Y-12000000D02*
X74000000Y-12000000D01*
X46000000Y-13000000D02*
X54000000Y-13000000D01*
X46000000Y-51000000D02*
X46000000Y-58000000D01*
X69000000Y-12000000D02*
X69000000Y-20000000D01*
X38000000Y-9000000D02*
X46000000Y-9000000D01*
X31080000Y-51000000D02*
X31080000Y-53000000D01*
X36000000Y-51000000D02*
X31080000Y-51000000D01*
X54000000Y-13000000D02*
X54000000Y-10000000D01*
X54000000Y-10000000D02*
X59962500Y-10000000D01*
X46000000Y-9000000D02*
X46000000Y-13000000D01*
X59962500Y-9000000D02*
X59962500Y-12000000D01*
X36000000Y-51000000D02*
X33000000Y-51000000D01*
%TO.N,5V_BUCK*%
X74000000Y-27000000D02*
X87000000Y-27000000D01*
X74000000Y-17080000D02*
X74000000Y-27000000D01*
%TO.N,5V_JMP*%
X89540000Y-31840000D02*
X87000000Y-31840000D01*
X89540000Y-27000000D02*
X89540000Y-31840000D01*
%TO.N,5V_XIAO*%
X81000000Y-34037500D02*
X75620000Y-34037500D01*
X87000000Y-42000000D02*
X81000000Y-42000000D01*
X81000000Y-42000000D02*
X81000000Y-34037500D01*
X75620000Y-34037500D02*
X75620000Y-34380000D01*
X87000000Y-42000000D02*
X82000000Y-42000000D01*
X82000000Y-42000000D02*
X82000000Y-58000000D01*
%TO.N,DIM_IN*%
D36*
X17000000Y-20500000D02*
X17000000Y-21000000D01*
X17000000Y-22500000D02*
X17000000Y-23000000D01*
X17000000Y-26000000D02*
X17000000Y-26500000D01*
X16500000Y-20000000D02*
X17000000Y-20000000D01*
X14500000Y-20000000D02*
X15000000Y-20000000D01*
X17000000Y-20000000D02*
X17000000Y-20500000D01*
X17000000Y-23500000D02*
X17000000Y-24000000D01*
X13000000Y-20000000D02*
X13500000Y-20000000D01*
X17000000Y-31000000D02*
X17000000Y-31500000D01*
X17000000Y-21000000D02*
X17000000Y-21500000D01*
X17000000Y-27500000D02*
X17000000Y-28000000D01*
X15500000Y-20000000D02*
X16000000Y-20000000D01*
X17000000Y-25000000D02*
X17000000Y-25500000D01*
X17000000Y-24000000D02*
X17000000Y-24500000D01*
X13500000Y-20000000D02*
X14000000Y-20000000D01*
X17000000Y-26500000D02*
X17000000Y-27000000D01*
X17000000Y-24500000D02*
X17000000Y-25000000D01*
X17000000Y-23000000D02*
X17000000Y-23500000D01*
X17000000Y-21500000D02*
X17000000Y-22000000D01*
X15000000Y-20000000D02*
X15500000Y-20000000D01*
X16000000Y-20000000D02*
X16500000Y-20000000D01*
X17000000Y-29000000D02*
X17000000Y-29500000D01*
X17000000Y-25500000D02*
X17000000Y-26000000D01*
X14000000Y-20000000D02*
X14500000Y-20000000D01*
X17000000Y-27000000D02*
X17000000Y-27500000D01*
X12000000Y-19840000D02*
X12000000Y-20000000D01*
X12500000Y-20000000D02*
X13000000Y-20000000D01*
X17000000Y-31500000D02*
X17000000Y-32000000D01*
X17000000Y-29500000D02*
X17000000Y-30000000D01*
X17000000Y-28500000D02*
X17000000Y-29000000D01*
X17000000Y-30500000D02*
X17000000Y-31000000D01*
X17000000Y-30000000D02*
X17000000Y-30500000D01*
X17000000Y-22000000D02*
X17000000Y-22500000D01*
X12000000Y-20000000D02*
X12500000Y-20000000D01*
X17000000Y-28000000D02*
X17000000Y-28500000D01*
%TO.N,PWM_OUT*%
D37*
X19000000Y-14760000D02*
X19000000Y-57000000D01*
X19000000Y-57000000D02*
X33000000Y-57000000D01*
X16000000Y-53000000D02*
X19000000Y-53000000D01*
X12000000Y-14760000D02*
X19000000Y-14760000D01*
X33000000Y-57000000D02*
X33000000Y-58000000D01*
X28540000Y-53000000D02*
X28540000Y-57000000D01*
%TO.N,IGN_SENSE_RAW*%
D36*
X23000000Y-12000000D02*
X23000000Y-42000000D01*
X12000000Y-9680000D02*
X12000000Y-12000000D01*
X12000000Y-12000000D02*
X23000000Y-12000000D01*
%TO.N,DIM_DIV*%
X33000000Y-28000000D02*
X33000000Y-25000000D01*
X38000000Y-25037500D02*
X44000000Y-25037500D01*
X27000000Y-28000000D02*
X33000000Y-28000000D01*
X44000000Y-25037500D02*
X44000000Y-28000000D01*
X33000000Y-25000000D02*
X38000000Y-25000000D01*
X38000000Y-25000000D02*
X38000000Y-25037500D01*
%TO.N,DIM_ADC*%
X46000000Y-27000000D02*
X51937500Y-27000000D01*
X51937500Y-30000000D02*
X51937500Y-23000000D01*
X51937500Y-30000000D02*
X60380000Y-30000000D01*
X51937500Y-27000000D02*
X51937500Y-30000000D01*
X51937500Y-23000000D02*
X51000000Y-23000000D01*
X46000000Y-28000000D02*
X46000000Y-27000000D01*
%TO.N,3V3*%
X62500000Y-36000000D02*
X62500000Y-35500000D01*
X62500000Y-38500000D02*
X62500000Y-38000000D01*
X74500000Y-39500000D02*
X74000000Y-39500000D01*
X63500000Y-39500000D02*
X63000000Y-39500000D01*
X62500000Y-34500000D02*
X62500000Y-34000000D01*
X62500000Y-36500000D02*
X62500000Y-36000000D01*
X61000000Y-32500000D02*
X61000000Y-32000000D01*
X73500000Y-39500000D02*
X73000000Y-39500000D01*
X53000000Y-32000000D02*
X52500000Y-32000000D01*
X75620000Y-39460000D02*
X75500000Y-39500000D01*
X71500000Y-39500000D02*
X71000000Y-39500000D01*
X60000000Y-32000000D02*
X59500000Y-32000000D01*
X72500000Y-39500000D02*
X72000000Y-39500000D01*
X60500000Y-32000000D02*
X60000000Y-32000000D01*
X62500000Y-34000000D02*
X62500000Y-33500000D01*
X51000000Y-32000000D02*
X50500000Y-32000000D01*
X72000000Y-39500000D02*
X71500000Y-39500000D01*
X63000000Y-39500000D02*
X62500000Y-39500000D01*
X65000000Y-39500000D02*
X64500000Y-39500000D01*
X51500000Y-32000000D02*
X51000000Y-32000000D01*
X61500000Y-32500000D02*
X61000000Y-32500000D01*
X65500000Y-39500000D02*
X65000000Y-39500000D01*
X67000000Y-39500000D02*
X66500000Y-39500000D01*
X62500000Y-35500000D02*
X62500000Y-35000000D01*
X55000000Y-32000000D02*
X54500000Y-32000000D01*
X50000000Y-32000000D02*
X50000000Y-31500000D01*
X59000000Y-32000000D02*
X58500000Y-32000000D01*
X70000000Y-39500000D02*
X69500000Y-39500000D01*
X68000000Y-39500000D02*
X67500000Y-39500000D01*
X62500000Y-38000000D02*
X62500000Y-37500000D01*
X75500000Y-39500000D02*
X75000000Y-39500000D01*
X75000000Y-39500000D02*
X74500000Y-39500000D01*
X50000000Y-31000000D02*
X50062500Y-30950000D01*
X75620000Y-39460000D02*
X73000000Y-39460000D01*
X52000000Y-32000000D02*
X51500000Y-32000000D01*
X69000000Y-39500000D02*
X68500000Y-39500000D01*
X55500000Y-32000000D02*
X55000000Y-32000000D01*
X73000000Y-39460000D02*
X73000000Y-58000000D01*
X71000000Y-39500000D02*
X70500000Y-39500000D01*
X62000000Y-32500000D02*
X61500000Y-32500000D01*
X66000000Y-39500000D02*
X65500000Y-39500000D01*
X70500000Y-39500000D02*
X70000000Y-39500000D01*
X74000000Y-39500000D02*
X73500000Y-39500000D01*
X58500000Y-32000000D02*
X58000000Y-32000000D01*
X62500000Y-39000000D02*
X62500000Y-38500000D01*
X53500000Y-32000000D02*
X53000000Y-32000000D01*
X62500000Y-37500000D02*
X62500000Y-37000000D01*
X61000000Y-32000000D02*
X60500000Y-32000000D01*
X66500000Y-39500000D02*
X66000000Y-39500000D01*
X54000000Y-32000000D02*
X53500000Y-32000000D01*
X57000000Y-32000000D02*
X56500000Y-32000000D01*
X54500000Y-32000000D02*
X54000000Y-32000000D01*
X56500000Y-32000000D02*
X56000000Y-32000000D01*
X52500000Y-32000000D02*
X52000000Y-32000000D01*
X56000000Y-32000000D02*
X55500000Y-32000000D01*
X62500000Y-39500000D02*
X62500000Y-39000000D01*
X64000000Y-39500000D02*
X63500000Y-39500000D01*
X50000000Y-31500000D02*
X50000000Y-31000000D01*
X62500000Y-33000000D02*
X62000000Y-33000000D01*
X69500000Y-39500000D02*
X69000000Y-39500000D01*
X73000000Y-39500000D02*
X72500000Y-39500000D01*
X62500000Y-35000000D02*
X62500000Y-34500000D01*
X50500000Y-32000000D02*
X50000000Y-32000000D01*
X64500000Y-39500000D02*
X64000000Y-39500000D01*
X59500000Y-32000000D02*
X59000000Y-32000000D01*
X62000000Y-33000000D02*
X62000000Y-32500000D01*
X57500000Y-32000000D02*
X57000000Y-32000000D01*
X62500000Y-33500000D02*
X62500000Y-33000000D01*
X62500000Y-37000000D02*
X62500000Y-36500000D01*
X68500000Y-39500000D02*
X68000000Y-39500000D01*
X58000000Y-32000000D02*
X57500000Y-32000000D01*
X67500000Y-39500000D02*
X67000000Y-39500000D01*
%TO.N,IGN_DIV*%
X25000000Y-42000000D02*
X25000000Y-43000000D01*
X31000000Y-43000000D02*
X31000000Y-42000000D01*
X31000000Y-42000000D02*
X60380000Y-42000000D01*
X25000000Y-43000000D02*
X30000000Y-43000000D01*
X30000000Y-43000000D02*
X31000000Y-43000000D01*
%TO.N,PWM_GATE*%
X54000000Y-46500000D02*
X54000000Y-47000000D01*
X54000000Y-46000000D02*
X54000000Y-46500000D01*
%TO.N,CAL_BTN*%
X57000000Y-18000000D02*
X63500000Y-18000000D01*
%TO.N,Q2_G*%
X57000000Y-51000000D02*
X55000000Y-51000000D01*
X56000000Y-46000000D02*
X56000000Y-44000000D01*
X57000000Y-46000000D02*
X57000000Y-51000000D01*
X56000000Y-44000000D02*
X48540000Y-44000000D01*
X56000000Y-46000000D02*
X57000000Y-46000000D01*
X48540000Y-44000000D02*
X48540000Y-47000000D01*
%TO.N,Q2_D*%
X51080000Y-47000000D02*
X51080000Y-49000000D01*
X51080000Y-49000000D02*
X39000000Y-49000000D01*
X39000000Y-49000000D02*
X39000000Y-47000000D01*
%TO.N,Q1_G*%
X26000000Y-46000000D02*
X33000000Y-46000000D01*
X26000000Y-53000000D02*
X26000000Y-46000000D01*
X36000000Y-46000000D02*
X36000000Y-43380000D01*
X36000000Y-43380000D02*
X41000000Y-43380000D01*
X41000000Y-43380000D02*
X41000000Y-47000000D01*
X33000000Y-46000000D02*
X36000000Y-46000000D01*
%TO.N,SNUB*%
X35000000Y-58000000D02*
X40962500Y-58000000D01*
%TO.N,LED_A*%
X71500000Y-20000000D02*
X72000000Y-20000000D01*
X72000000Y-19500000D02*
X72000000Y-19000000D01*
X71000000Y-20000000D02*
X71500000Y-20000000D01*
X72000000Y-20000000D02*
X72000000Y-19500000D01*
%TD*%
%TA.AperFunction,Conductor*%
%TO.N,GND*%
G36*
X93343039Y-619685D02*
G01*
X93388794Y-672489D01*
X93400000Y-724000D01*
X93400000Y-61276000D01*
X93380315Y-61343039D01*
X93327511Y-61388794D01*
X93276000Y-61400000D01*
X724000Y-61400000D01*
X656961Y-61380315D01*
X611206Y-61327511D01*
X600000Y-61276000D01*
X600000Y-28906898D01*
X10399500Y-28906898D01*
X10399500Y-31093102D01*
X10405126Y-31139954D01*
X10410122Y-31181561D01*
X10465639Y-31322343D01*
X10557077Y-31442922D01*
X10677656Y-31534360D01*
X10677657Y-31534360D01*
X10677658Y-31534361D01*
X10818436Y-31589877D01*
X10906898Y-31600500D01*
X10906903Y-31600500D01*
X13093097Y-31600500D01*
X13093102Y-31600500D01*
X13181564Y-31589877D01*
X13322342Y-31534361D01*
X13442922Y-31442922D01*
X13534361Y-31322342D01*
X13589877Y-31181564D01*
X13600500Y-31093102D01*
X13600500Y-28906898D01*
X13589877Y-28818436D01*
X13534361Y-28677658D01*
X13534360Y-28677657D01*
X13534360Y-28677656D01*
X13442922Y-28557077D01*
X13322343Y-28465639D01*
X13181561Y-28410122D01*
X13135926Y-28404642D01*
X13093102Y-28399500D01*
X10906898Y-28399500D01*
X10867853Y-28404188D01*
X10818438Y-28410122D01*
X10677656Y-28465639D01*
X10557077Y-28557077D01*
X10465639Y-28677656D01*
X10410122Y-28818438D01*
X10407182Y-28842923D01*
X10399500Y-28906898D01*
X600000Y-28906898D01*
X600000Y-24802014D01*
X10200000Y-24802014D01*
X10200000Y-25037985D01*
X10230799Y-25271914D01*
X10291870Y-25499837D01*
X10382160Y-25717819D01*
X10382165Y-25717828D01*
X10500144Y-25922171D01*
X10500145Y-25922172D01*
X10562721Y-26003723D01*
X11398958Y-25167487D01*
X11423978Y-25227890D01*
X11495112Y-25334351D01*
X11585649Y-25424888D01*
X11692110Y-25496022D01*
X11752511Y-25521041D01*
X10916275Y-26357277D01*
X10997827Y-26419854D01*
X10997828Y-26419855D01*
X11202171Y-26537834D01*
X11202180Y-26537839D01*
X11420163Y-26628129D01*
X11420161Y-26628129D01*
X11648085Y-26689200D01*
X11882014Y-26719999D01*
X11882029Y-26720000D01*
X12117971Y-26720000D01*
X12117985Y-26719999D01*
X12351914Y-26689200D01*
X12579837Y-26628129D01*
X12797819Y-26537839D01*
X12797828Y-26537834D01*
X13002181Y-26419850D01*
X13083723Y-26357279D01*
X13083723Y-26357276D01*
X12247487Y-25521041D01*
X12307890Y-25496022D01*
X12414351Y-25424888D01*
X12504888Y-25334351D01*
X12576022Y-25227890D01*
X12601041Y-25167488D01*
X13437276Y-26003723D01*
X13437279Y-26003723D01*
X13499850Y-25922181D01*
X13617834Y-25717828D01*
X13617839Y-25717819D01*
X13708129Y-25499837D01*
X13769200Y-25271914D01*
X13799999Y-25037985D01*
X13800000Y-25037971D01*
X13800000Y-24802028D01*
X13799999Y-24802014D01*
X13769200Y-24568085D01*
X13708129Y-24340162D01*
X13617839Y-24122180D01*
X13617834Y-24122171D01*
X13499855Y-23917828D01*
X13499854Y-23917827D01*
X13437277Y-23836275D01*
X12601041Y-24672511D01*
X12576022Y-24612110D01*
X12504888Y-24505649D01*
X12414351Y-24415112D01*
X12307890Y-24343978D01*
X12247488Y-24318958D01*
X13083723Y-23482721D01*
X13002172Y-23420145D01*
X13002171Y-23420144D01*
X12797828Y-23302165D01*
X12797819Y-23302160D01*
X12579836Y-23211870D01*
X12579838Y-23211870D01*
X12351914Y-23150799D01*
X12117985Y-23120000D01*
X11882014Y-23120000D01*
X11648085Y-23150799D01*
X11420162Y-23211870D01*
X11202180Y-23302160D01*
X11202171Y-23302165D01*
X10997828Y-23420144D01*
X10997818Y-23420150D01*
X10916275Y-23482720D01*
X10916275Y-23482721D01*
X11752512Y-24318958D01*
X11692110Y-24343978D01*
X11585649Y-24415112D01*
X11495112Y-24505649D01*
X11423978Y-24612110D01*
X11398958Y-24672512D01*
X10562721Y-23836275D01*
X10562720Y-23836275D01*
X10500150Y-23917818D01*
X10500144Y-23917828D01*
X10382165Y-24122171D01*
X10382160Y-24122180D01*
X10291870Y-24340162D01*
X10230799Y-24568085D01*
X10200000Y-24802014D01*
X600000Y-24802014D01*
X600000Y-19714038D01*
X10399500Y-19714038D01*
X10399500Y-19965962D01*
X10421279Y-20103465D01*
X10438910Y-20214785D01*
X10516760Y-20454383D01*
X10631132Y-20678848D01*
X10779201Y-20882649D01*
X10779205Y-20882654D01*
X10957345Y-21060794D01*
X10957350Y-21060798D01*
X11069234Y-21142086D01*
X11161155Y-21208870D01*
X11295531Y-21277338D01*
X11385616Y-21323239D01*
X11385618Y-21323239D01*
X11385621Y-21323241D01*
X11625215Y-21401090D01*
X11874038Y-21440500D01*
X11874039Y-21440500D01*
X12125961Y-21440500D01*
X12125962Y-21440500D01*
X12374785Y-21401090D01*
X12614379Y-21323241D01*
X12838845Y-21208870D01*
X13042656Y-21060793D01*
X13220793Y-20882656D01*
X13368870Y-20678845D01*
X13415683Y-20586968D01*
X13425244Y-20568205D01*
X13473219Y-20517409D01*
X13535729Y-20500500D01*
X13934108Y-20500500D01*
X14434108Y-20500500D01*
X14934108Y-20500500D01*
X15434108Y-20500500D01*
X15934108Y-20500500D01*
X16375500Y-20500500D01*
X16442539Y-20520185D01*
X16488294Y-20572989D01*
X16499500Y-20624500D01*
X16499500Y-31458481D01*
X16479815Y-31525520D01*
X16463181Y-31546162D01*
X16455888Y-31553454D01*
X16455885Y-31553458D01*
X16379228Y-31668182D01*
X16379221Y-31668195D01*
X16326421Y-31795667D01*
X16326418Y-31795677D01*
X16299500Y-31931004D01*
X16299500Y-31931007D01*
X16299500Y-32068993D01*
X16299500Y-32068995D01*
X16299499Y-32068995D01*
X16326418Y-32204322D01*
X16326421Y-32204332D01*
X16379221Y-32331804D01*
X16379228Y-32331817D01*
X16455885Y-32446541D01*
X16455888Y-32446545D01*
X16553454Y-32544111D01*
X16553458Y-32544114D01*
X16668182Y-32620771D01*
X16668195Y-32620778D01*
X16753174Y-32655977D01*
X16795672Y-32673580D01*
X16795676Y-32673580D01*
X16795677Y-32673581D01*
X16931004Y-32700500D01*
X16931007Y-32700500D01*
X17068995Y-32700500D01*
X17160041Y-32682389D01*
X17204328Y-32673580D01*
X17331811Y-32620775D01*
X17446542Y-32544114D01*
X17544114Y-32446542D01*
X17620775Y-32331811D01*
X17673580Y-32204328D01*
X17685100Y-32146412D01*
X17700500Y-32068995D01*
X17700500Y-31931004D01*
X17673581Y-31795677D01*
X17673580Y-31795676D01*
X17673580Y-31795672D01*
X17646286Y-31729778D01*
X17620778Y-31668195D01*
X17620771Y-31668182D01*
X17544114Y-31553458D01*
X17544111Y-31553454D01*
X17536819Y-31546162D01*
X17503334Y-31484839D01*
X17500500Y-31458481D01*
X17500500Y-19934110D01*
X17500500Y-19934108D01*
X17466392Y-19806814D01*
X17400500Y-19692686D01*
X17307314Y-19599500D01*
X17221578Y-19550000D01*
X17193187Y-19533608D01*
X17129539Y-19516554D01*
X17065892Y-19499500D01*
X17065891Y-19499500D01*
X13662321Y-19499500D01*
X13595282Y-19479815D01*
X13549527Y-19427011D01*
X13544390Y-19413818D01*
X13517742Y-19331804D01*
X13483241Y-19225621D01*
X13368870Y-19001155D01*
X13317905Y-18931007D01*
X13220798Y-18797350D01*
X13220794Y-18797345D01*
X13042654Y-18619205D01*
X13042649Y-18619201D01*
X12838848Y-18471132D01*
X12838847Y-18471131D01*
X12838845Y-18471130D01*
X12760107Y-18431011D01*
X12614383Y-18356760D01*
X12374785Y-18278910D01*
X12125962Y-18239500D01*
X11874038Y-18239500D01*
X11749626Y-18259205D01*
X11625214Y-18278910D01*
X11385616Y-18356760D01*
X11161151Y-18471132D01*
X10957350Y-18619201D01*
X10957345Y-18619205D01*
X10779205Y-18797345D01*
X10779201Y-18797350D01*
X10631132Y-19001151D01*
X10516760Y-19225616D01*
X10438910Y-19465214D01*
X10426825Y-19541518D01*
X10399500Y-19714038D01*
X600000Y-19714038D01*
X600000Y-9554038D01*
X10399500Y-9554038D01*
X10399500Y-9805962D01*
X10434238Y-10025285D01*
X10438910Y-10054785D01*
X10516760Y-10294383D01*
X10586846Y-10431933D01*
X10612134Y-10481564D01*
X10631132Y-10518848D01*
X10779201Y-10722649D01*
X10779205Y-10722654D01*
X10957345Y-10900794D01*
X10957350Y-10900798D01*
X11135117Y-11029952D01*
X11161155Y-11048870D01*
X11306622Y-11122989D01*
X11385620Y-11163241D01*
X11385622Y-11163241D01*
X11413814Y-11172401D01*
X11471491Y-11211837D01*
X11498691Y-11276194D01*
X11499500Y-11290333D01*
X11499500Y-12065891D01*
X11533608Y-12193187D01*
X11566554Y-12250250D01*
X11599500Y-12307314D01*
X11692686Y-12400500D01*
X11806814Y-12466392D01*
X11934108Y-12500500D01*
X12065892Y-12500500D01*
X22375500Y-12500500D01*
X22442539Y-12520185D01*
X22488294Y-12572989D01*
X22499500Y-12624500D01*
X22499500Y-40933196D01*
X22479815Y-41000235D01*
X22427011Y-41045990D01*
X22420990Y-41048550D01*
X22377660Y-41065637D01*
X22377658Y-41065638D01*
X22257077Y-41157077D01*
X22165639Y-41277656D01*
X22110122Y-41418438D01*
X22105094Y-41460314D01*
X22099500Y-41506898D01*
X22099500Y-42493102D01*
X22104245Y-42532612D01*
X22110122Y-42581561D01*
X22165639Y-42722343D01*
X22257077Y-42842922D01*
X22377656Y-42934360D01*
X22377657Y-42934360D01*
X22377658Y-42934361D01*
X22518436Y-42989877D01*
X22606898Y-43000500D01*
X22606903Y-43000500D01*
X23393097Y-43000500D01*
X23393102Y-43000500D01*
X23481564Y-42989877D01*
X23622342Y-42934361D01*
X23742922Y-42842922D01*
X23834361Y-42722342D01*
X23884646Y-42594826D01*
X23927551Y-42539685D01*
X23993459Y-42516492D01*
X24061443Y-42532612D01*
X24109920Y-42582929D01*
X24115348Y-42594814D01*
X24144862Y-42669655D01*
X24165639Y-42722343D01*
X24257077Y-42842922D01*
X24373148Y-42930941D01*
X24377658Y-42934361D01*
X24420990Y-42951448D01*
X24476134Y-42994354D01*
X24499327Y-43060261D01*
X24499469Y-43065660D01*
X24499500Y-43065890D01*
X24499500Y-43065892D01*
X24501556Y-43073566D01*
X24533608Y-43193187D01*
X24562324Y-43242923D01*
X24599500Y-43307314D01*
X24692686Y-43400500D01*
X24806814Y-43466392D01*
X24934108Y-43500500D01*
X25065892Y-43500500D01*
X28933196Y-43500500D01*
X29000235Y-43520185D01*
X29045990Y-43572989D01*
X29048550Y-43579010D01*
X29065637Y-43622339D01*
X29065638Y-43622341D01*
X29157077Y-43742922D01*
X29277656Y-43834360D01*
X29277657Y-43834360D01*
X29277658Y-43834361D01*
X29418436Y-43889877D01*
X29506898Y-43900500D01*
X29506903Y-43900500D01*
X30493097Y-43900500D01*
X30493102Y-43900500D01*
X30581564Y-43889877D01*
X30722342Y-43834361D01*
X30842922Y-43742922D01*
X30934361Y-43622342D01*
X30943369Y-43599500D01*
X30951450Y-43579010D01*
X30994356Y-43523866D01*
X31060264Y-43500673D01*
X31065660Y-43500530D01*
X31065884Y-43500500D01*
X31065892Y-43500500D01*
X31193186Y-43466392D01*
X31307314Y-43400500D01*
X31400500Y-43307314D01*
X31466392Y-43193186D01*
X31500500Y-43065892D01*
X31500500Y-42624500D01*
X31520185Y-42557461D01*
X31572989Y-42511706D01*
X31624500Y-42500500D01*
X35035338Y-42500500D01*
X35102377Y-42520185D01*
X35148132Y-42572989D01*
X35158076Y-42642147D01*
X35135656Y-42697383D01*
X35117524Y-42722342D01*
X35058768Y-42803211D01*
X34980128Y-42957552D01*
X34926597Y-43122302D01*
X34915370Y-43193187D01*
X34899500Y-43293389D01*
X34899500Y-43466611D01*
X34904872Y-43500530D01*
X34920547Y-43599500D01*
X34926598Y-43637701D01*
X34980127Y-43802445D01*
X35058768Y-43956788D01*
X35160586Y-44096928D01*
X35283072Y-44219414D01*
X35423212Y-44321232D01*
X35431793Y-44325604D01*
X35482589Y-44373575D01*
X35499500Y-44436089D01*
X35499500Y-45375500D01*
X35479815Y-45442539D01*
X35427011Y-45488294D01*
X35375500Y-45499500D01*
X34066804Y-45499500D01*
X33999765Y-45479815D01*
X33954010Y-45427011D01*
X33951450Y-45420990D01*
X33934362Y-45377660D01*
X33934361Y-45377658D01*
X33842922Y-45257077D01*
X33722343Y-45165639D01*
X33581561Y-45110122D01*
X33535926Y-45104642D01*
X33493102Y-45099500D01*
X32506898Y-45099500D01*
X32467853Y-45104188D01*
X32418438Y-45110122D01*
X32277656Y-45165639D01*
X32157077Y-45257077D01*
X32065638Y-45377658D01*
X32065637Y-45377660D01*
X32048550Y-45420990D01*
X32005644Y-45476134D01*
X31939736Y-45499327D01*
X31933196Y-45499500D01*
X25934108Y-45499500D01*
X25806812Y-45533608D01*
X25692686Y-45599500D01*
X25692683Y-45599502D01*
X25599502Y-45692683D01*
X25599500Y-45692686D01*
X25533608Y-45806812D01*
X25499500Y-45934108D01*
X25499500Y-51575500D01*
X25479815Y-51642539D01*
X25427011Y-51688294D01*
X25375500Y-51699500D01*
X25002643Y-51699500D01*
X25002617Y-51699502D01*
X24977512Y-51702413D01*
X24977508Y-51702415D01*
X24874735Y-51747793D01*
X24795294Y-51827234D01*
X24749915Y-51930006D01*
X24749915Y-51930008D01*
X24747000Y-51955131D01*
X24747000Y-54044856D01*
X24747002Y-54044882D01*
X24749913Y-54069987D01*
X24749915Y-54069991D01*
X24795293Y-54172764D01*
X24795294Y-54172765D01*
X24874735Y-54252206D01*
X24977509Y-54297585D01*
X25002635Y-54300500D01*
X26997364Y-54300499D01*
X26997379Y-54300497D01*
X26997382Y-54300497D01*
X27022487Y-54297586D01*
X27022488Y-54297585D01*
X27022491Y-54297585D01*
X27125265Y-54252206D01*
X27204706Y-54172765D01*
X27242769Y-54086558D01*
X27252066Y-54065505D01*
X27297152Y-54012129D01*
X27363938Y-53991602D01*
X27431220Y-54010440D01*
X27477637Y-54062664D01*
X27489500Y-54115592D01*
X27489500Y-55825500D01*
X27469815Y-55892539D01*
X27417011Y-55938294D01*
X27365500Y-55949500D01*
X20174500Y-55949500D01*
X20107461Y-55929815D01*
X20061706Y-55877011D01*
X20050500Y-55825500D01*
X20050500Y-14656534D01*
X20050499Y-14656530D01*
X20027320Y-14540000D01*
X20010130Y-14453580D01*
X19930941Y-14262402D01*
X19815977Y-14090345D01*
X19815975Y-14090342D01*
X19669657Y-13944024D01*
X19583626Y-13886541D01*
X19497598Y-13829059D01*
X19466015Y-13815977D01*
X19306420Y-13749870D01*
X19306412Y-13749868D01*
X19103469Y-13709500D01*
X19103465Y-13709500D01*
X13264311Y-13709500D01*
X13197272Y-13689815D01*
X13176630Y-13673181D01*
X13042654Y-13539205D01*
X13042649Y-13539201D01*
X12838848Y-13391132D01*
X12838847Y-13391131D01*
X12838845Y-13391130D01*
X12768747Y-13355413D01*
X12614383Y-13276760D01*
X12374785Y-13198910D01*
X12125962Y-13159500D01*
X11874038Y-13159500D01*
X11749626Y-13179205D01*
X11625214Y-13198910D01*
X11385616Y-13276760D01*
X11161151Y-13391132D01*
X10957350Y-13539201D01*
X10957345Y-13539205D01*
X10779205Y-13717345D01*
X10779201Y-13717350D01*
X10631132Y-13921151D01*
X10516760Y-14145616D01*
X10438910Y-14385214D01*
X10414394Y-14539999D01*
X10399500Y-14634038D01*
X10399500Y-14885962D01*
X10423897Y-15040000D01*
X10438910Y-15134785D01*
X10516760Y-15374383D01*
X10631132Y-15598848D01*
X10779201Y-15802649D01*
X10779205Y-15802654D01*
X10957345Y-15980794D01*
X10957350Y-15980798D01*
X11115919Y-16096004D01*
X11161155Y-16128870D01*
X11304184Y-16201747D01*
X11385616Y-16243239D01*
X11385618Y-16243239D01*
X11385621Y-16243241D01*
X11625215Y-16321090D01*
X11874038Y-16360500D01*
X11874039Y-16360500D01*
X12125961Y-16360500D01*
X12125962Y-16360500D01*
X12374785Y-16321090D01*
X12614379Y-16243241D01*
X12838845Y-16128870D01*
X13042656Y-15980793D01*
X13176630Y-15846819D01*
X13237953Y-15813334D01*
X13264311Y-15810500D01*
X17825500Y-15810500D01*
X17892539Y-15830185D01*
X17938294Y-15882989D01*
X17949500Y-15934500D01*
X17949500Y-51825500D01*
X17929815Y-51892539D01*
X17877011Y-51938294D01*
X17825500Y-51949500D01*
X15896530Y-51949500D01*
X15693587Y-51989868D01*
X15693579Y-51989870D01*
X15502403Y-52069058D01*
X15330342Y-52184024D01*
X15184024Y-52330342D01*
X15069058Y-52502403D01*
X14989870Y-52693579D01*
X14989868Y-52693587D01*
X14949500Y-52896530D01*
X14949500Y-53103469D01*
X14989868Y-53306412D01*
X14989870Y-53306420D01*
X15069058Y-53497596D01*
X15184024Y-53669657D01*
X15330342Y-53815975D01*
X15330345Y-53815977D01*
X15502402Y-53930941D01*
X15693580Y-54010130D01*
X15896530Y-54050499D01*
X15896534Y-54050500D01*
X15896535Y-54050500D01*
X17825500Y-54050500D01*
X17892539Y-54070185D01*
X17938294Y-54122989D01*
X17949500Y-54174500D01*
X17949500Y-57103469D01*
X17989868Y-57306412D01*
X17989870Y-57306420D01*
X18069058Y-57497596D01*
X18184024Y-57669657D01*
X18330342Y-57815975D01*
X18330345Y-57815977D01*
X18502402Y-57930941D01*
X18693580Y-58010130D01*
X18874304Y-58046078D01*
X18896530Y-58050499D01*
X18896534Y-58050500D01*
X18896535Y-58050500D01*
X19103465Y-58050500D01*
X28436535Y-58050500D01*
X28643465Y-58050500D01*
X31837200Y-58050500D01*
X31904239Y-58070185D01*
X31949994Y-58122989D01*
X31958817Y-58150309D01*
X31989868Y-58306412D01*
X31989870Y-58306420D01*
X32069058Y-58497597D01*
X32090352Y-58529467D01*
X32106894Y-58574183D01*
X32108176Y-58573860D01*
X32110124Y-58581570D01*
X32165637Y-58722339D01*
X32165638Y-58722341D01*
X32257077Y-58842922D01*
X32377656Y-58934360D01*
X32377657Y-58934360D01*
X32377658Y-58934361D01*
X32518436Y-58989877D01*
X32606898Y-59000500D01*
X32645666Y-59000500D01*
X32687607Y-59008842D01*
X32687753Y-59008362D01*
X32692628Y-59009840D01*
X32693116Y-59009938D01*
X32693580Y-59010130D01*
X32896530Y-59050499D01*
X32896534Y-59050500D01*
X32896535Y-59050500D01*
X33103466Y-59050500D01*
X33103467Y-59050499D01*
X33306420Y-59010130D01*
X33306884Y-59009938D01*
X33307371Y-59009840D01*
X33312247Y-59008362D01*
X33312392Y-59008842D01*
X33354334Y-59000500D01*
X33393097Y-59000500D01*
X33393102Y-59000500D01*
X33481564Y-58989877D01*
X33622342Y-58934361D01*
X33742922Y-58842922D01*
X33834361Y-58722342D01*
X33884646Y-58594826D01*
X33927551Y-58539685D01*
X33993459Y-58516492D01*
X34061443Y-58532612D01*
X34109920Y-58582929D01*
X34115348Y-58594814D01*
X34128313Y-58627690D01*
X34165639Y-58722343D01*
X34257077Y-58842922D01*
X34377656Y-58934360D01*
X34377657Y-58934360D01*
X34377658Y-58934361D01*
X34518436Y-58989877D01*
X34606898Y-59000500D01*
X34606903Y-59000500D01*
X35393097Y-59000500D01*
X35393102Y-59000500D01*
X35481564Y-58989877D01*
X35622342Y-58934361D01*
X35742922Y-58842922D01*
X35834361Y-58722342D01*
X35848029Y-58687682D01*
X35890885Y-58579010D01*
X35933791Y-58523866D01*
X35999698Y-58500673D01*
X36006239Y-58500500D01*
X39962386Y-58500500D01*
X40029425Y-58520185D01*
X40075180Y-58572989D01*
X40082495Y-58599023D01*
X40083173Y-58598852D01*
X40085120Y-58606556D01*
X40140639Y-58747343D01*
X40232077Y-58867922D01*
X40352656Y-58959360D01*
X40352657Y-58959360D01*
X40352658Y-58959361D01*
X40493436Y-59014877D01*
X40581898Y-59025500D01*
X40581903Y-59025500D01*
X41343097Y-59025500D01*
X41343102Y-59025500D01*
X41431564Y-59014877D01*
X41572342Y-58959361D01*
X41692922Y-58867922D01*
X41748892Y-58794115D01*
X41789486Y-58740584D01*
X41791317Y-58741972D01*
X41832607Y-58701689D01*
X41901058Y-58687682D01*
X41966216Y-58712905D01*
X42007394Y-58769351D01*
X42008391Y-58772241D01*
X42015640Y-58794115D01*
X42015643Y-58794124D01*
X42107684Y-58943345D01*
X42231654Y-59067315D01*
X42380875Y-59159356D01*
X42380880Y-59159358D01*
X42547302Y-59214505D01*
X42547309Y-59214506D01*
X42650019Y-59224999D01*
X42787499Y-59224999D01*
X43287500Y-59224999D01*
X43424972Y-59224999D01*
X43424986Y-59224998D01*
X43527697Y-59214505D01*
X43694119Y-59159358D01*
X43694124Y-59159356D01*
X43843345Y-59067315D01*
X43967315Y-58943345D01*
X44059356Y-58794124D01*
X44059358Y-58794119D01*
X44114505Y-58627697D01*
X44114506Y-58627690D01*
X44124999Y-58524986D01*
X44125000Y-58524973D01*
X44125000Y-58250000D01*
X43287500Y-58250000D01*
X43287500Y-59224999D01*
X42787499Y-59224999D01*
X42787500Y-59224998D01*
X42787500Y-57750000D01*
X43287500Y-57750000D01*
X44124999Y-57750000D01*
X44124999Y-57475028D01*
X44124998Y-57475013D01*
X44114505Y-57372302D01*
X44059358Y-57205880D01*
X44059356Y-57205875D01*
X43967315Y-57056654D01*
X43843345Y-56932684D01*
X43694124Y-56840643D01*
X43694119Y-56840641D01*
X43527697Y-56785494D01*
X43527690Y-56785493D01*
X43424986Y-56775000D01*
X43287500Y-56775000D01*
X43287500Y-57750000D01*
X42787500Y-57750000D01*
X42787500Y-56775000D01*
X42650027Y-56775000D01*
X42650012Y-56775001D01*
X42547302Y-56785494D01*
X42380880Y-56840641D01*
X42380875Y-56840643D01*
X42231654Y-56932684D01*
X42107684Y-57056654D01*
X42015643Y-57205875D01*
X42015640Y-57205884D01*
X42008391Y-57227759D01*
X41968618Y-57285203D01*
X41904102Y-57312025D01*
X41835326Y-57299709D01*
X41790834Y-57258393D01*
X41789486Y-57259416D01*
X41692922Y-57132077D01*
X41572343Y-57040639D01*
X41431561Y-56985122D01*
X41385926Y-56979642D01*
X41343102Y-56974500D01*
X40581898Y-56974500D01*
X40542853Y-56979188D01*
X40493438Y-56985122D01*
X40352656Y-57040639D01*
X40232077Y-57132077D01*
X40140639Y-57252656D01*
X40085120Y-57393443D01*
X40083173Y-57401148D01*
X40081068Y-57400616D01*
X40057972Y-57454490D01*
X40000093Y-57493628D01*
X39962386Y-57499500D01*
X36006239Y-57499500D01*
X35939200Y-57479815D01*
X35893445Y-57427011D01*
X35890885Y-57420990D01*
X35834362Y-57277660D01*
X35834361Y-57277658D01*
X35742922Y-57157077D01*
X35622343Y-57065639D01*
X35481561Y-57010122D01*
X35435926Y-57004642D01*
X35393102Y-56999500D01*
X34606898Y-56999500D01*
X34567853Y-57004188D01*
X34518438Y-57010122D01*
X34377656Y-57065639D01*
X34250319Y-57162203D01*
X34248307Y-57159549D01*
X34200858Y-57185459D01*
X34131166Y-57180475D01*
X34075233Y-57138603D01*
X34050816Y-57073139D01*
X34050500Y-57064293D01*
X34050500Y-56896534D01*
X34050499Y-56896530D01*
X34039382Y-56840641D01*
X34010130Y-56693580D01*
X33930941Y-56502402D01*
X33815977Y-56330345D01*
X33815975Y-56330342D01*
X33669657Y-56184024D01*
X33583626Y-56126541D01*
X33497598Y-56069059D01*
X33306420Y-55989870D01*
X33306412Y-55989868D01*
X33103469Y-55949500D01*
X33103465Y-55949500D01*
X29714500Y-55949500D01*
X29647461Y-55929815D01*
X29601706Y-55877011D01*
X29590500Y-55825500D01*
X29590500Y-53773632D01*
X29593973Y-53759293D01*
X29593059Y-53749824D01*
X29601623Y-53727713D01*
X29604247Y-53716884D01*
X29608595Y-53708436D01*
X29611662Y-53704215D01*
X29699627Y-53531573D01*
X29699747Y-53531341D01*
X29723636Y-53506254D01*
X29747490Y-53480998D01*
X29747748Y-53480934D01*
X29747930Y-53480743D01*
X29781556Y-53472561D01*
X29815311Y-53464203D01*
X29815561Y-53464288D01*
X29815819Y-53464226D01*
X29848570Y-53475537D01*
X29881446Y-53486740D01*
X29881632Y-53486955D01*
X29881861Y-53487034D01*
X29883457Y-53489061D01*
X29920485Y-53531794D01*
X30008338Y-53704215D01*
X30124265Y-53863775D01*
X30263725Y-54003235D01*
X30423285Y-54119162D01*
X30528485Y-54172764D01*
X30599017Y-54208702D01*
X30692801Y-54239174D01*
X30786588Y-54269647D01*
X30876807Y-54283936D01*
X30981382Y-54300500D01*
X30981387Y-54300500D01*
X31178618Y-54300500D01*
X31273052Y-54285542D01*
X31373412Y-54269647D01*
X31560985Y-54208701D01*
X31736715Y-54119162D01*
X31896275Y-54003235D01*
X32035735Y-53863775D01*
X32151662Y-53704215D01*
X32241201Y-53528485D01*
X32302147Y-53340912D01*
X32318042Y-53240552D01*
X32333000Y-53146118D01*
X32333000Y-52853881D01*
X32307610Y-52693580D01*
X32302147Y-52659088D01*
X32254669Y-52512965D01*
X32241202Y-52471517D01*
X32239514Y-52468205D01*
X32151662Y-52295785D01*
X32151658Y-52295780D01*
X32151657Y-52295777D01*
X32149111Y-52291621D01*
X32151034Y-52290442D01*
X32130701Y-52233428D01*
X32130500Y-52226367D01*
X32130500Y-52174500D01*
X32150185Y-52107461D01*
X32202989Y-52061706D01*
X32254500Y-52050500D01*
X32896535Y-52050500D01*
X35195018Y-52050500D01*
X35240506Y-52059145D01*
X35318436Y-52089877D01*
X35406898Y-52100500D01*
X35406903Y-52100500D01*
X36593097Y-52100500D01*
X36593102Y-52100500D01*
X36681564Y-52089877D01*
X36759493Y-52059145D01*
X36804982Y-52050500D01*
X44825500Y-52050500D01*
X44892539Y-52070185D01*
X44938294Y-52122989D01*
X44949500Y-52174500D01*
X44949500Y-58103469D01*
X44989868Y-58306412D01*
X44989870Y-58306420D01*
X45007921Y-58350000D01*
X45069059Y-58497598D01*
X45106828Y-58554123D01*
X45184024Y-58669657D01*
X45330342Y-58815975D01*
X45330345Y-58815977D01*
X45502402Y-58930941D01*
X45693580Y-59010130D01*
X45896530Y-59050499D01*
X45896534Y-59050500D01*
X45896535Y-59050500D01*
X46103466Y-59050500D01*
X46103467Y-59050499D01*
X46137764Y-59043677D01*
X54309873Y-59043677D01*
X54309873Y-59043678D01*
X54344858Y-59069096D01*
X54520164Y-59158418D01*
X54707294Y-59219221D01*
X54901618Y-59250000D01*
X55098382Y-59250000D01*
X55292705Y-59219221D01*
X55479835Y-59158418D01*
X55655143Y-59069095D01*
X55690125Y-59043678D01*
X55690126Y-59043678D01*
X55000001Y-58353553D01*
X55000000Y-58353553D01*
X54309873Y-59043677D01*
X46137764Y-59043677D01*
X46306420Y-59010130D01*
X46497598Y-58930941D01*
X46669655Y-58815977D01*
X46815977Y-58669655D01*
X46930941Y-58497598D01*
X47010130Y-58306420D01*
X47050500Y-58103465D01*
X47050500Y-57901617D01*
X53750000Y-57901617D01*
X53750000Y-58098382D01*
X53780778Y-58292705D01*
X53841581Y-58479835D01*
X53930905Y-58655145D01*
X53956319Y-58690125D01*
X53956320Y-58690125D01*
X54646446Y-58000000D01*
X54646446Y-57999999D01*
X54600369Y-57953922D01*
X54650000Y-57953922D01*
X54650000Y-58046078D01*
X54673852Y-58135095D01*
X54719930Y-58214905D01*
X54785095Y-58280070D01*
X54864905Y-58326148D01*
X54953922Y-58350000D01*
X55046078Y-58350000D01*
X55135095Y-58326148D01*
X55214905Y-58280070D01*
X55280070Y-58214905D01*
X55326148Y-58135095D01*
X55350000Y-58046078D01*
X55350000Y-57999999D01*
X55353553Y-57999999D01*
X55353553Y-58000000D01*
X56043678Y-58690126D01*
X56043678Y-58690125D01*
X56069095Y-58655143D01*
X56158418Y-58479835D01*
X56219221Y-58292705D01*
X56250000Y-58098382D01*
X56250000Y-57901617D01*
X56249194Y-57896530D01*
X62949500Y-57896530D01*
X62949500Y-58103469D01*
X62989868Y-58306412D01*
X62989870Y-58306420D01*
X63007921Y-58350000D01*
X63069059Y-58497598D01*
X63106828Y-58554123D01*
X63184024Y-58669657D01*
X63330342Y-58815975D01*
X63330345Y-58815977D01*
X63502402Y-58930941D01*
X63693580Y-59010130D01*
X63896530Y-59050499D01*
X63896534Y-59050500D01*
X63896535Y-59050500D01*
X64103466Y-59050500D01*
X64103467Y-59050499D01*
X64306420Y-59010130D01*
X64497598Y-58930941D01*
X64669655Y-58815977D01*
X64815977Y-58669655D01*
X64930941Y-58497598D01*
X65010130Y-58306420D01*
X65050500Y-58103465D01*
X65050500Y-57896535D01*
X65010130Y-57693580D01*
X64930941Y-57502402D01*
X64815977Y-57330345D01*
X64815975Y-57330342D01*
X64669657Y-57184024D01*
X64555608Y-57107820D01*
X64497598Y-57069059D01*
X64489341Y-57065639D01*
X64306420Y-56989870D01*
X64306412Y-56989868D01*
X64103469Y-56949500D01*
X64103465Y-56949500D01*
X63896535Y-56949500D01*
X63896530Y-56949500D01*
X63693587Y-56989868D01*
X63693579Y-56989870D01*
X63502403Y-57069058D01*
X63330342Y-57184024D01*
X63184024Y-57330342D01*
X63069058Y-57502403D01*
X62989870Y-57693579D01*
X62989868Y-57693587D01*
X62949500Y-57896530D01*
X56249194Y-57896530D01*
X56219221Y-57707294D01*
X56158418Y-57520164D01*
X56069096Y-57344858D01*
X56043678Y-57309873D01*
X56043677Y-57309873D01*
X55353553Y-57999999D01*
X55350000Y-57999999D01*
X55350000Y-57953922D01*
X55326148Y-57864905D01*
X55280070Y-57785095D01*
X55214905Y-57719930D01*
X55135095Y-57673852D01*
X55046078Y-57650000D01*
X54953922Y-57650000D01*
X54864905Y-57673852D01*
X54785095Y-57719930D01*
X54719930Y-57785095D01*
X54673852Y-57864905D01*
X54650000Y-57953922D01*
X54600369Y-57953922D01*
X53956320Y-57309872D01*
X53956320Y-57309873D01*
X53930902Y-57344859D01*
X53930899Y-57344863D01*
X53841582Y-57520161D01*
X53780778Y-57707294D01*
X53750000Y-57901617D01*
X47050500Y-57901617D01*
X47050500Y-56956320D01*
X54309872Y-56956320D01*
X55000000Y-57646446D01*
X55000001Y-57646446D01*
X55690125Y-56956320D01*
X55690125Y-56956319D01*
X55655145Y-56930905D01*
X55479835Y-56841581D01*
X55292705Y-56780778D01*
X55098382Y-56750000D01*
X54901618Y-56750000D01*
X54707294Y-56780778D01*
X54520161Y-56841582D01*
X54344863Y-56930899D01*
X54344859Y-56930902D01*
X54309873Y-56956320D01*
X54309872Y-56956320D01*
X47050500Y-56956320D01*
X47050500Y-50896535D01*
X47010130Y-50693580D01*
X46930941Y-50502402D01*
X46815977Y-50330345D01*
X46815975Y-50330342D01*
X46669657Y-50184024D01*
X46532806Y-50092584D01*
X46497598Y-50069059D01*
X46306420Y-49989870D01*
X46306412Y-49989868D01*
X46103469Y-49949500D01*
X46103465Y-49949500D01*
X36804982Y-49949500D01*
X36759493Y-49940854D01*
X36723814Y-49926784D01*
X36681563Y-49910122D01*
X36628978Y-49903808D01*
X36593102Y-49899500D01*
X35406898Y-49899500D01*
X35373713Y-49903485D01*
X35318436Y-49910122D01*
X35268501Y-49929815D01*
X35240506Y-49940854D01*
X35195018Y-49949500D01*
X34174500Y-49949500D01*
X34107461Y-49929815D01*
X34061706Y-49877011D01*
X34050500Y-49825500D01*
X34050500Y-47896534D01*
X34050499Y-47896530D01*
X34049633Y-47892178D01*
X34010130Y-47693580D01*
X34009938Y-47693116D01*
X34009840Y-47692628D01*
X34008362Y-47687753D01*
X34008842Y-47687607D01*
X34000500Y-47645666D01*
X34000500Y-47606903D01*
X34000500Y-47606898D01*
X33989877Y-47518436D01*
X33934361Y-47377658D01*
X33934360Y-47377657D01*
X33934360Y-47377656D01*
X33842922Y-47257077D01*
X33722341Y-47165638D01*
X33594829Y-47115353D01*
X33539686Y-47072447D01*
X33516493Y-47006539D01*
X33532614Y-46938555D01*
X33582931Y-46890078D01*
X33594812Y-46884652D01*
X33722342Y-46834361D01*
X33842922Y-46742922D01*
X33934361Y-46622342D01*
X33949904Y-46582929D01*
X33951450Y-46579010D01*
X33994356Y-46523866D01*
X34060264Y-46500673D01*
X34066804Y-46500500D01*
X36065890Y-46500500D01*
X36065892Y-46500500D01*
X36193186Y-46466392D01*
X36307314Y-46400500D01*
X36400500Y-46307314D01*
X36466392Y-46193186D01*
X36500500Y-46065892D01*
X36500500Y-44436089D01*
X36520185Y-44369050D01*
X36568206Y-44325604D01*
X36576788Y-44321232D01*
X36716928Y-44219414D01*
X36839414Y-44096928D01*
X36941232Y-43956788D01*
X36945607Y-43948202D01*
X36993582Y-43897408D01*
X37056090Y-43880500D01*
X40375500Y-43880500D01*
X40442539Y-43900185D01*
X40488294Y-43952989D01*
X40499500Y-44004500D01*
X40499500Y-45933196D01*
X40479815Y-46000235D01*
X40427011Y-46045990D01*
X40420990Y-46048550D01*
X40377660Y-46065637D01*
X40377658Y-46065638D01*
X40257077Y-46157077D01*
X40165639Y-46277656D01*
X40153944Y-46307314D01*
X40115353Y-46405171D01*
X40072449Y-46460314D01*
X40006541Y-46483507D01*
X39938556Y-46467386D01*
X39890080Y-46417070D01*
X39884648Y-46405178D01*
X39834361Y-46277658D01*
X39834360Y-46277657D01*
X39834360Y-46277656D01*
X39742922Y-46157077D01*
X39622343Y-46065639D01*
X39481561Y-46010122D01*
X39435926Y-46004642D01*
X39393102Y-45999500D01*
X38606898Y-45999500D01*
X38567853Y-46004188D01*
X38518438Y-46010122D01*
X38377656Y-46065639D01*
X38257077Y-46157077D01*
X38165639Y-46277656D01*
X38110122Y-46418438D01*
X38106236Y-46450801D01*
X38099500Y-46506898D01*
X38099500Y-47493102D01*
X38104245Y-47532612D01*
X38110122Y-47581561D01*
X38110122Y-47581563D01*
X38110123Y-47581564D01*
X38125584Y-47620771D01*
X38165639Y-47722343D01*
X38257077Y-47842922D01*
X38373148Y-47930941D01*
X38377658Y-47934361D01*
X38420990Y-47951448D01*
X38476134Y-47994354D01*
X38499327Y-48060261D01*
X38499500Y-48066803D01*
X38499500Y-49065891D01*
X38533608Y-49193187D01*
X38566410Y-49250000D01*
X38599500Y-49307314D01*
X38692686Y-49400500D01*
X38806814Y-49466392D01*
X38934108Y-49500500D01*
X38934110Y-49500500D01*
X51145890Y-49500500D01*
X51145892Y-49500500D01*
X51273186Y-49466392D01*
X51387314Y-49400500D01*
X51480500Y-49307314D01*
X51546392Y-49193186D01*
X51580500Y-49065892D01*
X51580500Y-48600013D01*
X53800000Y-48600013D01*
X53800000Y-48750000D01*
X54750000Y-48750000D01*
X55250000Y-48750000D01*
X56199999Y-48750000D01*
X56199999Y-48600028D01*
X56199998Y-48600013D01*
X56189505Y-48497302D01*
X56134358Y-48330880D01*
X56134356Y-48330875D01*
X56042315Y-48181654D01*
X55918345Y-48057684D01*
X55769124Y-47965643D01*
X55769119Y-47965641D01*
X55602697Y-47910494D01*
X55602690Y-47910493D01*
X55499986Y-47900000D01*
X55250000Y-47900000D01*
X55250000Y-48750000D01*
X54750000Y-48750000D01*
X54750000Y-47900000D01*
X54500029Y-47900000D01*
X54500012Y-47900001D01*
X54397302Y-47910494D01*
X54230880Y-47965641D01*
X54230875Y-47965643D01*
X54081654Y-48057684D01*
X53957684Y-48181654D01*
X53865643Y-48330875D01*
X53865641Y-48330880D01*
X53810494Y-48497302D01*
X53810493Y-48497309D01*
X53800000Y-48600013D01*
X51580500Y-48600013D01*
X51580500Y-47995281D01*
X51600185Y-47928242D01*
X51635610Y-47892178D01*
X51749655Y-47815977D01*
X51895977Y-47669655D01*
X52010941Y-47497598D01*
X52090130Y-47306420D01*
X52130500Y-47103465D01*
X52130500Y-46896535D01*
X52090130Y-46693580D01*
X52010941Y-46502402D01*
X51895977Y-46330345D01*
X51895975Y-46330342D01*
X51749657Y-46184024D01*
X51635608Y-46107820D01*
X51577598Y-46069059D01*
X51569952Y-46065892D01*
X51386420Y-45989870D01*
X51386412Y-45989868D01*
X51183469Y-45949500D01*
X51183465Y-45949500D01*
X50976535Y-45949500D01*
X50976530Y-45949500D01*
X50773587Y-45989868D01*
X50773579Y-45989870D01*
X50582403Y-46069058D01*
X50410342Y-46184024D01*
X50264024Y-46330342D01*
X50149058Y-46502403D01*
X50069870Y-46693579D01*
X50069868Y-46693587D01*
X50029500Y-46896530D01*
X50029500Y-47103469D01*
X50057773Y-47245606D01*
X50069870Y-47306420D01*
X50149059Y-47497598D01*
X50177947Y-47540832D01*
X50264024Y-47669657D01*
X50410340Y-47815973D01*
X50410343Y-47815975D01*
X50410345Y-47815977D01*
X50479337Y-47862075D01*
X50524390Y-47892178D01*
X50569196Y-47945791D01*
X50579500Y-47995281D01*
X50579500Y-48375500D01*
X50559815Y-48442539D01*
X50507011Y-48488294D01*
X50455500Y-48499500D01*
X39624500Y-48499500D01*
X39557461Y-48479815D01*
X39511706Y-48427011D01*
X39500500Y-48375500D01*
X39500500Y-48066803D01*
X39520185Y-47999764D01*
X39572989Y-47954009D01*
X39578996Y-47951454D01*
X39622342Y-47934361D01*
X39742922Y-47842922D01*
X39834361Y-47722342D01*
X39884646Y-47594826D01*
X39927551Y-47539685D01*
X39993459Y-47516492D01*
X40061443Y-47532612D01*
X40109920Y-47582929D01*
X40115348Y-47594814D01*
X40146409Y-47673578D01*
X40165639Y-47722343D01*
X40257077Y-47842922D01*
X40377656Y-47934360D01*
X40377657Y-47934360D01*
X40377658Y-47934361D01*
X40518436Y-47989877D01*
X40606898Y-48000500D01*
X40606903Y-48000500D01*
X41393097Y-48000500D01*
X41393102Y-48000500D01*
X41481564Y-47989877D01*
X41622342Y-47934361D01*
X41742922Y-47842922D01*
X41834361Y-47722342D01*
X41889877Y-47581564D01*
X41900500Y-47493102D01*
X41900500Y-46506898D01*
X41889877Y-46418436D01*
X41834361Y-46277658D01*
X41777105Y-46202155D01*
X44750000Y-46202155D01*
X44750000Y-46750000D01*
X45684314Y-46750000D01*
X45679920Y-46754394D01*
X45627259Y-46845606D01*
X45600000Y-46947339D01*
X45600000Y-47052661D01*
X45627259Y-47154394D01*
X45679920Y-47245606D01*
X45684314Y-47250000D01*
X44750000Y-47250000D01*
X44750000Y-47797844D01*
X44756401Y-47857372D01*
X44756403Y-47857379D01*
X44806645Y-47992086D01*
X44806649Y-47992093D01*
X44892809Y-48107187D01*
X44892812Y-48107190D01*
X45007906Y-48193350D01*
X45007913Y-48193354D01*
X45142620Y-48243596D01*
X45142627Y-48243598D01*
X45202155Y-48249999D01*
X45202172Y-48250000D01*
X45750000Y-48250000D01*
X45750000Y-47315686D01*
X45754394Y-47320080D01*
X45845606Y-47372741D01*
X45947339Y-47400000D01*
X46052661Y-47400000D01*
X46154394Y-47372741D01*
X46245606Y-47320080D01*
X46250000Y-47315686D01*
X46250000Y-48250000D01*
X46797828Y-48250000D01*
X46797844Y-48249999D01*
X46857372Y-48243598D01*
X46857379Y-48243596D01*
X46992086Y-48193354D01*
X46992093Y-48193350D01*
X47107187Y-48107190D01*
X47107190Y-48107187D01*
X47193350Y-47992093D01*
X47193354Y-47992086D01*
X47243596Y-47857379D01*
X47243598Y-47857372D01*
X47249999Y-47797844D01*
X47250000Y-47797827D01*
X47250000Y-47158410D01*
X47269685Y-47091371D01*
X47322489Y-47045616D01*
X47391647Y-47035672D01*
X47455203Y-47064697D01*
X47492977Y-47123475D01*
X47495617Y-47134219D01*
X47509563Y-47204332D01*
X47529870Y-47306420D01*
X47609059Y-47497598D01*
X47637947Y-47540832D01*
X47724024Y-47669657D01*
X47870342Y-47815975D01*
X47870345Y-47815977D01*
X48042402Y-47930941D01*
X48233580Y-48010130D01*
X48436530Y-48050499D01*
X48436534Y-48050500D01*
X48436535Y-48050500D01*
X48643466Y-48050500D01*
X48643467Y-48050499D01*
X48846420Y-48010130D01*
X49037598Y-47930941D01*
X49209655Y-47815977D01*
X49355977Y-47669655D01*
X49470941Y-47497598D01*
X49550130Y-47306420D01*
X49590500Y-47103465D01*
X49590500Y-46896535D01*
X49550130Y-46693580D01*
X49470941Y-46502402D01*
X49355977Y-46330345D01*
X49355975Y-46330342D01*
X49209658Y-46184025D01*
X49209650Y-46184019D01*
X49095610Y-46107820D01*
X49050804Y-46054208D01*
X49040500Y-46004718D01*
X49040500Y-44624500D01*
X49060185Y-44557461D01*
X49112989Y-44511706D01*
X49164500Y-44500500D01*
X55375500Y-44500500D01*
X55442539Y-44520185D01*
X55488294Y-44572989D01*
X55499500Y-44624500D01*
X55499500Y-44933196D01*
X55479815Y-45000235D01*
X55427011Y-45045990D01*
X55420990Y-45048550D01*
X55377660Y-45065637D01*
X55377658Y-45065638D01*
X55257077Y-45157077D01*
X55165639Y-45277656D01*
X55148124Y-45322073D01*
X55115353Y-45405171D01*
X55072449Y-45460314D01*
X55006541Y-45483507D01*
X54938556Y-45467386D01*
X54890080Y-45417070D01*
X54884648Y-45405178D01*
X54834361Y-45277658D01*
X54834360Y-45277657D01*
X54834360Y-45277656D01*
X54742922Y-45157077D01*
X54622343Y-45065639D01*
X54481561Y-45010122D01*
X54435926Y-45004642D01*
X54393102Y-44999500D01*
X53606898Y-44999500D01*
X53567853Y-45004188D01*
X53518438Y-45010122D01*
X53377656Y-45065639D01*
X53257077Y-45157077D01*
X53165639Y-45277656D01*
X53110122Y-45418438D01*
X53105650Y-45455687D01*
X53099500Y-45506898D01*
X53099500Y-46493102D01*
X53104245Y-46532612D01*
X53110122Y-46581561D01*
X53165639Y-46722343D01*
X53257079Y-46842924D01*
X53263075Y-46848920D01*
X53260463Y-46851531D01*
X53291851Y-46893803D01*
X53299500Y-46936680D01*
X53299500Y-47068993D01*
X53299500Y-47068995D01*
X53299499Y-47068995D01*
X53326418Y-47204322D01*
X53326421Y-47204332D01*
X53379221Y-47331804D01*
X53379228Y-47331817D01*
X53455885Y-47446541D01*
X53455888Y-47446545D01*
X53553454Y-47544111D01*
X53553458Y-47544114D01*
X53668182Y-47620771D01*
X53668195Y-47620778D01*
X53728281Y-47645666D01*
X53795672Y-47673580D01*
X53795676Y-47673580D01*
X53795677Y-47673581D01*
X53931004Y-47700500D01*
X53931007Y-47700500D01*
X54068995Y-47700500D01*
X54160041Y-47682389D01*
X54204328Y-47673580D01*
X54331811Y-47620775D01*
X54446542Y-47544114D01*
X54544114Y-47446542D01*
X54620775Y-47331811D01*
X54673580Y-47204328D01*
X54689663Y-47123475D01*
X54700500Y-47068995D01*
X54700500Y-46936680D01*
X54720185Y-46869641D01*
X54738226Y-46850215D01*
X54736927Y-46848916D01*
X54742913Y-46842928D01*
X54742922Y-46842922D01*
X54834361Y-46722342D01*
X54884646Y-46594826D01*
X54927551Y-46539685D01*
X54993459Y-46516492D01*
X55061443Y-46532612D01*
X55109920Y-46582929D01*
X55115348Y-46594814D01*
X55127055Y-46624500D01*
X55165639Y-46722343D01*
X55257077Y-46842922D01*
X55377656Y-46934360D01*
X55377657Y-46934360D01*
X55377658Y-46934361D01*
X55518436Y-46989877D01*
X55606898Y-47000500D01*
X55606903Y-47000500D01*
X56375500Y-47000500D01*
X56442539Y-47020185D01*
X56488294Y-47072989D01*
X56499500Y-47124500D01*
X56499500Y-50375500D01*
X56479815Y-50442539D01*
X56427011Y-50488294D01*
X56375500Y-50499500D01*
X56066804Y-50499500D01*
X55999765Y-50479815D01*
X55954010Y-50427011D01*
X55951450Y-50420990D01*
X55934362Y-50377660D01*
X55934361Y-50377658D01*
X55842922Y-50257077D01*
X55792047Y-50218498D01*
X55750524Y-50162306D01*
X55745972Y-50092584D01*
X55779837Y-50031470D01*
X55801875Y-50014155D01*
X55918345Y-49942315D01*
X56042315Y-49818345D01*
X56134356Y-49669124D01*
X56134358Y-49669119D01*
X56189505Y-49502697D01*
X56189506Y-49502690D01*
X56199999Y-49399986D01*
X56200000Y-49399973D01*
X56200000Y-49250000D01*
X53800001Y-49250000D01*
X53800001Y-49399986D01*
X53810494Y-49502697D01*
X53865641Y-49669119D01*
X53865643Y-49669124D01*
X53957684Y-49818345D01*
X54081655Y-49942316D01*
X54081659Y-49942319D01*
X54198124Y-50014156D01*
X54244849Y-50066104D01*
X54256070Y-50135066D01*
X54228227Y-50199148D01*
X54207953Y-50218497D01*
X54157078Y-50257077D01*
X54065639Y-50377656D01*
X54010122Y-50518438D01*
X54008051Y-50535687D01*
X53999500Y-50606898D01*
X53999500Y-51393102D01*
X54005126Y-51439954D01*
X54010122Y-51481561D01*
X54010122Y-51481563D01*
X54010123Y-51481564D01*
X54017659Y-51500673D01*
X54065639Y-51622343D01*
X54157077Y-51742922D01*
X54277656Y-51834360D01*
X54277657Y-51834360D01*
X54277658Y-51834361D01*
X54418436Y-51889877D01*
X54506898Y-51900500D01*
X54506903Y-51900500D01*
X55493097Y-51900500D01*
X55493102Y-51900500D01*
X55581564Y-51889877D01*
X55722342Y-51834361D01*
X55842922Y-51742922D01*
X55934361Y-51622342D01*
X55937512Y-51614350D01*
X55951450Y-51579010D01*
X55994356Y-51523866D01*
X56060264Y-51500673D01*
X56066804Y-51500500D01*
X57065890Y-51500500D01*
X57065892Y-51500500D01*
X57193186Y-51466392D01*
X57307314Y-51400500D01*
X57400500Y-51307314D01*
X57466392Y-51193186D01*
X57500500Y-51065892D01*
X57500500Y-45934108D01*
X57466392Y-45806814D01*
X57466294Y-45806645D01*
X57422913Y-45731507D01*
X57400500Y-45692686D01*
X57307314Y-45599500D01*
X57250250Y-45566554D01*
X57193187Y-45533608D01*
X57129539Y-45516554D01*
X57065892Y-45499500D01*
X57065891Y-45499500D01*
X57006239Y-45499500D01*
X56939200Y-45479815D01*
X56893445Y-45427011D01*
X56890885Y-45420990D01*
X56834362Y-45277660D01*
X56834361Y-45277658D01*
X56742922Y-45157077D01*
X56622341Y-45065638D01*
X56622339Y-45065637D01*
X56579010Y-45048550D01*
X56523866Y-45005644D01*
X56500673Y-44939736D01*
X56500500Y-44933196D01*
X56500500Y-43934110D01*
X56500500Y-43934108D01*
X56466392Y-43806814D01*
X56400500Y-43692686D01*
X56307314Y-43599500D01*
X56250250Y-43566554D01*
X56193187Y-43533608D01*
X56117171Y-43513240D01*
X56065892Y-43499500D01*
X48605892Y-43499500D01*
X48474108Y-43499500D01*
X48346812Y-43533608D01*
X48232686Y-43599500D01*
X48232683Y-43599502D01*
X48139502Y-43692683D01*
X48139500Y-43692686D01*
X48073608Y-43806812D01*
X48039500Y-43934108D01*
X48039500Y-46004718D01*
X48019815Y-46071757D01*
X47984390Y-46107820D01*
X47870349Y-46184019D01*
X47870341Y-46184025D01*
X47724024Y-46330342D01*
X47609058Y-46502403D01*
X47529870Y-46693579D01*
X47529868Y-46693587D01*
X47495617Y-46865780D01*
X47463232Y-46927691D01*
X47402517Y-46962265D01*
X47332747Y-46958526D01*
X47276075Y-46917660D01*
X47250494Y-46852641D01*
X47250000Y-46841589D01*
X47250000Y-46202172D01*
X47249999Y-46202155D01*
X47243598Y-46142627D01*
X47243596Y-46142620D01*
X47193354Y-46007913D01*
X47193350Y-46007906D01*
X47107190Y-45892812D01*
X47107187Y-45892809D01*
X46992093Y-45806649D01*
X46992086Y-45806645D01*
X46857379Y-45756403D01*
X46857372Y-45756401D01*
X46797844Y-45750000D01*
X46250000Y-45750000D01*
X46250000Y-46684314D01*
X46245606Y-46679920D01*
X46154394Y-46627259D01*
X46052661Y-46600000D01*
X45947339Y-46600000D01*
X45845606Y-46627259D01*
X45754394Y-46679920D01*
X45750000Y-46684314D01*
X45750000Y-45750000D01*
X45202155Y-45750000D01*
X45142627Y-45756401D01*
X45142620Y-45756403D01*
X45007913Y-45806645D01*
X45007906Y-45806649D01*
X44892812Y-45892809D01*
X44892809Y-45892812D01*
X44806649Y-46007906D01*
X44806645Y-46007913D01*
X44756403Y-46142620D01*
X44756401Y-46142627D01*
X44750000Y-46202155D01*
X41777105Y-46202155D01*
X41742922Y-46157077D01*
X41622341Y-46065638D01*
X41622339Y-46065637D01*
X41579010Y-46048550D01*
X41523866Y-46005644D01*
X41500673Y-45939736D01*
X41500500Y-45933196D01*
X41500500Y-43314110D01*
X41500500Y-43314108D01*
X41466392Y-43186814D01*
X41459282Y-43174500D01*
X41446332Y-43152069D01*
X41400500Y-43072686D01*
X41307314Y-42979500D01*
X41250250Y-42946554D01*
X41193187Y-42913608D01*
X41129539Y-42896554D01*
X41065892Y-42879500D01*
X41065891Y-42879500D01*
X37056090Y-42879500D01*
X36989051Y-42859815D01*
X36954406Y-42826468D01*
X36949498Y-42819437D01*
X36941232Y-42803212D01*
X36863632Y-42696406D01*
X36862978Y-42695468D01*
X36852227Y-42663426D01*
X36840864Y-42631580D01*
X36841141Y-42630387D01*
X36840752Y-42629227D01*
X36849030Y-42596461D01*
X36856689Y-42563526D01*
X36857567Y-42562672D01*
X36857867Y-42561486D01*
X36882565Y-42538378D01*
X36906795Y-42514831D01*
X36908071Y-42514514D01*
X36908888Y-42513751D01*
X36917564Y-42512163D01*
X36964662Y-42500500D01*
X59211677Y-42500500D01*
X59278716Y-42520185D01*
X59322162Y-42568205D01*
X59353240Y-42629199D01*
X59464310Y-42782073D01*
X59597927Y-42915690D01*
X59750801Y-43026760D01*
X59797394Y-43050500D01*
X59919163Y-43112545D01*
X59919165Y-43112545D01*
X59919168Y-43112547D01*
X59986061Y-43134282D01*
X60040803Y-43152069D01*
X60098478Y-43191507D01*
X60125676Y-43255866D01*
X60113761Y-43324712D01*
X60066516Y-43376188D01*
X60040803Y-43387931D01*
X59919163Y-43427454D01*
X59750800Y-43513240D01*
X59668564Y-43572989D01*
X59597927Y-43624310D01*
X59597925Y-43624312D01*
X59597924Y-43624312D01*
X59464312Y-43757924D01*
X59464312Y-43757925D01*
X59464310Y-43757927D01*
X59431966Y-43802445D01*
X59353240Y-43910800D01*
X59267454Y-44079163D01*
X59209059Y-44258881D01*
X59179500Y-44445513D01*
X59179500Y-44634486D01*
X59209059Y-44821118D01*
X59267454Y-45000836D01*
X59347064Y-45157078D01*
X59353240Y-45169199D01*
X59464310Y-45322073D01*
X59597927Y-45455690D01*
X59750801Y-45566760D01*
X59815057Y-45599500D01*
X59919163Y-45652545D01*
X59919165Y-45652545D01*
X59919168Y-45652547D01*
X60008734Y-45681649D01*
X60040803Y-45692069D01*
X60098478Y-45731507D01*
X60125676Y-45795866D01*
X60113761Y-45864712D01*
X60066516Y-45916188D01*
X60040803Y-45927931D01*
X59919163Y-45967454D01*
X59750800Y-46053240D01*
X59675678Y-46107820D01*
X59597927Y-46164310D01*
X59597925Y-46164312D01*
X59597924Y-46164312D01*
X59464312Y-46297924D01*
X59464312Y-46297925D01*
X59464310Y-46297927D01*
X59440759Y-46330342D01*
X59353240Y-46450800D01*
X59267454Y-46619163D01*
X59209059Y-46798881D01*
X59179500Y-46985513D01*
X59179500Y-47174486D01*
X59209059Y-47361118D01*
X59267454Y-47540836D01*
X59308187Y-47620778D01*
X59353240Y-47709199D01*
X59464310Y-47862073D01*
X59597927Y-47995690D01*
X59750801Y-48106760D01*
X59830347Y-48147290D01*
X59919163Y-48192545D01*
X59919165Y-48192545D01*
X59919168Y-48192547D01*
X60008734Y-48221649D01*
X60040803Y-48232069D01*
X60098478Y-48271507D01*
X60125676Y-48335866D01*
X60113761Y-48404712D01*
X60066516Y-48456188D01*
X60040803Y-48467931D01*
X59919163Y-48507454D01*
X59750800Y-48593240D01*
X59663579Y-48656610D01*
X59597927Y-48704310D01*
X59597925Y-48704312D01*
X59597924Y-48704312D01*
X59464312Y-48837924D01*
X59464312Y-48837925D01*
X59464310Y-48837927D01*
X59416610Y-48903579D01*
X59353240Y-48990800D01*
X59267454Y-49159163D01*
X59209059Y-49338881D01*
X59179500Y-49525513D01*
X59179500Y-49714486D01*
X59209059Y-49901118D01*
X59267454Y-50080836D01*
X59337597Y-50218498D01*
X59353240Y-50249199D01*
X59464310Y-50402073D01*
X59597927Y-50535690D01*
X59750801Y-50646760D01*
X59830347Y-50687290D01*
X59919163Y-50732545D01*
X59919165Y-50732545D01*
X59919168Y-50732547D01*
X60015497Y-50763846D01*
X60098881Y-50790940D01*
X60285514Y-50820500D01*
X60285519Y-50820500D01*
X60474486Y-50820500D01*
X60661118Y-50790940D01*
X60840832Y-50732547D01*
X61009199Y-50646760D01*
X61162073Y-50535690D01*
X61295690Y-50402073D01*
X61406760Y-50249199D01*
X61492547Y-50080832D01*
X61550940Y-49901118D01*
X61564050Y-49818345D01*
X61580500Y-49714486D01*
X61580500Y-49525513D01*
X61550940Y-49338881D01*
X61522060Y-49250000D01*
X61492547Y-49159168D01*
X61492545Y-49159165D01*
X61492545Y-49159163D01*
X61406759Y-48990800D01*
X61295690Y-48837927D01*
X61162073Y-48704310D01*
X61009199Y-48593240D01*
X60840836Y-48507454D01*
X60766472Y-48483291D01*
X60719195Y-48467930D01*
X60661521Y-48428493D01*
X60634323Y-48364134D01*
X60646238Y-48295288D01*
X60693482Y-48243812D01*
X60719194Y-48232069D01*
X60840832Y-48192547D01*
X61009199Y-48106760D01*
X61162073Y-47995690D01*
X61295690Y-47862073D01*
X61406760Y-47709199D01*
X61492547Y-47540832D01*
X61550940Y-47361118D01*
X61559603Y-47306420D01*
X61580500Y-47174486D01*
X61580500Y-46985513D01*
X61550940Y-46798881D01*
X61492545Y-46619163D01*
X61440231Y-46516492D01*
X61406760Y-46450801D01*
X61295690Y-46297927D01*
X61162073Y-46164310D01*
X61009199Y-46053240D01*
X60994970Y-46045990D01*
X60840836Y-45967454D01*
X60735400Y-45933196D01*
X60719195Y-45927930D01*
X60661521Y-45888493D01*
X60634323Y-45824134D01*
X60646238Y-45755288D01*
X60693482Y-45703812D01*
X60719194Y-45692069D01*
X60840832Y-45652547D01*
X61009199Y-45566760D01*
X61162073Y-45455690D01*
X61295690Y-45322073D01*
X61406760Y-45169199D01*
X61492547Y-45000832D01*
X61550940Y-44821118D01*
X61580500Y-44634486D01*
X61580500Y-44445513D01*
X61550940Y-44258881D01*
X61498318Y-44096929D01*
X61492547Y-44079168D01*
X61492545Y-44079165D01*
X61492545Y-44079163D01*
X61447290Y-43990347D01*
X61406760Y-43910801D01*
X61295690Y-43757927D01*
X61162073Y-43624310D01*
X61009199Y-43513240D01*
X60984254Y-43500530D01*
X60840836Y-43427454D01*
X60757877Y-43400499D01*
X60719195Y-43387930D01*
X60661521Y-43348493D01*
X60634323Y-43284134D01*
X60646238Y-43215288D01*
X60693482Y-43163812D01*
X60719194Y-43152069D01*
X60840832Y-43112547D01*
X61009199Y-43026760D01*
X61162073Y-42915690D01*
X61295690Y-42782073D01*
X61406760Y-42629199D01*
X61492547Y-42460832D01*
X61550940Y-42281118D01*
X61569230Y-42165639D01*
X61580500Y-42094486D01*
X61580500Y-41905513D01*
X61550940Y-41718881D01*
X61492545Y-41539163D01*
X61406759Y-41370800D01*
X61295690Y-41217927D01*
X61162073Y-41084310D01*
X61009199Y-40973240D01*
X60840836Y-40887454D01*
X60766472Y-40863291D01*
X60719195Y-40847930D01*
X60661521Y-40808493D01*
X60634323Y-40744134D01*
X60646238Y-40675288D01*
X60693482Y-40623812D01*
X60719194Y-40612069D01*
X60840832Y-40572547D01*
X61009199Y-40486760D01*
X61162073Y-40375690D01*
X61295690Y-40242073D01*
X61406760Y-40089199D01*
X61492547Y-39920832D01*
X61550940Y-39741118D01*
X61580500Y-39554486D01*
X61580500Y-39365513D01*
X61550940Y-39178881D01*
X61523846Y-39095497D01*
X61492547Y-38999168D01*
X61492545Y-38999165D01*
X61492545Y-38999163D01*
X61406759Y-38830800D01*
X61295690Y-38677927D01*
X61162073Y-38544310D01*
X61009199Y-38433240D01*
X60968367Y-38412435D01*
X60840836Y-38347454D01*
X60766472Y-38323291D01*
X60719195Y-38307930D01*
X60661521Y-38268493D01*
X60634323Y-38204134D01*
X60646238Y-38135288D01*
X60693482Y-38083812D01*
X60719194Y-38072069D01*
X60840832Y-38032547D01*
X61009199Y-37946760D01*
X61162073Y-37835690D01*
X61295690Y-37702073D01*
X61406760Y-37549199D01*
X61492547Y-37380832D01*
X61550940Y-37201118D01*
X61580500Y-37014486D01*
X61580500Y-36825513D01*
X61550940Y-36638881D01*
X61492545Y-36459163D01*
X61406759Y-36290800D01*
X61295690Y-36137927D01*
X61162073Y-36004310D01*
X61009199Y-35893240D01*
X61009191Y-35893236D01*
X60855613Y-35814984D01*
X60804817Y-35767009D01*
X60788022Y-35699188D01*
X60810559Y-35633053D01*
X60865275Y-35589602D01*
X60911906Y-35580499D01*
X61324864Y-35580499D01*
X61324879Y-35580497D01*
X61324882Y-35580497D01*
X61349987Y-35577586D01*
X61349988Y-35577585D01*
X61349991Y-35577585D01*
X61452765Y-35532206D01*
X61532206Y-35452765D01*
X61577585Y-35349991D01*
X61580500Y-35324865D01*
X61580499Y-33550502D01*
X61600184Y-33483464D01*
X61652987Y-33437709D01*
X61722146Y-33427765D01*
X61747167Y-33434075D01*
X61757221Y-33437759D01*
X61806814Y-33466392D01*
X61912960Y-33494833D01*
X61918168Y-33496742D01*
X61941974Y-33514351D01*
X61967254Y-33529760D01*
X61969748Y-33534895D01*
X61974340Y-33538292D01*
X61984845Y-33565973D01*
X61997783Y-33592607D01*
X61998581Y-33602167D01*
X61999131Y-33603616D01*
X61998823Y-33605069D01*
X61999500Y-33613170D01*
X61999500Y-39565891D01*
X62033608Y-39693187D01*
X62061282Y-39741118D01*
X62099500Y-39807314D01*
X62192686Y-39900500D01*
X62291521Y-39957563D01*
X62305516Y-39965643D01*
X62306814Y-39966392D01*
X62434108Y-40000500D01*
X62934108Y-40000500D01*
X63434108Y-40000500D01*
X63934108Y-40000500D01*
X64434108Y-40000500D01*
X64934108Y-40000500D01*
X65434108Y-40000500D01*
X65934108Y-40000500D01*
X66434108Y-40000500D01*
X66934108Y-40000500D01*
X67434108Y-40000500D01*
X67934108Y-40000500D01*
X68434108Y-40000500D01*
X68934108Y-40000500D01*
X69434108Y-40000500D01*
X69934108Y-40000500D01*
X70434108Y-40000500D01*
X70934108Y-40000500D01*
X71434108Y-40000500D01*
X71934108Y-40000500D01*
X72375500Y-40000500D01*
X72442539Y-40020185D01*
X72488294Y-40072989D01*
X72499500Y-40124500D01*
X72499500Y-57004718D01*
X72479815Y-57071757D01*
X72444390Y-57107820D01*
X72330349Y-57184019D01*
X72330341Y-57184025D01*
X72184024Y-57330342D01*
X72069058Y-57502403D01*
X71989870Y-57693579D01*
X71989868Y-57693587D01*
X71949500Y-57896530D01*
X71949500Y-58103469D01*
X71989868Y-58306412D01*
X71989870Y-58306420D01*
X72007921Y-58350000D01*
X72069059Y-58497598D01*
X72106828Y-58554123D01*
X72184024Y-58669657D01*
X72330342Y-58815975D01*
X72330345Y-58815977D01*
X72502402Y-58930941D01*
X72693580Y-59010130D01*
X72896530Y-59050499D01*
X72896534Y-59050500D01*
X72896535Y-59050500D01*
X73103466Y-59050500D01*
X73103467Y-59050499D01*
X73306420Y-59010130D01*
X73497598Y-58930941D01*
X73669655Y-58815977D01*
X73815977Y-58669655D01*
X73930941Y-58497598D01*
X74010130Y-58306420D01*
X74050500Y-58103465D01*
X74050500Y-57896535D01*
X74010130Y-57693580D01*
X73930941Y-57502402D01*
X73815977Y-57330345D01*
X73815975Y-57330342D01*
X73669658Y-57184025D01*
X73669650Y-57184019D01*
X73555610Y-57107820D01*
X73510804Y-57054208D01*
X73500500Y-57004718D01*
X73500500Y-40124500D01*
X73520185Y-40057461D01*
X73572989Y-40011706D01*
X73624500Y-40000500D01*
X73934108Y-40000500D01*
X74434108Y-40000500D01*
X74472058Y-40000500D01*
X74539097Y-40020185D01*
X74582543Y-40068205D01*
X74593240Y-40089199D01*
X74704310Y-40242073D01*
X74837927Y-40375690D01*
X74990801Y-40486760D01*
X75011505Y-40497309D01*
X75159163Y-40572545D01*
X75159165Y-40572545D01*
X75159168Y-40572547D01*
X75242120Y-40599500D01*
X75280803Y-40612069D01*
X75338478Y-40651507D01*
X75365676Y-40715866D01*
X75353761Y-40784712D01*
X75306516Y-40836188D01*
X75280803Y-40847931D01*
X75159163Y-40887454D01*
X74990800Y-40973240D01*
X74903579Y-41036610D01*
X74837927Y-41084310D01*
X74837925Y-41084312D01*
X74837924Y-41084312D01*
X74704312Y-41217924D01*
X74704312Y-41217925D01*
X74704310Y-41217927D01*
X74660914Y-41277656D01*
X74593240Y-41370800D01*
X74507454Y-41539163D01*
X74449059Y-41718881D01*
X74419500Y-41905513D01*
X74419500Y-42094486D01*
X74449059Y-42281118D01*
X74507454Y-42460836D01*
X74576559Y-42596461D01*
X74593240Y-42629199D01*
X74704310Y-42782073D01*
X74837927Y-42915690D01*
X74990801Y-43026760D01*
X75037394Y-43050500D01*
X75159163Y-43112545D01*
X75159165Y-43112545D01*
X75159168Y-43112547D01*
X75226061Y-43134282D01*
X75280803Y-43152069D01*
X75338478Y-43191507D01*
X75365676Y-43255866D01*
X75353761Y-43324712D01*
X75306516Y-43376188D01*
X75280803Y-43387931D01*
X75159163Y-43427454D01*
X74990800Y-43513240D01*
X74908564Y-43572989D01*
X74837927Y-43624310D01*
X74837925Y-43624312D01*
X74837924Y-43624312D01*
X74704312Y-43757924D01*
X74704312Y-43757925D01*
X74704310Y-43757927D01*
X74671966Y-43802445D01*
X74593240Y-43910800D01*
X74507454Y-44079163D01*
X74449059Y-44258881D01*
X74419500Y-44445513D01*
X74419500Y-44634486D01*
X74449059Y-44821118D01*
X74507454Y-45000836D01*
X74587064Y-45157078D01*
X74593240Y-45169199D01*
X74704310Y-45322073D01*
X74837927Y-45455690D01*
X74990801Y-45566760D01*
X75055057Y-45599500D01*
X75159163Y-45652545D01*
X75159165Y-45652545D01*
X75159168Y-45652547D01*
X75248734Y-45681649D01*
X75280803Y-45692069D01*
X75338478Y-45731507D01*
X75365676Y-45795866D01*
X75353761Y-45864712D01*
X75306516Y-45916188D01*
X75280803Y-45927931D01*
X75159163Y-45967454D01*
X74990800Y-46053240D01*
X74915678Y-46107820D01*
X74837927Y-46164310D01*
X74837925Y-46164312D01*
X74837924Y-46164312D01*
X74704312Y-46297924D01*
X74704312Y-46297925D01*
X74704310Y-46297927D01*
X74680759Y-46330342D01*
X74593240Y-46450800D01*
X74507454Y-46619163D01*
X74449059Y-46798881D01*
X74419500Y-46985513D01*
X74419500Y-47174486D01*
X74449059Y-47361118D01*
X74507454Y-47540836D01*
X74548187Y-47620778D01*
X74593240Y-47709199D01*
X74704310Y-47862073D01*
X74837927Y-47995690D01*
X74990801Y-48106760D01*
X75070347Y-48147290D01*
X75159163Y-48192545D01*
X75159165Y-48192545D01*
X75159168Y-48192547D01*
X75248734Y-48221649D01*
X75280803Y-48232069D01*
X75338478Y-48271507D01*
X75365676Y-48335866D01*
X75353761Y-48404712D01*
X75306516Y-48456188D01*
X75280803Y-48467931D01*
X75159163Y-48507454D01*
X74990800Y-48593240D01*
X74903579Y-48656610D01*
X74837927Y-48704310D01*
X74837925Y-48704312D01*
X74837924Y-48704312D01*
X74704312Y-48837924D01*
X74704312Y-48837925D01*
X74704310Y-48837927D01*
X74656610Y-48903579D01*
X74593240Y-48990800D01*
X74507454Y-49159163D01*
X74449059Y-49338881D01*
X74419500Y-49525513D01*
X74419500Y-49714486D01*
X74449059Y-49901118D01*
X74507454Y-50080836D01*
X74577597Y-50218498D01*
X74593240Y-50249199D01*
X74704310Y-50402073D01*
X74837927Y-50535690D01*
X74990801Y-50646760D01*
X75070347Y-50687290D01*
X75159163Y-50732545D01*
X75159165Y-50732545D01*
X75159168Y-50732547D01*
X75255497Y-50763846D01*
X75338881Y-50790940D01*
X75525514Y-50820500D01*
X75525519Y-50820500D01*
X75714486Y-50820500D01*
X75901118Y-50790940D01*
X76080832Y-50732547D01*
X76249199Y-50646760D01*
X76402073Y-50535690D01*
X76535690Y-50402073D01*
X76646760Y-50249199D01*
X76732547Y-50080832D01*
X76790940Y-49901118D01*
X76804050Y-49818345D01*
X76820500Y-49714486D01*
X76820500Y-49525513D01*
X76790940Y-49338881D01*
X76762060Y-49250000D01*
X76732547Y-49159168D01*
X76732545Y-49159165D01*
X76732545Y-49159163D01*
X76646759Y-48990800D01*
X76535690Y-48837927D01*
X76402073Y-48704310D01*
X76249199Y-48593240D01*
X76080836Y-48507454D01*
X76006472Y-48483291D01*
X75959195Y-48467930D01*
X75901521Y-48428493D01*
X75874323Y-48364134D01*
X75886238Y-48295288D01*
X75933482Y-48243812D01*
X75959194Y-48232069D01*
X76080832Y-48192547D01*
X76249199Y-48106760D01*
X76402073Y-47995690D01*
X76535690Y-47862073D01*
X76646760Y-47709199D01*
X76732547Y-47540832D01*
X76790940Y-47361118D01*
X76799603Y-47306420D01*
X76820500Y-47174486D01*
X76820500Y-46985513D01*
X76790940Y-46798881D01*
X76732545Y-46619163D01*
X76680231Y-46516492D01*
X76646760Y-46450801D01*
X76535690Y-46297927D01*
X76402073Y-46164310D01*
X76249199Y-46053240D01*
X76234970Y-46045990D01*
X76080836Y-45967454D01*
X75975400Y-45933196D01*
X75959195Y-45927930D01*
X75901521Y-45888493D01*
X75874323Y-45824134D01*
X75886238Y-45755288D01*
X75933482Y-45703812D01*
X75959194Y-45692069D01*
X76080832Y-45652547D01*
X76249199Y-45566760D01*
X76402073Y-45455690D01*
X76535690Y-45322073D01*
X76646760Y-45169199D01*
X76732547Y-45000832D01*
X76790940Y-44821118D01*
X76820500Y-44634486D01*
X76820500Y-44445513D01*
X76790940Y-44258881D01*
X76738318Y-44096929D01*
X76732547Y-44079168D01*
X76732545Y-44079165D01*
X76732545Y-44079163D01*
X76687290Y-43990347D01*
X76646760Y-43910801D01*
X76535690Y-43757927D01*
X76402073Y-43624310D01*
X76249199Y-43513240D01*
X76224254Y-43500530D01*
X76080836Y-43427454D01*
X75997877Y-43400499D01*
X75959195Y-43387930D01*
X75901521Y-43348493D01*
X75874323Y-43284134D01*
X75886238Y-43215288D01*
X75933482Y-43163812D01*
X75959194Y-43152069D01*
X76080832Y-43112547D01*
X76249199Y-43026760D01*
X76402073Y-42915690D01*
X76535690Y-42782073D01*
X76646760Y-42629199D01*
X76732547Y-42460832D01*
X76790940Y-42281118D01*
X76809230Y-42165639D01*
X76820500Y-42094486D01*
X76820500Y-41905513D01*
X76790940Y-41718881D01*
X76732545Y-41539163D01*
X76646759Y-41370800D01*
X76535690Y-41217927D01*
X76402073Y-41084310D01*
X76249199Y-40973240D01*
X76080836Y-40887454D01*
X76006472Y-40863291D01*
X75959195Y-40847930D01*
X75901521Y-40808493D01*
X75874323Y-40744134D01*
X75886238Y-40675288D01*
X75933482Y-40623812D01*
X75959194Y-40612069D01*
X76080832Y-40572547D01*
X76249199Y-40486760D01*
X76402073Y-40375690D01*
X76535690Y-40242073D01*
X76646760Y-40089199D01*
X76732547Y-39920832D01*
X76790940Y-39741118D01*
X76820500Y-39554486D01*
X76820500Y-39365513D01*
X76790940Y-39178881D01*
X76763846Y-39095497D01*
X76732547Y-38999168D01*
X76732545Y-38999165D01*
X76732545Y-38999163D01*
X76646759Y-38830800D01*
X76535690Y-38677927D01*
X76402073Y-38544310D01*
X76249199Y-38433240D01*
X76249198Y-38433239D01*
X76249196Y-38433238D01*
X76208369Y-38412435D01*
X76157573Y-38364460D01*
X76140779Y-38296639D01*
X76163317Y-38230504D01*
X76208371Y-38191466D01*
X76353758Y-38117388D01*
X76417513Y-38071066D01*
X76417514Y-38071066D01*
X75749409Y-37402962D01*
X75812993Y-37385925D01*
X75927007Y-37320099D01*
X76020099Y-37227007D01*
X76085925Y-37112993D01*
X76102962Y-37049410D01*
X76771066Y-37717514D01*
X76771066Y-37717513D01*
X76817386Y-37653760D01*
X76917432Y-37457410D01*
X76985526Y-37247835D01*
X77020000Y-37030181D01*
X77020000Y-36809818D01*
X76985526Y-36592164D01*
X76917432Y-36382589D01*
X76817388Y-36186243D01*
X76771066Y-36122485D01*
X76771065Y-36122485D01*
X76102962Y-36790589D01*
X76085925Y-36727007D01*
X76020099Y-36612993D01*
X75927007Y-36519901D01*
X75812993Y-36454075D01*
X75749407Y-36437037D01*
X76417513Y-35768932D01*
X76353756Y-35722611D01*
X76208370Y-35648533D01*
X76157574Y-35600558D01*
X76140779Y-35532737D01*
X76163316Y-35466602D01*
X76208371Y-35427563D01*
X76249197Y-35406761D01*
X76249196Y-35406761D01*
X76249199Y-35406760D01*
X76402073Y-35295690D01*
X76535690Y-35162073D01*
X76536907Y-35160397D01*
X76552371Y-35139115D01*
X76607701Y-35096449D01*
X76652689Y-35088000D01*
X79825500Y-35088000D01*
X79892539Y-35107685D01*
X79938294Y-35160489D01*
X79949500Y-35212000D01*
X79949500Y-42103469D01*
X79989868Y-42306412D01*
X79989870Y-42306420D01*
X80053831Y-42460836D01*
X80069059Y-42497598D01*
X80109058Y-42557461D01*
X80184024Y-42669657D01*
X80330342Y-42815975D01*
X80330345Y-42815977D01*
X80502402Y-42930941D01*
X80693580Y-43010130D01*
X80849694Y-43041182D01*
X80911602Y-43073566D01*
X80946176Y-43134282D01*
X80949500Y-43162799D01*
X80949500Y-58103469D01*
X80989868Y-58306412D01*
X80989870Y-58306420D01*
X81007921Y-58350000D01*
X81069059Y-58497598D01*
X81106828Y-58554123D01*
X81184024Y-58669657D01*
X81330342Y-58815975D01*
X81330345Y-58815977D01*
X81502402Y-58930941D01*
X81693580Y-59010130D01*
X81896530Y-59050499D01*
X81896534Y-59050500D01*
X81896535Y-59050500D01*
X82103466Y-59050500D01*
X82103467Y-59050499D01*
X82306420Y-59010130D01*
X82497598Y-58930941D01*
X82669655Y-58815977D01*
X82815977Y-58669655D01*
X82930941Y-58497598D01*
X83010130Y-58306420D01*
X83050500Y-58103465D01*
X83050500Y-43174500D01*
X83070185Y-43107461D01*
X83122989Y-43061706D01*
X83174500Y-43050500D01*
X85552914Y-43050500D01*
X85619953Y-43070185D01*
X85659640Y-43115986D01*
X85661483Y-43114951D01*
X85665640Y-43122345D01*
X85757076Y-43242923D01*
X85877654Y-43334359D01*
X85877657Y-43334361D01*
X86018435Y-43389877D01*
X86106897Y-43400500D01*
X87893102Y-43400499D01*
X87981565Y-43389877D01*
X88122343Y-43334361D01*
X88242923Y-43242923D01*
X88334361Y-43122343D01*
X88389877Y-42981565D01*
X88400500Y-42893103D01*
X88400499Y-41106898D01*
X88389877Y-41018435D01*
X88334361Y-40877657D01*
X88333871Y-40877011D01*
X88242923Y-40757076D01*
X88122345Y-40665640D01*
X88122339Y-40665637D01*
X87981566Y-40610123D01*
X87968927Y-40608605D01*
X87893103Y-40599500D01*
X87893097Y-40599500D01*
X86106903Y-40599500D01*
X86018435Y-40610123D01*
X86018431Y-40610124D01*
X85877660Y-40665637D01*
X85877654Y-40665640D01*
X85757076Y-40757076D01*
X85665640Y-40877654D01*
X85661483Y-40885049D01*
X85658590Y-40883422D01*
X85625383Y-40926119D01*
X85559480Y-40949326D01*
X85552914Y-40949500D01*
X82174500Y-40949500D01*
X82107461Y-40929815D01*
X82061706Y-40877011D01*
X82050500Y-40825500D01*
X82050500Y-33934034D01*
X82050499Y-33934031D01*
X82027883Y-33820330D01*
X82025500Y-33796139D01*
X82025500Y-33656903D01*
X82025500Y-33656898D01*
X82014877Y-33568436D01*
X81959361Y-33427658D01*
X81959360Y-33427657D01*
X81959360Y-33427656D01*
X81867922Y-33307077D01*
X81740584Y-33210514D01*
X81741970Y-33208685D01*
X81701679Y-33167372D01*
X81687683Y-33098919D01*
X81712918Y-33033765D01*
X81769372Y-32992598D01*
X81772245Y-32991606D01*
X81794122Y-32984356D01*
X81794124Y-32984356D01*
X81943345Y-32892315D01*
X82067315Y-32768345D01*
X82159356Y-32619124D01*
X82159358Y-32619119D01*
X82214505Y-32452697D01*
X82214506Y-32452690D01*
X82224999Y-32349986D01*
X82225000Y-32349973D01*
X82225000Y-32212500D01*
X79775001Y-32212500D01*
X79775001Y-32349986D01*
X79785494Y-32452697D01*
X79840641Y-32619119D01*
X79840643Y-32619124D01*
X79932684Y-32768345D01*
X79939658Y-32775319D01*
X79973143Y-32836642D01*
X79968159Y-32906334D01*
X79926287Y-32962267D01*
X79860823Y-32986684D01*
X79851977Y-32987000D01*
X75516530Y-32987000D01*
X75313587Y-33027368D01*
X75313579Y-33027370D01*
X75122403Y-33106558D01*
X74950342Y-33221524D01*
X74804022Y-33367844D01*
X74689062Y-33539895D01*
X74689059Y-33539902D01*
X74618537Y-33710153D01*
X74604298Y-33735579D01*
X74593242Y-33750797D01*
X74507454Y-33919163D01*
X74449059Y-34098881D01*
X74419500Y-34285513D01*
X74419500Y-34474486D01*
X74449059Y-34661118D01*
X74507454Y-34840836D01*
X74554979Y-34934108D01*
X74593240Y-35009199D01*
X74704310Y-35162073D01*
X74837927Y-35295690D01*
X74990801Y-35406760D01*
X75021550Y-35422427D01*
X75031629Y-35427563D01*
X75082425Y-35475538D01*
X75099220Y-35543359D01*
X75076682Y-35609494D01*
X75031630Y-35648532D01*
X74886237Y-35722614D01*
X74886234Y-35722616D01*
X74822485Y-35768931D01*
X74822485Y-35768932D01*
X75490590Y-36437037D01*
X75427007Y-36454075D01*
X75312993Y-36519901D01*
X75219901Y-36612993D01*
X75154075Y-36727007D01*
X75137037Y-36790590D01*
X74468932Y-36122485D01*
X74468931Y-36122485D01*
X74422616Y-36186233D01*
X74322567Y-36382589D01*
X74254473Y-36592164D01*
X74220000Y-36809818D01*
X74220000Y-37030181D01*
X74254473Y-37247835D01*
X74322567Y-37457410D01*
X74422611Y-37653756D01*
X74468932Y-37717513D01*
X75137037Y-37049408D01*
X75154075Y-37112993D01*
X75219901Y-37227007D01*
X75312993Y-37320099D01*
X75427007Y-37385925D01*
X75490590Y-37402962D01*
X74822485Y-38071065D01*
X74822485Y-38071066D01*
X74886243Y-38117388D01*
X75031629Y-38191466D01*
X75082425Y-38239440D01*
X75099220Y-38307261D01*
X75076683Y-38373396D01*
X75031631Y-38412435D01*
X74990805Y-38433238D01*
X74990801Y-38433240D01*
X74837927Y-38544310D01*
X74837925Y-38544312D01*
X74837924Y-38544312D01*
X74704312Y-38677924D01*
X74704312Y-38677925D01*
X74704310Y-38677927D01*
X74656610Y-38743579D01*
X74593240Y-38830800D01*
X74562162Y-38891795D01*
X74514187Y-38942591D01*
X74451677Y-38959500D01*
X73065892Y-38959500D01*
X72934108Y-38959500D01*
X72806814Y-38993608D01*
X72806812Y-38993608D01*
X72800594Y-38995275D01*
X72768501Y-38999500D01*
X63124500Y-38999500D01*
X63057461Y-38979815D01*
X63011706Y-38927011D01*
X63000500Y-38875500D01*
X63000500Y-32934110D01*
X63000500Y-32934108D01*
X62966392Y-32806814D01*
X62900500Y-32692686D01*
X62807314Y-32599500D01*
X62693186Y-32533608D01*
X62583469Y-32504209D01*
X62523810Y-32467845D01*
X62495789Y-32416528D01*
X62491494Y-32400500D01*
X62466392Y-32306814D01*
X62400500Y-32192686D01*
X62307314Y-32099500D01*
X62249102Y-32065891D01*
X62193187Y-32033608D01*
X62129539Y-32016554D01*
X62065892Y-31999500D01*
X62065891Y-31999500D01*
X61613170Y-31999500D01*
X61546131Y-31979815D01*
X61500376Y-31927011D01*
X61493395Y-31907593D01*
X61466391Y-31806812D01*
X61421915Y-31729778D01*
X61400500Y-31692686D01*
X61307314Y-31599500D01*
X61264901Y-31575013D01*
X79775000Y-31575013D01*
X79775000Y-31712500D01*
X80750000Y-31712500D01*
X81250000Y-31712500D01*
X82224999Y-31712500D01*
X82224999Y-31575028D01*
X82224998Y-31575013D01*
X82214505Y-31472302D01*
X82159358Y-31305880D01*
X82159356Y-31305875D01*
X82067315Y-31156654D01*
X81943345Y-31032684D01*
X81794124Y-30940643D01*
X81794119Y-30940641D01*
X81627697Y-30885494D01*
X81627690Y-30885493D01*
X81524986Y-30875000D01*
X81250000Y-30875000D01*
X81250000Y-31712500D01*
X80750000Y-31712500D01*
X80750000Y-30875000D01*
X80475029Y-30875000D01*
X80475012Y-30875001D01*
X80372302Y-30885494D01*
X80205880Y-30940641D01*
X80205875Y-30940643D01*
X80056654Y-31032684D01*
X79932684Y-31156654D01*
X79840643Y-31305875D01*
X79840641Y-31305880D01*
X79785494Y-31472302D01*
X79785493Y-31472309D01*
X79775000Y-31575013D01*
X61264901Y-31575013D01*
X61250250Y-31566554D01*
X61193187Y-31533608D01*
X61112718Y-31512047D01*
X61065892Y-31499500D01*
X61065891Y-31499500D01*
X51159951Y-31499500D01*
X51092912Y-31479815D01*
X51047157Y-31427011D01*
X51037213Y-31357853D01*
X51050320Y-31317560D01*
X51052787Y-31312889D01*
X51052793Y-31312882D01*
X51079704Y-31235972D01*
X51097646Y-31184701D01*
X51097646Y-31184699D01*
X51100500Y-31154269D01*
X51100500Y-30745733D01*
X51100111Y-30741592D01*
X51098599Y-30725465D01*
X51111937Y-30656882D01*
X51160237Y-30606396D01*
X51228165Y-30590038D01*
X51263011Y-30596845D01*
X51264073Y-30597216D01*
X51265301Y-30597646D01*
X51265300Y-30597646D01*
X51295730Y-30600500D01*
X51295734Y-30600500D01*
X52579270Y-30600500D01*
X52609699Y-30597646D01*
X52609701Y-30597646D01*
X52673790Y-30575219D01*
X52737882Y-30552793D01*
X52752367Y-30542103D01*
X52775907Y-30524730D01*
X52841536Y-30500759D01*
X52849540Y-30500500D01*
X59838481Y-30500500D01*
X59905520Y-30520185D01*
X59926162Y-30536819D01*
X59933454Y-30544111D01*
X59933458Y-30544114D01*
X60048182Y-30620771D01*
X60048195Y-30620778D01*
X60099877Y-30642185D01*
X60175672Y-30673580D01*
X60175676Y-30673580D01*
X60175677Y-30673581D01*
X60311004Y-30700500D01*
X60311007Y-30700500D01*
X60448995Y-30700500D01*
X60540041Y-30682389D01*
X60584328Y-30673580D01*
X60711811Y-30620775D01*
X60826542Y-30544114D01*
X60924114Y-30446542D01*
X61000775Y-30331811D01*
X61053580Y-30204328D01*
X61080500Y-30068993D01*
X61080500Y-29931007D01*
X61080500Y-29931004D01*
X61053581Y-29795677D01*
X61053580Y-29795676D01*
X61053580Y-29795672D01*
X61021274Y-29717678D01*
X61000778Y-29668195D01*
X61000771Y-29668182D01*
X60924114Y-29553458D01*
X60924111Y-29553454D01*
X60826545Y-29455888D01*
X60826541Y-29455885D01*
X60711817Y-29379228D01*
X60711804Y-29379221D01*
X60584332Y-29326421D01*
X60584322Y-29326418D01*
X60448995Y-29299500D01*
X60448993Y-29299500D01*
X60311007Y-29299500D01*
X60311005Y-29299500D01*
X60175677Y-29326418D01*
X60175667Y-29326421D01*
X60048195Y-29379221D01*
X60048182Y-29379228D01*
X59933458Y-29455885D01*
X59933454Y-29455888D01*
X59926162Y-29463181D01*
X59864839Y-29496666D01*
X59838481Y-29499500D01*
X52849540Y-29499500D01*
X52782501Y-29479815D01*
X52775907Y-29475270D01*
X52737886Y-29447209D01*
X52737880Y-29447206D01*
X52609700Y-29402353D01*
X52579270Y-29399500D01*
X52579266Y-29399500D01*
X52562000Y-29399500D01*
X52494961Y-29379815D01*
X52449206Y-29327011D01*
X52438000Y-29275500D01*
X52438000Y-22934110D01*
X52438000Y-22934108D01*
X52403892Y-22806814D01*
X52338000Y-22692686D01*
X52244814Y-22599500D01*
X52187750Y-22566554D01*
X52130687Y-22533608D01*
X52014226Y-22502403D01*
X52003392Y-22499500D01*
X51991823Y-22499500D01*
X51988366Y-22499307D01*
X51958568Y-22488720D01*
X51928242Y-22479815D01*
X51925259Y-22476885D01*
X51922529Y-22475915D01*
X51917025Y-22468796D01*
X51892180Y-22444392D01*
X51850456Y-22381947D01*
X55500000Y-22381947D01*
X55500000Y-22618052D01*
X55536934Y-22851247D01*
X55609897Y-23075802D01*
X55717087Y-23286174D01*
X55777338Y-23369104D01*
X55777340Y-23369105D01*
X56476212Y-22670233D01*
X56487482Y-22712292D01*
X56559890Y-22837708D01*
X56662292Y-22940110D01*
X56787708Y-23012518D01*
X56829765Y-23023787D01*
X56130893Y-23722658D01*
X56213828Y-23782914D01*
X56424197Y-23890102D01*
X56648752Y-23963065D01*
X56648751Y-23963065D01*
X56881948Y-24000000D01*
X57118052Y-24000000D01*
X57351247Y-23963065D01*
X57575802Y-23890102D01*
X57786163Y-23782918D01*
X57786169Y-23782914D01*
X57869104Y-23722658D01*
X57869105Y-23722658D01*
X57170233Y-23023787D01*
X57212292Y-23012518D01*
X57337708Y-22940110D01*
X57440110Y-22837708D01*
X57512518Y-22712292D01*
X57523787Y-22670234D01*
X58222658Y-23369105D01*
X58222658Y-23369104D01*
X58282914Y-23286169D01*
X58282918Y-23286163D01*
X58390102Y-23075802D01*
X58463065Y-22851247D01*
X58500000Y-22618052D01*
X58500000Y-22381947D01*
X62000000Y-22381947D01*
X62000000Y-22618052D01*
X62036934Y-22851247D01*
X62109897Y-23075802D01*
X62217087Y-23286174D01*
X62277338Y-23369104D01*
X62277340Y-23369105D01*
X62976212Y-22670233D01*
X62987482Y-22712292D01*
X63059890Y-22837708D01*
X63162292Y-22940110D01*
X63287708Y-23012518D01*
X63329765Y-23023787D01*
X62630893Y-23722658D01*
X62713828Y-23782914D01*
X62924197Y-23890102D01*
X63148752Y-23963065D01*
X63148751Y-23963065D01*
X63381948Y-24000000D01*
X63618052Y-24000000D01*
X63851247Y-23963065D01*
X64075802Y-23890102D01*
X64286163Y-23782918D01*
X64286169Y-23782914D01*
X64369104Y-23722658D01*
X64369105Y-23722658D01*
X63670233Y-23023787D01*
X63712292Y-23012518D01*
X63837708Y-22940110D01*
X63940110Y-22837708D01*
X64012518Y-22712292D01*
X64023787Y-22670234D01*
X64722658Y-23369105D01*
X64722658Y-23369104D01*
X64782914Y-23286169D01*
X64782918Y-23286163D01*
X64890102Y-23075802D01*
X64963065Y-22851247D01*
X65000000Y-22618052D01*
X65000000Y-22381947D01*
X64963065Y-22148752D01*
X64890102Y-21924197D01*
X64782914Y-21713828D01*
X64722658Y-21630894D01*
X64722658Y-21630893D01*
X64023787Y-22329765D01*
X64012518Y-22287708D01*
X63940110Y-22162292D01*
X63837708Y-22059890D01*
X63712292Y-21987482D01*
X63670234Y-21976212D01*
X64369105Y-21277340D01*
X64369104Y-21277338D01*
X64286174Y-21217087D01*
X64075802Y-21109897D01*
X63851247Y-21036934D01*
X63851248Y-21036934D01*
X63618052Y-21000000D01*
X63381948Y-21000000D01*
X63148752Y-21036934D01*
X62924197Y-21109897D01*
X62713830Y-21217084D01*
X62630894Y-21277340D01*
X63329766Y-21976212D01*
X63287708Y-21987482D01*
X63162292Y-22059890D01*
X63059890Y-22162292D01*
X62987482Y-22287708D01*
X62976212Y-22329766D01*
X62277340Y-21630894D01*
X62217084Y-21713830D01*
X62109897Y-21924197D01*
X62036934Y-22148752D01*
X62000000Y-22381947D01*
X58500000Y-22381947D01*
X58463065Y-22148752D01*
X58390102Y-21924197D01*
X58282914Y-21713828D01*
X58222658Y-21630894D01*
X58222658Y-21630893D01*
X57523787Y-22329765D01*
X57512518Y-22287708D01*
X57440110Y-22162292D01*
X57337708Y-22059890D01*
X57212292Y-21987482D01*
X57170234Y-21976212D01*
X57869105Y-21277340D01*
X57869104Y-21277339D01*
X57786174Y-21217087D01*
X57575802Y-21109897D01*
X57351247Y-21036934D01*
X57351248Y-21036934D01*
X57118052Y-21000000D01*
X56881948Y-21000000D01*
X56648752Y-21036934D01*
X56424197Y-21109897D01*
X56213830Y-21217084D01*
X56130894Y-21277340D01*
X56829766Y-21976212D01*
X56787708Y-21987482D01*
X56662292Y-22059890D01*
X56559890Y-22162292D01*
X56487482Y-22287708D01*
X56476212Y-22329766D01*
X55777340Y-21630894D01*
X55717084Y-21713830D01*
X55609897Y-21924197D01*
X55536934Y-22148752D01*
X55500000Y-22381947D01*
X51850456Y-22381947D01*
X51815977Y-22330345D01*
X51815975Y-22330342D01*
X51669657Y-22184024D01*
X51583626Y-22126541D01*
X51497598Y-22069059D01*
X51475462Y-22059890D01*
X51306420Y-21989870D01*
X51306412Y-21989868D01*
X51103469Y-21949500D01*
X51103465Y-21949500D01*
X50896535Y-21949500D01*
X50896530Y-21949500D01*
X50693587Y-21989868D01*
X50693579Y-21989870D01*
X50502403Y-22069058D01*
X50330342Y-22184024D01*
X50184024Y-22330342D01*
X50069058Y-22502403D01*
X49989870Y-22693579D01*
X49989868Y-22693587D01*
X49949500Y-22896530D01*
X49949500Y-23103469D01*
X49989868Y-23306412D01*
X49989870Y-23306420D01*
X50028626Y-23399986D01*
X50069059Y-23497598D01*
X50072466Y-23502697D01*
X50184024Y-23669657D01*
X50330342Y-23815975D01*
X50330345Y-23815977D01*
X50502402Y-23930941D01*
X50693580Y-24010130D01*
X50896530Y-24050499D01*
X50896534Y-24050500D01*
X50896535Y-24050500D01*
X51103466Y-24050500D01*
X51103466Y-24050499D01*
X51288809Y-24013633D01*
X51358400Y-24019860D01*
X51413578Y-24062723D01*
X51436822Y-24128613D01*
X51437000Y-24135250D01*
X51437000Y-26375500D01*
X51417315Y-26442539D01*
X51364511Y-26488294D01*
X51313000Y-26499500D01*
X45934108Y-26499500D01*
X45806812Y-26533608D01*
X45692686Y-26599500D01*
X45692683Y-26599502D01*
X45599502Y-26692683D01*
X45599500Y-26692686D01*
X45533608Y-26806812D01*
X45499500Y-26934108D01*
X45498439Y-26942168D01*
X45496924Y-26941968D01*
X45479815Y-27000235D01*
X45427011Y-27045990D01*
X45420990Y-27048550D01*
X45377660Y-27065637D01*
X45377658Y-27065638D01*
X45257077Y-27157077D01*
X45165639Y-27277656D01*
X45135665Y-27353663D01*
X45115353Y-27405171D01*
X45072449Y-27460314D01*
X45006541Y-27483507D01*
X44938556Y-27467386D01*
X44890080Y-27417070D01*
X44884648Y-27405178D01*
X44834361Y-27277658D01*
X44834360Y-27277657D01*
X44834360Y-27277656D01*
X44742922Y-27157077D01*
X44622341Y-27065638D01*
X44622339Y-27065637D01*
X44579010Y-27048550D01*
X44523866Y-27005644D01*
X44500673Y-26939736D01*
X44500500Y-26933196D01*
X44500500Y-24971610D01*
X44500500Y-24971608D01*
X44466392Y-24844314D01*
X44400500Y-24730186D01*
X44307314Y-24637000D01*
X44250250Y-24604054D01*
X44193187Y-24571108D01*
X44129539Y-24554054D01*
X44065892Y-24537000D01*
X44065891Y-24537000D01*
X39086874Y-24537000D01*
X39019835Y-24517315D01*
X38974080Y-24464511D01*
X38971519Y-24458489D01*
X38959361Y-24427658D01*
X38921443Y-24377656D01*
X38867922Y-24307077D01*
X38740584Y-24210514D01*
X38741970Y-24208685D01*
X38701679Y-24167372D01*
X38687683Y-24098919D01*
X38712918Y-24033765D01*
X38769372Y-23992598D01*
X38772245Y-23991606D01*
X38794122Y-23984356D01*
X38794124Y-23984356D01*
X38943345Y-23892315D01*
X39067315Y-23768345D01*
X39159356Y-23619124D01*
X39159358Y-23619119D01*
X39214505Y-23452697D01*
X39214506Y-23452690D01*
X39224999Y-23349986D01*
X39225000Y-23349973D01*
X39225000Y-23212500D01*
X36775001Y-23212500D01*
X36775001Y-23349986D01*
X36785494Y-23452697D01*
X36840641Y-23619119D01*
X36840643Y-23619124D01*
X36932684Y-23768345D01*
X37056654Y-23892315D01*
X37205876Y-23984356D01*
X37227755Y-23991606D01*
X37285201Y-24031378D01*
X37312025Y-24095893D01*
X37299711Y-24164669D01*
X37258393Y-24209166D01*
X37259416Y-24210514D01*
X37132077Y-24307077D01*
X37040638Y-24427658D01*
X37036481Y-24435052D01*
X37033587Y-24433425D01*
X37000383Y-24476119D01*
X36934480Y-24499326D01*
X36927914Y-24499500D01*
X34066804Y-24499500D01*
X33999765Y-24479815D01*
X33954010Y-24427011D01*
X33951450Y-24420990D01*
X33934362Y-24377660D01*
X33934361Y-24377658D01*
X33842922Y-24257077D01*
X33792047Y-24218498D01*
X33750524Y-24162306D01*
X33745972Y-24092584D01*
X33779837Y-24031470D01*
X33801875Y-24014155D01*
X33918345Y-23942315D01*
X34042315Y-23818345D01*
X34134356Y-23669124D01*
X34134358Y-23669119D01*
X34189505Y-23502697D01*
X34189506Y-23502690D01*
X34199999Y-23399986D01*
X34200000Y-23399973D01*
X34200000Y-23250000D01*
X31800001Y-23250000D01*
X31800001Y-23399986D01*
X31810494Y-23502697D01*
X31865641Y-23669119D01*
X31865643Y-23669124D01*
X31957684Y-23818345D01*
X32081655Y-23942316D01*
X32081659Y-23942319D01*
X32198124Y-24014156D01*
X32244849Y-24066104D01*
X32256070Y-24135066D01*
X32228227Y-24199148D01*
X32207953Y-24218497D01*
X32157078Y-24257077D01*
X32065639Y-24377656D01*
X32010122Y-24518438D01*
X32004358Y-24566446D01*
X31999500Y-24606898D01*
X31999500Y-25393102D01*
X32003317Y-25424888D01*
X32010122Y-25481561D01*
X32010122Y-25481563D01*
X32010123Y-25481564D01*
X32017659Y-25500673D01*
X32065639Y-25622343D01*
X32157077Y-25742922D01*
X32277656Y-25834360D01*
X32277657Y-25834360D01*
X32277658Y-25834361D01*
X32418436Y-25889877D01*
X32418440Y-25889877D01*
X32420990Y-25890883D01*
X32476134Y-25933789D01*
X32499327Y-25999697D01*
X32499500Y-26006238D01*
X32499500Y-27375500D01*
X32479815Y-27442539D01*
X32427011Y-27488294D01*
X32375500Y-27499500D01*
X28006239Y-27499500D01*
X27939200Y-27479815D01*
X27893445Y-27427011D01*
X27890885Y-27420990D01*
X27834362Y-27277660D01*
X27834361Y-27277658D01*
X27742922Y-27157077D01*
X27622343Y-27065639D01*
X27481561Y-27010122D01*
X27435926Y-27004642D01*
X27393102Y-26999500D01*
X26606898Y-26999500D01*
X26567853Y-27004188D01*
X26518438Y-27010122D01*
X26377656Y-27065639D01*
X26257077Y-27157077D01*
X26165639Y-27277656D01*
X26135665Y-27353663D01*
X26115353Y-27405171D01*
X26072449Y-27460314D01*
X26006541Y-27483507D01*
X25938556Y-27467386D01*
X25890080Y-27417070D01*
X25884648Y-27405178D01*
X25834361Y-27277658D01*
X25834360Y-27277657D01*
X25834360Y-27277656D01*
X25742922Y-27157077D01*
X25622343Y-27065639D01*
X25481561Y-27010122D01*
X25435926Y-27004642D01*
X25393102Y-26999500D01*
X24606898Y-26999500D01*
X24567853Y-27004188D01*
X24518438Y-27010122D01*
X24377656Y-27065639D01*
X24257077Y-27157077D01*
X24165639Y-27277656D01*
X24110122Y-27418438D01*
X24106819Y-27445946D01*
X24099500Y-27506898D01*
X24099500Y-28493102D01*
X24104245Y-28532612D01*
X24110122Y-28581561D01*
X24165639Y-28722343D01*
X24257077Y-28842922D01*
X24377656Y-28934360D01*
X24377657Y-28934360D01*
X24377658Y-28934361D01*
X24518436Y-28989877D01*
X24606898Y-29000500D01*
X24606903Y-29000500D01*
X25393097Y-29000500D01*
X25393102Y-29000500D01*
X25481564Y-28989877D01*
X25622342Y-28934361D01*
X25742922Y-28842922D01*
X25834361Y-28722342D01*
X25884646Y-28594826D01*
X25927551Y-28539685D01*
X25993459Y-28516492D01*
X26061443Y-28532612D01*
X26109920Y-28582929D01*
X26115348Y-28594814D01*
X26133089Y-28639801D01*
X26165639Y-28722343D01*
X26257077Y-28842922D01*
X26377656Y-28934360D01*
X26377657Y-28934360D01*
X26377658Y-28934361D01*
X26518436Y-28989877D01*
X26606898Y-29000500D01*
X26606903Y-29000500D01*
X27393097Y-29000500D01*
X27393102Y-29000500D01*
X27481564Y-28989877D01*
X27622342Y-28934361D01*
X27742922Y-28842922D01*
X27834361Y-28722342D01*
X27851983Y-28677656D01*
X27890885Y-28579010D01*
X27933791Y-28523866D01*
X27999698Y-28500673D01*
X28006239Y-28500500D01*
X33065890Y-28500500D01*
X33065892Y-28500500D01*
X33193186Y-28466392D01*
X33307314Y-28400500D01*
X33400500Y-28307314D01*
X33466392Y-28193186D01*
X33500500Y-28065892D01*
X33500500Y-26006238D01*
X33520185Y-25939199D01*
X33572989Y-25893444D01*
X33579010Y-25890883D01*
X33581559Y-25889877D01*
X33581564Y-25889877D01*
X33722342Y-25834361D01*
X33842922Y-25742922D01*
X33934361Y-25622342D01*
X33939035Y-25610489D01*
X33951450Y-25579010D01*
X33994356Y-25523866D01*
X34060264Y-25500673D01*
X34066804Y-25500500D01*
X36898338Y-25500500D01*
X36965377Y-25520185D01*
X37011132Y-25572989D01*
X37013687Y-25578997D01*
X37013692Y-25579010D01*
X37013693Y-25579011D01*
X37040638Y-25647342D01*
X37132077Y-25767922D01*
X37252656Y-25859360D01*
X37252657Y-25859360D01*
X37252658Y-25859361D01*
X37393436Y-25914877D01*
X37481898Y-25925500D01*
X37481903Y-25925500D01*
X38518097Y-25925500D01*
X38518102Y-25925500D01*
X38606564Y-25914877D01*
X38747342Y-25859361D01*
X38867922Y-25767922D01*
X38959361Y-25647342D01*
X38971519Y-25616510D01*
X39014424Y-25561367D01*
X39080332Y-25538173D01*
X39086874Y-25538000D01*
X43375500Y-25538000D01*
X43442539Y-25557685D01*
X43488294Y-25610489D01*
X43499500Y-25662000D01*
X43499500Y-26933196D01*
X43479815Y-27000235D01*
X43427011Y-27045990D01*
X43420990Y-27048550D01*
X43377660Y-27065637D01*
X43377658Y-27065638D01*
X43257077Y-27157077D01*
X43165639Y-27277656D01*
X43110122Y-27418438D01*
X43106819Y-27445946D01*
X43099500Y-27506898D01*
X43099500Y-28493102D01*
X43104245Y-28532612D01*
X43110122Y-28581561D01*
X43165639Y-28722343D01*
X43257077Y-28842922D01*
X43377656Y-28934360D01*
X43377657Y-28934360D01*
X43377658Y-28934361D01*
X43518436Y-28989877D01*
X43606898Y-29000500D01*
X43606903Y-29000500D01*
X44393097Y-29000500D01*
X44393102Y-29000500D01*
X44481564Y-28989877D01*
X44622342Y-28934361D01*
X44742922Y-28842922D01*
X44834361Y-28722342D01*
X44884646Y-28594826D01*
X44927551Y-28539685D01*
X44993459Y-28516492D01*
X45061443Y-28532612D01*
X45109920Y-28582929D01*
X45115348Y-28594814D01*
X45133089Y-28639801D01*
X45165639Y-28722343D01*
X45257077Y-28842922D01*
X45377656Y-28934360D01*
X45377657Y-28934360D01*
X45377658Y-28934361D01*
X45518436Y-28989877D01*
X45606898Y-29000500D01*
X45606903Y-29000500D01*
X46393097Y-29000500D01*
X46393102Y-29000500D01*
X46481564Y-28989877D01*
X46622342Y-28934361D01*
X46742922Y-28842922D01*
X46775472Y-28799998D01*
X48827704Y-28799998D01*
X48827705Y-28800000D01*
X49812500Y-28800000D01*
X49812500Y-28250000D01*
X49409350Y-28250000D01*
X49372510Y-28252899D01*
X49372504Y-28252900D01*
X49214806Y-28298716D01*
X49214803Y-28298717D01*
X49073447Y-28382314D01*
X49073438Y-28382321D01*
X48957321Y-28498438D01*
X48957314Y-28498447D01*
X48873718Y-28639801D01*
X48827899Y-28797513D01*
X48827704Y-28799998D01*
X46775472Y-28799998D01*
X46834361Y-28722342D01*
X46889877Y-28581564D01*
X46900500Y-28493102D01*
X46900500Y-27624500D01*
X46920185Y-27557461D01*
X46972989Y-27511706D01*
X47024500Y-27500500D01*
X51313000Y-27500500D01*
X51380039Y-27520185D01*
X51425794Y-27572989D01*
X51437000Y-27624500D01*
X51437000Y-28500566D01*
X51417315Y-28567605D01*
X51364511Y-28613360D01*
X51295353Y-28623304D01*
X51231797Y-28594279D01*
X51206268Y-28563687D01*
X51167685Y-28498447D01*
X51167678Y-28498438D01*
X51051561Y-28382321D01*
X51051552Y-28382314D01*
X50910196Y-28298717D01*
X50910193Y-28298716D01*
X50752495Y-28252900D01*
X50752489Y-28252899D01*
X50715649Y-28250000D01*
X50312500Y-28250000D01*
X50312500Y-29850000D01*
X50715634Y-29850000D01*
X50715649Y-29849999D01*
X50752481Y-29847100D01*
X50753203Y-29846969D01*
X50753611Y-29847011D01*
X50758808Y-29846603D01*
X50758883Y-29847566D01*
X50822689Y-29854278D01*
X50877193Y-29897994D01*
X50899410Y-29964237D01*
X50899500Y-29968948D01*
X50899500Y-30204266D01*
X50901361Y-30224118D01*
X50901401Y-30224537D01*
X50888060Y-30293121D01*
X50839758Y-30343605D01*
X50771830Y-30359961D01*
X50736995Y-30353156D01*
X50734704Y-30352354D01*
X50734699Y-30352353D01*
X50704270Y-30349500D01*
X50704266Y-30349500D01*
X49420734Y-30349500D01*
X49420730Y-30349500D01*
X49390300Y-30352353D01*
X49390298Y-30352353D01*
X49262119Y-30397206D01*
X49262117Y-30397207D01*
X49152850Y-30477850D01*
X49072207Y-30587117D01*
X49072206Y-30587119D01*
X49027353Y-30715298D01*
X49027353Y-30715300D01*
X49024500Y-30745730D01*
X49024500Y-31154269D01*
X49027353Y-31184699D01*
X49027353Y-31184701D01*
X49069755Y-31305875D01*
X49072207Y-31312882D01*
X49152850Y-31422150D01*
X49262118Y-31502793D01*
X49282269Y-31509844D01*
X49390298Y-31547646D01*
X49397670Y-31549256D01*
X49397206Y-31551379D01*
X49451982Y-31573198D01*
X49492609Y-31630041D01*
X49499500Y-31670802D01*
X49499500Y-31934108D01*
X49499500Y-32065892D01*
X49508505Y-32099500D01*
X49533608Y-32193187D01*
X49540043Y-32204332D01*
X49599500Y-32307314D01*
X49692686Y-32400500D01*
X49806814Y-32466392D01*
X49934108Y-32500500D01*
X50434108Y-32500500D01*
X50934108Y-32500500D01*
X51434108Y-32500500D01*
X51934108Y-32500500D01*
X52434108Y-32500500D01*
X52934108Y-32500500D01*
X53434108Y-32500500D01*
X53934108Y-32500500D01*
X54434108Y-32500500D01*
X54934108Y-32500500D01*
X55434108Y-32500500D01*
X55934108Y-32500500D01*
X56434108Y-32500500D01*
X56934108Y-32500500D01*
X57434108Y-32500500D01*
X57934108Y-32500500D01*
X58434108Y-32500500D01*
X58934108Y-32500500D01*
X59434108Y-32500500D01*
X59934108Y-32500500D01*
X60386830Y-32500500D01*
X60453869Y-32520185D01*
X60499624Y-32572989D01*
X60506603Y-32592402D01*
X60514205Y-32620771D01*
X60533608Y-32693187D01*
X60566554Y-32750250D01*
X60599500Y-32807314D01*
X60692686Y-32900500D01*
X60775154Y-32948113D01*
X60823369Y-32998681D01*
X60836591Y-33067288D01*
X60810623Y-33132152D01*
X60753709Y-33172680D01*
X60713153Y-33179500D01*
X59435143Y-33179500D01*
X59435117Y-33179502D01*
X59410012Y-33182413D01*
X59410008Y-33182415D01*
X59307235Y-33227793D01*
X59227794Y-33307234D01*
X59182415Y-33410006D01*
X59182415Y-33410008D01*
X59179500Y-33435131D01*
X59179500Y-35324856D01*
X59179502Y-35324882D01*
X59182413Y-35349987D01*
X59182415Y-35349991D01*
X59227793Y-35452764D01*
X59227794Y-35452765D01*
X59307235Y-35532206D01*
X59410009Y-35577585D01*
X59435135Y-35580500D01*
X59848092Y-35580499D01*
X59915129Y-35600183D01*
X59960884Y-35652987D01*
X59970828Y-35722146D01*
X59941803Y-35785702D01*
X59904385Y-35814983D01*
X59750805Y-35893236D01*
X59694551Y-35934108D01*
X59597927Y-36004310D01*
X59597925Y-36004312D01*
X59597924Y-36004312D01*
X59464312Y-36137924D01*
X59464312Y-36137925D01*
X59464310Y-36137927D01*
X59429206Y-36186243D01*
X59353240Y-36290800D01*
X59267454Y-36459163D01*
X59209059Y-36638881D01*
X59179500Y-36825513D01*
X59179500Y-37014486D01*
X59209059Y-37201118D01*
X59267454Y-37380836D01*
X59294598Y-37434108D01*
X59353240Y-37549199D01*
X59464310Y-37702073D01*
X59597927Y-37835690D01*
X59750801Y-37946760D01*
X59830347Y-37987290D01*
X59919163Y-38032545D01*
X59919165Y-38032545D01*
X59919168Y-38032547D01*
X60008734Y-38061649D01*
X60040803Y-38072069D01*
X60098478Y-38111507D01*
X60125676Y-38175866D01*
X60113761Y-38244712D01*
X60066516Y-38296188D01*
X60040803Y-38307931D01*
X59919163Y-38347454D01*
X59750800Y-38433240D01*
X59663579Y-38496610D01*
X59597927Y-38544310D01*
X59597925Y-38544312D01*
X59597924Y-38544312D01*
X59464312Y-38677924D01*
X59464312Y-38677925D01*
X59464310Y-38677927D01*
X59416610Y-38743579D01*
X59353240Y-38830800D01*
X59267454Y-38999163D01*
X59209059Y-39178881D01*
X59179500Y-39365513D01*
X59179500Y-39554486D01*
X59209059Y-39741118D01*
X59267454Y-39920836D01*
X59337069Y-40057461D01*
X59353240Y-40089199D01*
X59464310Y-40242073D01*
X59597927Y-40375690D01*
X59750801Y-40486760D01*
X59771505Y-40497309D01*
X59919163Y-40572545D01*
X59919165Y-40572545D01*
X59919168Y-40572547D01*
X60002120Y-40599500D01*
X60040803Y-40612069D01*
X60098478Y-40651507D01*
X60125676Y-40715866D01*
X60113761Y-40784712D01*
X60066516Y-40836188D01*
X60040803Y-40847931D01*
X59919163Y-40887454D01*
X59750800Y-40973240D01*
X59663579Y-41036610D01*
X59597927Y-41084310D01*
X59597925Y-41084312D01*
X59597924Y-41084312D01*
X59464312Y-41217924D01*
X59464312Y-41217925D01*
X59464310Y-41217927D01*
X59420914Y-41277656D01*
X59353240Y-41370800D01*
X59322162Y-41431795D01*
X59274187Y-41482591D01*
X59211677Y-41499500D01*
X31324000Y-41499500D01*
X31256961Y-41479815D01*
X31211206Y-41427011D01*
X31200000Y-41375500D01*
X31200000Y-41250000D01*
X28800001Y-41250000D01*
X28800001Y-41399986D01*
X28810494Y-41502697D01*
X28865641Y-41669119D01*
X28865643Y-41669124D01*
X28957684Y-41818345D01*
X29081655Y-41942316D01*
X29081659Y-41942319D01*
X29198124Y-42014156D01*
X29244849Y-42066104D01*
X29256070Y-42135066D01*
X29228227Y-42199148D01*
X29207953Y-42218497D01*
X29157078Y-42257077D01*
X29065638Y-42377658D01*
X29065637Y-42377660D01*
X29048550Y-42420990D01*
X29005644Y-42476134D01*
X28939736Y-42499327D01*
X28933196Y-42499500D01*
X26024500Y-42499500D01*
X25957461Y-42479815D01*
X25911706Y-42427011D01*
X25900500Y-42375500D01*
X25900500Y-41506903D01*
X25900500Y-41506898D01*
X25889877Y-41418436D01*
X25834361Y-41277658D01*
X25834360Y-41277657D01*
X25834360Y-41277656D01*
X25742922Y-41157077D01*
X25622343Y-41065639D01*
X25526192Y-41027722D01*
X25481564Y-41010123D01*
X25481563Y-41010122D01*
X25481561Y-41010122D01*
X25435926Y-41004642D01*
X25393102Y-40999500D01*
X24606898Y-40999500D01*
X24567853Y-41004188D01*
X24518438Y-41010122D01*
X24377656Y-41065639D01*
X24257077Y-41157077D01*
X24165639Y-41277656D01*
X24135665Y-41353663D01*
X24115353Y-41405171D01*
X24072449Y-41460314D01*
X24006541Y-41483507D01*
X23938556Y-41467386D01*
X23890080Y-41417070D01*
X23884648Y-41405178D01*
X23834361Y-41277658D01*
X23834360Y-41277657D01*
X23834360Y-41277656D01*
X23742922Y-41157077D01*
X23622341Y-41065638D01*
X23622339Y-41065637D01*
X23579010Y-41048550D01*
X23523866Y-41005644D01*
X23500673Y-40939736D01*
X23500500Y-40933196D01*
X23500500Y-40600013D01*
X28800000Y-40600013D01*
X28800000Y-40750000D01*
X29750000Y-40750000D01*
X30250000Y-40750000D01*
X31199999Y-40750000D01*
X31199999Y-40600028D01*
X31199998Y-40600013D01*
X31189505Y-40497302D01*
X31134358Y-40330880D01*
X31134356Y-40330875D01*
X31042315Y-40181654D01*
X30918345Y-40057684D01*
X30769124Y-39965643D01*
X30769119Y-39965641D01*
X30602697Y-39910494D01*
X30602690Y-39910493D01*
X30499986Y-39900000D01*
X30250000Y-39900000D01*
X30250000Y-40750000D01*
X29750000Y-40750000D01*
X29750000Y-39900000D01*
X29500029Y-39900000D01*
X29500012Y-39900001D01*
X29397302Y-39910494D01*
X29230880Y-39965641D01*
X29230875Y-39965643D01*
X29081654Y-40057684D01*
X28957684Y-40181654D01*
X28865643Y-40330875D01*
X28865641Y-40330880D01*
X28810494Y-40497302D01*
X28810493Y-40497309D01*
X28800000Y-40600013D01*
X23500500Y-40600013D01*
X23500500Y-29300001D01*
X48827704Y-29300001D01*
X48827899Y-29302486D01*
X48873718Y-29460198D01*
X48957314Y-29601552D01*
X48957321Y-29601561D01*
X49073438Y-29717678D01*
X49073447Y-29717685D01*
X49214803Y-29801282D01*
X49214806Y-29801283D01*
X49372504Y-29847099D01*
X49372510Y-29847100D01*
X49409350Y-29849999D01*
X49409366Y-29850000D01*
X49812500Y-29850000D01*
X49812500Y-29300000D01*
X48827705Y-29300000D01*
X48827704Y-29300001D01*
X23500500Y-29300001D01*
X23500500Y-22600013D01*
X31800000Y-22600013D01*
X31800000Y-22750000D01*
X32750000Y-22750000D01*
X33250000Y-22750000D01*
X34199999Y-22750000D01*
X34199999Y-22600028D01*
X34199998Y-22600013D01*
X34198410Y-22584466D01*
X34197444Y-22575013D01*
X36775000Y-22575013D01*
X36775000Y-22712500D01*
X37750000Y-22712500D01*
X38250000Y-22712500D01*
X39224999Y-22712500D01*
X39224999Y-22575028D01*
X39224998Y-22575013D01*
X39214505Y-22472302D01*
X39159358Y-22305880D01*
X39159356Y-22305875D01*
X39067315Y-22156654D01*
X38943345Y-22032684D01*
X38794124Y-21940643D01*
X38794119Y-21940641D01*
X38627697Y-21885494D01*
X38627690Y-21885493D01*
X38524986Y-21875000D01*
X38250000Y-21875000D01*
X38250000Y-22712500D01*
X37750000Y-22712500D01*
X37750000Y-21875000D01*
X37475029Y-21875000D01*
X37475012Y-21875001D01*
X37372302Y-21885494D01*
X37205880Y-21940641D01*
X37205875Y-21940643D01*
X37056654Y-22032684D01*
X36932684Y-22156654D01*
X36840643Y-22305875D01*
X36840641Y-22305880D01*
X36785494Y-22472302D01*
X36785493Y-22472309D01*
X36775000Y-22575013D01*
X34197444Y-22575013D01*
X34189505Y-22497302D01*
X34134358Y-22330880D01*
X34134356Y-22330875D01*
X34042315Y-22181654D01*
X33918345Y-22057684D01*
X33769124Y-21965643D01*
X33769119Y-21965641D01*
X33602697Y-21910494D01*
X33602690Y-21910493D01*
X33499986Y-21900000D01*
X33250000Y-21900000D01*
X33250000Y-22750000D01*
X32750000Y-22750000D01*
X32750000Y-21900000D01*
X32500029Y-21900000D01*
X32500012Y-21900001D01*
X32397302Y-21910494D01*
X32230880Y-21965641D01*
X32230875Y-21965643D01*
X32081654Y-22057684D01*
X31957684Y-22181654D01*
X31865643Y-22330875D01*
X31865641Y-22330880D01*
X31810494Y-22497302D01*
X31810493Y-22497309D01*
X31800000Y-22600013D01*
X23500500Y-22600013D01*
X23500500Y-17897648D01*
X55699500Y-17897648D01*
X55699500Y-18102351D01*
X55731522Y-18304534D01*
X55794781Y-18499223D01*
X55887715Y-18681613D01*
X56008028Y-18847213D01*
X56152786Y-18991971D01*
X56307749Y-19104556D01*
X56318390Y-19112287D01*
X56411147Y-19159549D01*
X56500776Y-19205218D01*
X56500778Y-19205218D01*
X56500781Y-19205220D01*
X56563560Y-19225618D01*
X56695465Y-19268477D01*
X56796557Y-19284488D01*
X56897648Y-19300500D01*
X56897649Y-19300500D01*
X57102351Y-19300500D01*
X57102352Y-19300500D01*
X57304534Y-19268477D01*
X57499219Y-19205220D01*
X57681610Y-19112287D01*
X57822228Y-19010123D01*
X57847213Y-18991971D01*
X57847215Y-18991968D01*
X57847219Y-18991966D01*
X57991966Y-18847219D01*
X57991968Y-18847215D01*
X57991971Y-18847213D01*
X58044732Y-18774590D01*
X58112287Y-18681610D01*
X58163899Y-18580315D01*
X58170070Y-18568205D01*
X58218045Y-18517409D01*
X58280555Y-18500500D01*
X62219445Y-18500500D01*
X62286484Y-18520185D01*
X62329930Y-18568205D01*
X62387715Y-18681613D01*
X62508028Y-18847213D01*
X62652786Y-18991971D01*
X62807749Y-19104556D01*
X62818390Y-19112287D01*
X62911147Y-19159549D01*
X63000776Y-19205218D01*
X63000778Y-19205218D01*
X63000781Y-19205220D01*
X63063560Y-19225618D01*
X63195465Y-19268477D01*
X63296557Y-19284488D01*
X63397648Y-19300500D01*
X63397649Y-19300500D01*
X63602351Y-19300500D01*
X63602352Y-19300500D01*
X63804534Y-19268477D01*
X63999219Y-19205220D01*
X64181610Y-19112287D01*
X64322228Y-19010123D01*
X64347213Y-18991971D01*
X64347215Y-18991968D01*
X64347219Y-18991966D01*
X64491966Y-18847219D01*
X64491968Y-18847215D01*
X64491971Y-18847213D01*
X64544732Y-18774590D01*
X64612287Y-18681610D01*
X64705220Y-18499219D01*
X64768477Y-18304534D01*
X64800500Y-18102352D01*
X64800500Y-17897648D01*
X64768477Y-17695466D01*
X64705220Y-17500781D01*
X64705218Y-17500778D01*
X64705218Y-17500776D01*
X64636297Y-17365513D01*
X64612287Y-17318390D01*
X64604556Y-17307749D01*
X64491971Y-17152786D01*
X64347213Y-17008028D01*
X64181613Y-16887715D01*
X64181612Y-16887714D01*
X64181610Y-16887713D01*
X64124653Y-16858691D01*
X63999223Y-16794781D01*
X63804534Y-16731522D01*
X63629995Y-16703878D01*
X63602352Y-16699500D01*
X63397648Y-16699500D01*
X63373329Y-16703351D01*
X63195465Y-16731522D01*
X63000776Y-16794781D01*
X62818386Y-16887715D01*
X62652786Y-17008028D01*
X62508028Y-17152786D01*
X62387715Y-17318386D01*
X62329930Y-17431795D01*
X62281955Y-17482591D01*
X62219445Y-17499500D01*
X58280555Y-17499500D01*
X58213516Y-17479815D01*
X58170070Y-17431795D01*
X58128092Y-17349410D01*
X58112287Y-17318390D01*
X58104556Y-17307749D01*
X57991971Y-17152786D01*
X57847213Y-17008028D01*
X57681613Y-16887715D01*
X57681612Y-16887714D01*
X57681610Y-16887713D01*
X57624653Y-16858691D01*
X57499223Y-16794781D01*
X57304534Y-16731522D01*
X57129995Y-16703878D01*
X57102352Y-16699500D01*
X56897648Y-16699500D01*
X56873329Y-16703351D01*
X56695465Y-16731522D01*
X56500776Y-16794781D01*
X56318386Y-16887715D01*
X56152786Y-17008028D01*
X56008028Y-17152786D01*
X55887715Y-17318386D01*
X55794781Y-17500776D01*
X55731522Y-17695465D01*
X55699500Y-17897648D01*
X23500500Y-17897648D01*
X23500500Y-11934110D01*
X23500500Y-11934108D01*
X23466392Y-11806814D01*
X23400500Y-11692686D01*
X23307314Y-11599500D01*
X23248662Y-11565637D01*
X23193187Y-11533608D01*
X23129539Y-11516554D01*
X23065892Y-11499500D01*
X23065891Y-11499500D01*
X12624500Y-11499500D01*
X12557461Y-11479815D01*
X12511706Y-11427011D01*
X12500500Y-11375500D01*
X12500500Y-11290333D01*
X12520185Y-11223294D01*
X12572989Y-11177539D01*
X12586180Y-11172402D01*
X12614379Y-11163241D01*
X12838845Y-11048870D01*
X13042656Y-10900793D01*
X13220793Y-10722656D01*
X13368870Y-10518845D01*
X13483241Y-10294379D01*
X13561090Y-10054785D01*
X13600500Y-9805962D01*
X13600500Y-9554038D01*
X13561090Y-9305215D01*
X13483241Y-9065621D01*
X13483239Y-9065618D01*
X13483239Y-9065616D01*
X13412952Y-8927671D01*
X13397085Y-8896530D01*
X13386340Y-8875441D01*
X20859500Y-8875441D01*
X20859500Y-9124558D01*
X20859501Y-9124575D01*
X20885023Y-9318438D01*
X20892018Y-9371565D01*
X20901487Y-9406903D01*
X20956498Y-9612207D01*
X21051830Y-9842361D01*
X21051837Y-9842376D01*
X21176400Y-10058126D01*
X21328060Y-10255774D01*
X21328066Y-10255781D01*
X21504218Y-10431933D01*
X21504225Y-10431939D01*
X21701873Y-10583599D01*
X21917623Y-10708162D01*
X21917638Y-10708169D01*
X22001540Y-10742922D01*
X22147793Y-10803502D01*
X22388435Y-10867982D01*
X22635435Y-10900500D01*
X22635442Y-10900500D01*
X22884558Y-10900500D01*
X22884565Y-10900500D01*
X23131565Y-10867982D01*
X23372207Y-10803502D01*
X23602373Y-10708164D01*
X23818127Y-10583599D01*
X24015776Y-10431938D01*
X24191938Y-10255776D01*
X24343599Y-10058127D01*
X24468164Y-9842373D01*
X24563502Y-9612207D01*
X24627982Y-9371565D01*
X24660500Y-9124565D01*
X24660500Y-8875435D01*
X24627982Y-8628435D01*
X24563502Y-8387793D01*
X24488149Y-8205875D01*
X24468169Y-8157638D01*
X24468162Y-8157623D01*
X24343599Y-7941873D01*
X24191939Y-7744225D01*
X24191933Y-7744218D01*
X24054613Y-7606898D01*
X36099500Y-7606898D01*
X36099500Y-10393102D01*
X36104163Y-10431933D01*
X36110122Y-10481561D01*
X36165639Y-10622343D01*
X36257077Y-10742922D01*
X36377656Y-10834360D01*
X36377657Y-10834360D01*
X36377658Y-10834361D01*
X36518436Y-10889877D01*
X36606898Y-10900500D01*
X36606903Y-10900500D01*
X39393097Y-10900500D01*
X39393102Y-10900500D01*
X39481564Y-10889877D01*
X39622342Y-10834361D01*
X39742922Y-10742922D01*
X39834361Y-10622342D01*
X39889877Y-10481564D01*
X39900500Y-10393102D01*
X39900500Y-10174500D01*
X39920185Y-10107461D01*
X39972989Y-10061706D01*
X40024500Y-10050500D01*
X44825500Y-10050500D01*
X44892539Y-10070185D01*
X44938294Y-10122989D01*
X44949500Y-10174500D01*
X44949500Y-11413479D01*
X44929815Y-11480518D01*
X44877011Y-11526273D01*
X44870990Y-11528833D01*
X44777661Y-11565637D01*
X44777655Y-11565640D01*
X44657077Y-11657077D01*
X44565640Y-11777655D01*
X44565639Y-11777658D01*
X44520337Y-11892539D01*
X44510124Y-11918437D01*
X44510123Y-11918438D01*
X44499500Y-12006900D01*
X44499500Y-13993091D01*
X44510123Y-14081562D01*
X44565639Y-14222342D01*
X44565640Y-14222344D01*
X44657077Y-14342922D01*
X44712849Y-14385215D01*
X44777658Y-14434361D01*
X44918436Y-14489876D01*
X45006901Y-14500500D01*
X46993098Y-14500499D01*
X47081564Y-14489876D01*
X47222342Y-14434361D01*
X47342922Y-14342922D01*
X47434361Y-14222342D01*
X47471166Y-14129009D01*
X47514071Y-14073867D01*
X47579978Y-14050673D01*
X47586520Y-14050500D01*
X54103466Y-14050500D01*
X54103467Y-14050499D01*
X54306420Y-14010130D01*
X54497598Y-13930941D01*
X54669655Y-13815977D01*
X54815977Y-13669655D01*
X54930941Y-13497598D01*
X55010130Y-13306420D01*
X55050500Y-13103465D01*
X55050500Y-11174500D01*
X55070185Y-11107461D01*
X55122989Y-11061706D01*
X55174500Y-11050500D01*
X58788000Y-11050500D01*
X58855039Y-11070185D01*
X58900794Y-11122989D01*
X58912000Y-11174500D01*
X58912000Y-12103469D01*
X58952368Y-12306412D01*
X58952370Y-12306420D01*
X59018632Y-12466391D01*
X59031559Y-12497598D01*
X59033498Y-12500500D01*
X59146524Y-12669657D01*
X59292842Y-12815975D01*
X59292845Y-12815977D01*
X59464902Y-12930941D01*
X59656080Y-13010130D01*
X59859030Y-13050499D01*
X59859034Y-13050500D01*
X59859035Y-13050500D01*
X60065965Y-13050500D01*
X67825500Y-13050500D01*
X67892539Y-13070185D01*
X67938294Y-13122989D01*
X67949500Y-13174500D01*
X67949500Y-20103469D01*
X67989868Y-20306412D01*
X67989870Y-20306420D01*
X68069058Y-20497597D01*
X68090352Y-20529467D01*
X68106894Y-20574183D01*
X68108176Y-20573860D01*
X68110124Y-20581570D01*
X68165637Y-20722339D01*
X68165638Y-20722341D01*
X68257077Y-20842922D01*
X68377656Y-20934360D01*
X68377657Y-20934360D01*
X68377658Y-20934361D01*
X68518436Y-20989877D01*
X68606898Y-21000500D01*
X68645666Y-21000500D01*
X68687607Y-21008842D01*
X68687753Y-21008362D01*
X68692628Y-21009840D01*
X68693116Y-21009938D01*
X68693580Y-21010130D01*
X68828334Y-21036934D01*
X68896530Y-21050499D01*
X68896534Y-21050500D01*
X68896535Y-21050500D01*
X69103466Y-21050500D01*
X69103467Y-21050499D01*
X69306420Y-21010130D01*
X69306884Y-21009938D01*
X69307371Y-21009840D01*
X69312247Y-21008362D01*
X69312392Y-21008842D01*
X69354334Y-21000500D01*
X69393097Y-21000500D01*
X69393102Y-21000500D01*
X69481564Y-20989877D01*
X69622342Y-20934361D01*
X69742922Y-20842922D01*
X69834361Y-20722342D01*
X69884646Y-20594826D01*
X69927551Y-20539685D01*
X69993459Y-20516492D01*
X70061443Y-20532612D01*
X70109920Y-20582929D01*
X70115348Y-20594814D01*
X70127055Y-20624500D01*
X70165639Y-20722343D01*
X70257077Y-20842922D01*
X70377656Y-20934360D01*
X70377657Y-20934360D01*
X70377658Y-20934361D01*
X70518436Y-20989877D01*
X70606898Y-21000500D01*
X70606903Y-21000500D01*
X71393097Y-21000500D01*
X71393102Y-21000500D01*
X71481564Y-20989877D01*
X71622342Y-20934361D01*
X71742922Y-20842922D01*
X71834361Y-20722342D01*
X71851514Y-20678845D01*
X71890885Y-20579010D01*
X71933791Y-20523866D01*
X71999698Y-20500673D01*
X72006239Y-20500500D01*
X72065890Y-20500500D01*
X72065892Y-20500500D01*
X72193186Y-20466392D01*
X72307314Y-20400500D01*
X72400500Y-20307314D01*
X72466392Y-20193186D01*
X72500500Y-20065892D01*
X72500500Y-19541518D01*
X72520185Y-19474479D01*
X72536823Y-19453833D01*
X72544114Y-19446542D01*
X72620775Y-19331811D01*
X72673580Y-19204328D01*
X72691889Y-19112284D01*
X72700500Y-19068995D01*
X72700500Y-18931004D01*
X72673581Y-18795677D01*
X72673580Y-18795676D01*
X72673580Y-18795672D01*
X72651684Y-18742809D01*
X72620778Y-18668195D01*
X72620771Y-18668182D01*
X72544114Y-18553458D01*
X72544111Y-18553454D01*
X72446545Y-18455888D01*
X72446541Y-18455885D01*
X72331817Y-18379228D01*
X72331804Y-18379221D01*
X72204332Y-18326421D01*
X72204322Y-18326418D01*
X72068995Y-18299500D01*
X72068993Y-18299500D01*
X71931007Y-18299500D01*
X71931005Y-18299500D01*
X71795677Y-18326418D01*
X71795667Y-18326421D01*
X71668195Y-18379221D01*
X71668182Y-18379228D01*
X71553458Y-18455885D01*
X71553454Y-18455888D01*
X71455888Y-18553454D01*
X71455885Y-18553458D01*
X71379228Y-18668182D01*
X71379221Y-18668195D01*
X71326421Y-18795667D01*
X71326418Y-18795679D01*
X71305729Y-18899691D01*
X71273344Y-18961602D01*
X71212629Y-18996176D01*
X71184112Y-18999500D01*
X70606898Y-18999500D01*
X70567853Y-19004188D01*
X70518438Y-19010122D01*
X70377656Y-19065639D01*
X70250319Y-19162203D01*
X70248307Y-19159549D01*
X70200858Y-19185459D01*
X70131166Y-19180475D01*
X70075233Y-19138603D01*
X70050816Y-19073139D01*
X70050500Y-19064293D01*
X70050500Y-13174500D01*
X70070185Y-13107461D01*
X70122989Y-13061706D01*
X70174500Y-13050500D01*
X72874167Y-13050500D01*
X72941206Y-13070185D01*
X72961848Y-13086819D01*
X72977235Y-13102206D01*
X73080009Y-13147585D01*
X73105135Y-13150500D01*
X73236923Y-13150499D01*
X73303960Y-13170183D01*
X73349715Y-13222987D01*
X73359659Y-13292145D01*
X73330635Y-13355701D01*
X73296387Y-13382507D01*
X73296590Y-13382838D01*
X73293715Y-13384599D01*
X73293239Y-13384972D01*
X73292451Y-13385373D01*
X73292440Y-13385380D01*
X73238282Y-13424727D01*
X73238282Y-13424728D01*
X73870591Y-14057037D01*
X73807007Y-14074075D01*
X73692993Y-14139901D01*
X73599901Y-14232993D01*
X73534075Y-14347007D01*
X73517037Y-14410591D01*
X72884728Y-13778282D01*
X72884727Y-13778282D01*
X72845380Y-13832439D01*
X72748904Y-14021782D01*
X72683242Y-14223869D01*
X72683242Y-14223872D01*
X72650000Y-14433753D01*
X72650000Y-14646246D01*
X72683242Y-14856127D01*
X72683242Y-14856130D01*
X72748904Y-15058217D01*
X72845375Y-15247550D01*
X72884728Y-15301716D01*
X73517037Y-14669408D01*
X73534075Y-14732993D01*
X73599901Y-14847007D01*
X73692993Y-14940099D01*
X73807007Y-15005925D01*
X73870590Y-15022962D01*
X73238282Y-15655269D01*
X73238282Y-15655270D01*
X73292449Y-15694624D01*
X73481780Y-15791094D01*
X73510705Y-15800492D01*
X73568381Y-15839929D01*
X73595580Y-15904287D01*
X73583667Y-15973134D01*
X73536424Y-16024610D01*
X73528685Y-16028908D01*
X73397004Y-16096004D01*
X73250505Y-16202441D01*
X73250500Y-16202445D01*
X73122445Y-16330500D01*
X73122441Y-16330505D01*
X73016006Y-16477002D01*
X72933788Y-16638360D01*
X72933787Y-16638363D01*
X72877829Y-16810589D01*
X72849500Y-16989448D01*
X72849500Y-17170551D01*
X72877829Y-17349410D01*
X72926595Y-17499500D01*
X72933789Y-17521639D01*
X72935984Y-17525946D01*
X72949500Y-17582242D01*
X72949500Y-27103469D01*
X72984149Y-27277660D01*
X72989870Y-27306420D01*
X73069059Y-27497598D01*
X73078486Y-27511706D01*
X73184024Y-27669657D01*
X73330342Y-27815975D01*
X73330345Y-27815977D01*
X73502402Y-27930941D01*
X73693580Y-28010130D01*
X73896530Y-28050499D01*
X73896534Y-28050500D01*
X73896535Y-28050500D01*
X74103465Y-28050500D01*
X85874167Y-28050500D01*
X85941206Y-28070185D01*
X85961848Y-28086819D01*
X85977235Y-28102206D01*
X86080009Y-28147585D01*
X86105135Y-28150500D01*
X87894864Y-28150499D01*
X87894879Y-28150497D01*
X87894882Y-28150497D01*
X87919987Y-28147586D01*
X87919988Y-28147585D01*
X87919991Y-28147585D01*
X88022765Y-28102206D01*
X88102206Y-28022765D01*
X88147585Y-27919991D01*
X88150500Y-27894865D01*
X88150499Y-27157125D01*
X88170183Y-27090089D01*
X88222987Y-27044334D01*
X88292146Y-27034390D01*
X88355702Y-27063415D01*
X88393476Y-27122193D01*
X88396972Y-27137729D01*
X88417829Y-27269410D01*
X88467079Y-27420990D01*
X88473789Y-27441639D01*
X88474248Y-27442539D01*
X88475984Y-27445946D01*
X88489500Y-27502242D01*
X88489500Y-30665500D01*
X88469815Y-30732539D01*
X88417011Y-30778294D01*
X88365500Y-30789500D01*
X87977076Y-30789500D01*
X87910037Y-30769815D01*
X87904191Y-30765818D01*
X87734025Y-30642187D01*
X87734024Y-30642186D01*
X87734022Y-30642185D01*
X87663783Y-30606396D01*
X87537606Y-30542104D01*
X87537603Y-30542103D01*
X87327952Y-30473985D01*
X87154683Y-30446542D01*
X87110222Y-30439500D01*
X86889778Y-30439500D01*
X86845323Y-30446541D01*
X86672047Y-30473985D01*
X86462396Y-30542103D01*
X86462393Y-30542104D01*
X86265974Y-30642187D01*
X86087641Y-30771752D01*
X86087636Y-30771756D01*
X85931756Y-30927636D01*
X85931752Y-30927641D01*
X85802187Y-31105974D01*
X85702104Y-31302393D01*
X85702103Y-31302396D01*
X85633985Y-31512047D01*
X85599500Y-31729778D01*
X85599500Y-31950221D01*
X85633985Y-32167952D01*
X85702103Y-32377603D01*
X85702104Y-32377606D01*
X85764214Y-32499500D01*
X85786944Y-32544111D01*
X85802187Y-32574025D01*
X85931752Y-32752358D01*
X85931756Y-32752363D01*
X86087636Y-32908243D01*
X86087641Y-32908247D01*
X86202376Y-32991606D01*
X86265978Y-33037815D01*
X86385900Y-33098919D01*
X86462393Y-33137895D01*
X86462396Y-33137896D01*
X86553116Y-33167372D01*
X86672049Y-33206015D01*
X86889778Y-33240500D01*
X86889779Y-33240500D01*
X87110221Y-33240500D01*
X87110222Y-33240500D01*
X87327951Y-33206015D01*
X87537606Y-33137895D01*
X87734022Y-33037815D01*
X87804398Y-32986684D01*
X87904191Y-32914182D01*
X87969998Y-32890702D01*
X87977076Y-32890500D01*
X89643466Y-32890500D01*
X89643467Y-32890499D01*
X89846420Y-32850130D01*
X90037598Y-32770941D01*
X90209655Y-32655977D01*
X90355977Y-32509655D01*
X90470941Y-32337598D01*
X90550130Y-32146420D01*
X90590500Y-31943465D01*
X90590500Y-27502242D01*
X90604016Y-27445946D01*
X90606211Y-27441639D01*
X90662171Y-27269409D01*
X90676765Y-27177259D01*
X90690500Y-27090551D01*
X90690500Y-26909448D01*
X90674019Y-26805397D01*
X90662171Y-26730591D01*
X90606211Y-26558361D01*
X90606211Y-26558360D01*
X90547196Y-26442539D01*
X90523996Y-26397006D01*
X90495131Y-26357276D01*
X90417558Y-26250505D01*
X90417554Y-26250500D01*
X90289499Y-26122445D01*
X90289494Y-26122441D01*
X90142997Y-26016006D01*
X90142996Y-26016005D01*
X90142994Y-26016004D01*
X90066906Y-25977235D01*
X89981639Y-25933788D01*
X89981636Y-25933787D01*
X89809410Y-25877829D01*
X89630551Y-25849500D01*
X89630546Y-25849500D01*
X89449454Y-25849500D01*
X89449449Y-25849500D01*
X89270589Y-25877829D01*
X89098363Y-25933787D01*
X89098360Y-25933788D01*
X88937002Y-26016006D01*
X88790505Y-26122441D01*
X88790500Y-26122445D01*
X88662445Y-26250500D01*
X88662441Y-26250505D01*
X88556006Y-26397002D01*
X88473788Y-26558360D01*
X88473787Y-26558363D01*
X88417829Y-26730589D01*
X88396972Y-26862271D01*
X88367042Y-26925405D01*
X88307731Y-26962336D01*
X88237868Y-26961338D01*
X88179636Y-26922728D01*
X88151522Y-26858764D01*
X88150499Y-26842872D01*
X88150499Y-26105143D01*
X88150499Y-26105136D01*
X88150497Y-26105117D01*
X88147586Y-26080012D01*
X88147585Y-26080010D01*
X88147585Y-26080009D01*
X88102206Y-25977235D01*
X88022765Y-25897794D01*
X88004835Y-25889877D01*
X87919992Y-25852415D01*
X87894865Y-25849500D01*
X86105143Y-25849500D01*
X86105117Y-25849502D01*
X86080012Y-25852413D01*
X86080008Y-25852415D01*
X85977235Y-25897793D01*
X85977234Y-25897794D01*
X85961848Y-25913181D01*
X85900525Y-25946666D01*
X85874167Y-25949500D01*
X75174500Y-25949500D01*
X75107461Y-25929815D01*
X75061706Y-25877011D01*
X75050500Y-25825500D01*
X75050500Y-19052155D01*
X76600000Y-19052155D01*
X76600000Y-19750000D01*
X77624722Y-19750000D01*
X77580667Y-19826306D01*
X77550000Y-19940756D01*
X77550000Y-20059244D01*
X77580667Y-20173694D01*
X77624722Y-20250000D01*
X76600000Y-20250000D01*
X76600000Y-20947844D01*
X76606401Y-21007372D01*
X76606403Y-21007379D01*
X76656645Y-21142086D01*
X76656649Y-21142093D01*
X76742809Y-21257187D01*
X76742812Y-21257190D01*
X76857906Y-21343350D01*
X76857913Y-21343354D01*
X76992620Y-21393596D01*
X76992627Y-21393598D01*
X77052155Y-21399999D01*
X77052172Y-21400000D01*
X77750000Y-21400000D01*
X77750000Y-20375277D01*
X77826306Y-20419333D01*
X77940756Y-20450000D01*
X78059244Y-20450000D01*
X78173694Y-20419333D01*
X78250000Y-20375277D01*
X78250000Y-21400000D01*
X78947828Y-21400000D01*
X78947844Y-21399999D01*
X79007372Y-21393598D01*
X79007379Y-21393596D01*
X79142086Y-21343354D01*
X79142093Y-21343350D01*
X79257187Y-21257190D01*
X79257190Y-21257187D01*
X79343350Y-21142093D01*
X79343354Y-21142086D01*
X79393596Y-21007379D01*
X79393598Y-21007372D01*
X79399999Y-20947844D01*
X79400000Y-20947827D01*
X79400000Y-20250000D01*
X78375278Y-20250000D01*
X78419333Y-20173694D01*
X78450000Y-20059244D01*
X78450000Y-19940756D01*
X78419333Y-19826306D01*
X78375278Y-19750000D01*
X79400000Y-19750000D01*
X79400000Y-19052172D01*
X79399999Y-19052155D01*
X79393598Y-18992627D01*
X79393596Y-18992620D01*
X79343354Y-18857913D01*
X79343350Y-18857906D01*
X79257190Y-18742812D01*
X79257187Y-18742809D01*
X79142093Y-18656649D01*
X79142086Y-18656645D01*
X79007379Y-18606403D01*
X79007372Y-18606401D01*
X78947844Y-18600000D01*
X78854969Y-18600000D01*
X78787930Y-18580315D01*
X78742175Y-18527511D01*
X78732231Y-18458353D01*
X78761256Y-18394797D01*
X78778481Y-18378987D01*
X78778368Y-18378854D01*
X78782062Y-18375697D01*
X78782073Y-18375690D01*
X78915690Y-18242073D01*
X79026760Y-18089199D01*
X79112547Y-17920832D01*
X79170940Y-17741118D01*
X79200500Y-17554486D01*
X79200500Y-17365513D01*
X79170940Y-17178881D01*
X79143846Y-17095497D01*
X79112547Y-16999168D01*
X79112545Y-16999165D01*
X79112545Y-16999163D01*
X79026759Y-16830800D01*
X78915690Y-16677927D01*
X78782073Y-16544310D01*
X78629199Y-16433240D01*
X78460836Y-16347454D01*
X78281118Y-16289059D01*
X78094486Y-16259500D01*
X78094481Y-16259500D01*
X77905519Y-16259500D01*
X77905514Y-16259500D01*
X77718881Y-16289059D01*
X77539163Y-16347454D01*
X77370800Y-16433240D01*
X77283579Y-16496610D01*
X77217927Y-16544310D01*
X77217925Y-16544312D01*
X77217924Y-16544312D01*
X77084312Y-16677924D01*
X77084312Y-16677925D01*
X77084310Y-16677927D01*
X77045371Y-16731522D01*
X76973240Y-16830800D01*
X76887454Y-16999163D01*
X76829059Y-17178881D01*
X76799500Y-17365513D01*
X76799500Y-17554486D01*
X76829059Y-17741118D01*
X76887454Y-17920836D01*
X76973240Y-18089199D01*
X77084310Y-18242073D01*
X77217927Y-18375690D01*
X77217930Y-18375692D01*
X77221632Y-18378854D01*
X77220964Y-18379634D01*
X77260582Y-18431011D01*
X77266561Y-18500624D01*
X77233956Y-18562420D01*
X77173117Y-18596777D01*
X77145031Y-18600000D01*
X77052155Y-18600000D01*
X76992627Y-18606401D01*
X76992620Y-18606403D01*
X76857913Y-18656645D01*
X76857906Y-18656649D01*
X76742812Y-18742809D01*
X76742809Y-18742812D01*
X76656649Y-18857906D01*
X76656645Y-18857913D01*
X76606403Y-18992620D01*
X76606401Y-18992627D01*
X76600000Y-19052155D01*
X75050500Y-19052155D01*
X75050500Y-17582242D01*
X75064016Y-17525946D01*
X75066211Y-17521639D01*
X75122171Y-17349409D01*
X75149180Y-17178882D01*
X75150500Y-17170551D01*
X75150500Y-16989448D01*
X75134019Y-16885397D01*
X75122171Y-16810591D01*
X75066211Y-16638361D01*
X75066211Y-16638360D01*
X75018289Y-16544310D01*
X74983996Y-16477006D01*
X74899350Y-16360500D01*
X74877558Y-16330505D01*
X74877554Y-16330500D01*
X74749499Y-16202445D01*
X74749494Y-16202441D01*
X74602995Y-16096004D01*
X74471314Y-16028908D01*
X74420519Y-15980934D01*
X74403724Y-15913113D01*
X74426262Y-15846978D01*
X74480977Y-15803527D01*
X74489295Y-15800492D01*
X74518217Y-15791095D01*
X74707554Y-15694622D01*
X74761716Y-15655270D01*
X74761717Y-15655270D01*
X74129408Y-15022962D01*
X74192993Y-15005925D01*
X74307007Y-14940099D01*
X74400099Y-14847007D01*
X74465925Y-14732993D01*
X74482962Y-14669408D01*
X75115270Y-15301717D01*
X75115270Y-15301716D01*
X75154622Y-15247554D01*
X75251095Y-15058217D01*
X75316757Y-14856130D01*
X75316757Y-14856127D01*
X75350000Y-14646246D01*
X75350000Y-14433753D01*
X75316757Y-14223872D01*
X75316757Y-14223869D01*
X75251095Y-14021782D01*
X75154624Y-13832449D01*
X75115270Y-13778282D01*
X75115269Y-13778282D01*
X74482962Y-14410590D01*
X74465925Y-14347007D01*
X74400099Y-14232993D01*
X74307007Y-14139901D01*
X74192993Y-14074075D01*
X74129409Y-14057037D01*
X74761716Y-13424728D01*
X74707550Y-13385375D01*
X74706786Y-13384986D01*
X74706546Y-13384759D01*
X74703396Y-13382829D01*
X74703801Y-13382167D01*
X74655988Y-13337013D01*
X74639191Y-13269192D01*
X74661726Y-13203057D01*
X74716440Y-13159604D01*
X74763076Y-13150499D01*
X74894864Y-13150499D01*
X74894879Y-13150497D01*
X74894882Y-13150497D01*
X74919987Y-13147586D01*
X74919988Y-13147585D01*
X74919991Y-13147585D01*
X75022765Y-13102206D01*
X75102206Y-13022765D01*
X75147585Y-12919991D01*
X75150500Y-12894865D01*
X75150499Y-11105136D01*
X75150497Y-11105117D01*
X75147586Y-11080012D01*
X75147585Y-11080010D01*
X75147585Y-11080009D01*
X75102206Y-10977235D01*
X75022765Y-10897794D01*
X74975696Y-10877011D01*
X74919992Y-10852415D01*
X74894865Y-10849500D01*
X73105143Y-10849500D01*
X73105117Y-10849502D01*
X73080012Y-10852413D01*
X73080008Y-10852415D01*
X72977235Y-10897793D01*
X72977234Y-10897794D01*
X72961848Y-10913181D01*
X72900525Y-10946666D01*
X72874167Y-10949500D01*
X61137000Y-10949500D01*
X61069961Y-10929815D01*
X61024206Y-10877011D01*
X61013000Y-10825500D01*
X61013000Y-10148023D01*
X61032685Y-10080984D01*
X61085489Y-10035229D01*
X61154647Y-10025285D01*
X61218203Y-10054310D01*
X61224681Y-10060342D01*
X61231654Y-10067315D01*
X61380875Y-10159356D01*
X61380880Y-10159358D01*
X61547302Y-10214505D01*
X61547309Y-10214506D01*
X61650019Y-10224999D01*
X61787499Y-10224999D01*
X62287500Y-10224999D01*
X62424972Y-10224999D01*
X62424986Y-10224998D01*
X62527697Y-10214505D01*
X62694119Y-10159358D01*
X62694124Y-10159356D01*
X62843345Y-10067315D01*
X62967315Y-9943345D01*
X63059356Y-9794124D01*
X63059358Y-9794119D01*
X63114505Y-9627697D01*
X63114506Y-9627690D01*
X63124999Y-9524986D01*
X63125000Y-9524973D01*
X63125000Y-9250000D01*
X62287500Y-9250000D01*
X62287500Y-10224999D01*
X61787499Y-10224999D01*
X61787500Y-10224998D01*
X61787500Y-8750000D01*
X62287500Y-8750000D01*
X63124999Y-8750000D01*
X63124999Y-8475028D01*
X63124998Y-8475013D01*
X63114505Y-8372302D01*
X63059358Y-8205880D01*
X63059356Y-8205875D01*
X62967315Y-8056654D01*
X62843345Y-7932684D01*
X62694124Y-7840643D01*
X62694119Y-7840641D01*
X62527697Y-7785494D01*
X62527690Y-7785493D01*
X62424986Y-7775000D01*
X62287500Y-7775000D01*
X62287500Y-8750000D01*
X61787500Y-8750000D01*
X61787500Y-7775000D01*
X61650027Y-7775000D01*
X61650012Y-7775001D01*
X61547302Y-7785494D01*
X61380880Y-7840641D01*
X61380875Y-7840643D01*
X61231654Y-7932684D01*
X61107684Y-8056654D01*
X61015643Y-8205875D01*
X61015640Y-8205884D01*
X61008391Y-8227759D01*
X60968618Y-8285203D01*
X60904102Y-8312025D01*
X60835326Y-8299709D01*
X60790834Y-8258393D01*
X60789486Y-8259416D01*
X60692922Y-8132077D01*
X60572343Y-8040639D01*
X60431561Y-7985122D01*
X60385926Y-7979642D01*
X60343102Y-7974500D01*
X60343097Y-7974500D01*
X60203860Y-7974500D01*
X60179669Y-7972117D01*
X60129094Y-7962057D01*
X60065966Y-7949500D01*
X60065965Y-7949500D01*
X59859035Y-7949500D01*
X59859034Y-7949500D01*
X59795905Y-7962057D01*
X59745330Y-7972117D01*
X59721140Y-7974500D01*
X59581898Y-7974500D01*
X59542853Y-7979188D01*
X59493438Y-7985122D01*
X59352656Y-8040639D01*
X59232077Y-8132077D01*
X59140638Y-8252658D01*
X59140637Y-8252660D01*
X59085124Y-8393429D01*
X59085123Y-8393435D01*
X59084442Y-8399106D01*
X59064431Y-8453203D01*
X59031558Y-8502402D01*
X58952370Y-8693579D01*
X58952368Y-8693587D01*
X58921317Y-8849691D01*
X58888932Y-8911602D01*
X58828217Y-8946176D01*
X58799700Y-8949500D01*
X54804982Y-8949500D01*
X54773430Y-8945418D01*
X54766325Y-8943548D01*
X54681564Y-8910123D01*
X54603792Y-8900783D01*
X54595512Y-8898605D01*
X54572630Y-8884799D01*
X54548065Y-8874265D01*
X54543169Y-8867024D01*
X54535688Y-8862510D01*
X54523902Y-8838524D01*
X54508933Y-8816383D01*
X54508729Y-8807646D01*
X54504875Y-8799802D01*
X54507928Y-8773247D01*
X54507306Y-8746532D01*
X54511857Y-8739073D01*
X54512856Y-8730390D01*
X54529779Y-8709703D01*
X54543701Y-8686890D01*
X54554597Y-8679366D01*
X54557098Y-8676311D01*
X54560734Y-8675130D01*
X54570770Y-8668202D01*
X54681346Y-8611861D01*
X54681347Y-8611861D01*
X54725921Y-8579474D01*
X54046447Y-7900000D01*
X54052661Y-7900000D01*
X54154394Y-7872741D01*
X54245606Y-7820080D01*
X54320080Y-7745606D01*
X54372741Y-7654394D01*
X54400000Y-7552661D01*
X54400000Y-7546447D01*
X55079474Y-8225921D01*
X55111859Y-8181349D01*
X55204755Y-7999031D01*
X55267990Y-7804417D01*
X55300000Y-7602317D01*
X55300000Y-7397682D01*
X55267990Y-7195582D01*
X55204755Y-7000968D01*
X55111859Y-6818650D01*
X55079474Y-6774077D01*
X55079474Y-6774076D01*
X54400000Y-7453551D01*
X54400000Y-7447339D01*
X54372741Y-7345606D01*
X54320080Y-7254394D01*
X54245606Y-7179920D01*
X54154394Y-7127259D01*
X54052661Y-7100000D01*
X54046446Y-7100000D01*
X54725922Y-6420524D01*
X54725921Y-6420523D01*
X54681359Y-6388147D01*
X54681350Y-6388141D01*
X54499031Y-6295244D01*
X54304417Y-6232009D01*
X54102317Y-6200000D01*
X53897683Y-6200000D01*
X53695582Y-6232009D01*
X53500968Y-6295244D01*
X53318644Y-6388143D01*
X53274077Y-6420523D01*
X53274077Y-6420524D01*
X53953554Y-7100000D01*
X53947339Y-7100000D01*
X53845606Y-7127259D01*
X53754394Y-7179920D01*
X53679920Y-7254394D01*
X53627259Y-7345606D01*
X53600000Y-7447339D01*
X53600000Y-7453553D01*
X52920524Y-6774077D01*
X52920523Y-6774077D01*
X52888143Y-6818644D01*
X52795244Y-7000968D01*
X52732009Y-7195582D01*
X52700000Y-7397682D01*
X52700000Y-7602317D01*
X52732009Y-7804417D01*
X52795244Y-7999031D01*
X52888141Y-8181350D01*
X52888147Y-8181359D01*
X52920523Y-8225921D01*
X52920524Y-8225922D01*
X53600000Y-7546446D01*
X53600000Y-7552661D01*
X53627259Y-7654394D01*
X53679920Y-7745606D01*
X53754394Y-7820080D01*
X53845606Y-7872741D01*
X53947339Y-7900000D01*
X53953553Y-7900000D01*
X53274076Y-8579474D01*
X53318652Y-8611861D01*
X53429229Y-8668202D01*
X53480026Y-8716176D01*
X53496821Y-8783997D01*
X53474284Y-8850132D01*
X53419569Y-8893584D01*
X53387720Y-8901802D01*
X53318441Y-8910121D01*
X53177656Y-8965639D01*
X53057077Y-9057077D01*
X52965639Y-9177656D01*
X52910122Y-9318438D01*
X52904188Y-9367853D01*
X52899500Y-9406898D01*
X52899500Y-10593102D01*
X52904282Y-10632923D01*
X52910122Y-10681563D01*
X52920612Y-10708162D01*
X52940854Y-10759492D01*
X52949500Y-10804981D01*
X52949500Y-11825500D01*
X52929815Y-11892539D01*
X52877011Y-11938294D01*
X52825500Y-11949500D01*
X47586520Y-11949500D01*
X47519481Y-11929815D01*
X47473726Y-11877011D01*
X47471172Y-11871006D01*
X47434361Y-11777658D01*
X47434359Y-11777655D01*
X47342922Y-11657077D01*
X47222344Y-11565640D01*
X47222338Y-11565637D01*
X47129010Y-11528833D01*
X47073866Y-11485928D01*
X47050673Y-11420020D01*
X47050500Y-11413479D01*
X47050500Y-8896534D01*
X47050499Y-8896530D01*
X47039484Y-8841155D01*
X47010130Y-8693580D01*
X46930941Y-8502402D01*
X46815977Y-8330345D01*
X46815975Y-8330342D01*
X46669657Y-8184024D01*
X46513224Y-8079500D01*
X46497598Y-8069059D01*
X46428986Y-8040639D01*
X46306420Y-7989870D01*
X46306412Y-7989868D01*
X46103469Y-7949500D01*
X46103465Y-7949500D01*
X40024500Y-7949500D01*
X39957461Y-7929815D01*
X39911706Y-7877011D01*
X39900500Y-7825500D01*
X39900500Y-7606903D01*
X39900500Y-7606898D01*
X39889877Y-7518436D01*
X39834361Y-7377658D01*
X39834360Y-7377657D01*
X39834360Y-7377656D01*
X39742922Y-7257077D01*
X39622343Y-7165639D01*
X39481561Y-7110122D01*
X39435926Y-7104642D01*
X39393102Y-7099500D01*
X36606898Y-7099500D01*
X36567853Y-7104188D01*
X36518438Y-7110122D01*
X36377656Y-7165639D01*
X36257077Y-7257077D01*
X36165639Y-7377656D01*
X36110122Y-7518438D01*
X36106013Y-7552661D01*
X36099500Y-7606898D01*
X24054613Y-7606898D01*
X24015781Y-7568066D01*
X24015774Y-7568060D01*
X23818126Y-7416400D01*
X23602376Y-7291837D01*
X23602361Y-7291830D01*
X23372207Y-7196498D01*
X23131561Y-7132017D01*
X22884575Y-7099501D01*
X22884570Y-7099500D01*
X22884565Y-7099500D01*
X22635435Y-7099500D01*
X22635429Y-7099500D01*
X22635424Y-7099501D01*
X22388438Y-7132017D01*
X22147792Y-7196498D01*
X21917638Y-7291830D01*
X21917623Y-7291837D01*
X21701873Y-7416400D01*
X21504225Y-7568060D01*
X21504218Y-7568066D01*
X21328066Y-7744218D01*
X21328060Y-7744225D01*
X21176400Y-7941873D01*
X21051837Y-8157623D01*
X21051830Y-8157638D01*
X20956498Y-8387792D01*
X20892017Y-8628438D01*
X20859501Y-8875424D01*
X20859500Y-8875441D01*
X13386340Y-8875441D01*
X13368870Y-8841155D01*
X13300123Y-8746532D01*
X13220798Y-8637350D01*
X13220794Y-8637345D01*
X13042654Y-8459205D01*
X13042649Y-8459201D01*
X12838848Y-8311132D01*
X12838847Y-8311131D01*
X12838845Y-8311130D01*
X12768747Y-8275413D01*
X12614383Y-8196760D01*
X12374785Y-8118910D01*
X12125962Y-8079500D01*
X11874038Y-8079500D01*
X11749626Y-8099205D01*
X11625214Y-8118910D01*
X11385616Y-8196760D01*
X11161151Y-8311132D01*
X10957350Y-8459201D01*
X10957345Y-8459205D01*
X10779205Y-8637345D01*
X10779201Y-8637350D01*
X10631132Y-8841151D01*
X10516760Y-9065616D01*
X10456850Y-9250000D01*
X10438910Y-9305215D01*
X10399500Y-9554038D01*
X600000Y-9554038D01*
X600000Y-2728575D01*
X44300000Y-2728575D01*
X44300000Y-2951424D01*
X44329085Y-3172354D01*
X44329088Y-3172367D01*
X44386763Y-3387618D01*
X44472045Y-3593502D01*
X44472054Y-3593520D01*
X44583464Y-3786491D01*
X44583473Y-3786504D01*
X44634040Y-3852403D01*
X44634043Y-3852403D01*
X45435387Y-3051058D01*
X45440889Y-3071591D01*
X45519881Y-3208408D01*
X45631592Y-3320119D01*
X45768409Y-3399111D01*
X45788940Y-3404612D01*
X44987595Y-4205955D01*
X44987595Y-4205956D01*
X45053507Y-4256533D01*
X45246485Y-4367949D01*
X45246497Y-4367954D01*
X45452381Y-4453236D01*
X45667632Y-4510911D01*
X45667645Y-4510914D01*
X45888575Y-4540000D01*
X46111425Y-4540000D01*
X46332354Y-4510914D01*
X46332367Y-4510911D01*
X46547618Y-4453236D01*
X46753502Y-4367954D01*
X46753514Y-4367949D01*
X46946498Y-4256530D01*
X47012403Y-4205957D01*
X47012404Y-4205956D01*
X46211059Y-3404612D01*
X46231591Y-3399111D01*
X46368408Y-3320119D01*
X46480119Y-3208408D01*
X46559111Y-3071591D01*
X46564612Y-3051059D01*
X47365956Y-3852404D01*
X47365957Y-3852403D01*
X47416530Y-3786498D01*
X47527949Y-3593514D01*
X47527954Y-3593502D01*
X47613236Y-3387618D01*
X47670911Y-3172367D01*
X47670914Y-3172354D01*
X47700000Y-2951424D01*
X47700000Y-2728575D01*
X47670914Y-2507645D01*
X47670911Y-2507632D01*
X47613236Y-2292381D01*
X47527954Y-2086497D01*
X47527949Y-2086485D01*
X47416533Y-1893507D01*
X47365956Y-1827595D01*
X47365955Y-1827595D01*
X46564612Y-2628939D01*
X46559111Y-2608409D01*
X46480119Y-2471592D01*
X46368408Y-2359881D01*
X46231591Y-2280889D01*
X46211058Y-2275387D01*
X47012403Y-1474043D01*
X47012403Y-1474040D01*
X46946504Y-1423473D01*
X46946491Y-1423464D01*
X46753520Y-1312054D01*
X46753502Y-1312045D01*
X46547618Y-1226763D01*
X46332367Y-1169088D01*
X46332354Y-1169085D01*
X46111425Y-1140000D01*
X45888575Y-1140000D01*
X45667645Y-1169085D01*
X45667632Y-1169088D01*
X45452381Y-1226763D01*
X45246497Y-1312045D01*
X45246479Y-1312054D01*
X45053511Y-1423462D01*
X44987595Y-1474042D01*
X45788941Y-2275387D01*
X45768409Y-2280889D01*
X45631592Y-2359881D01*
X45519881Y-2471592D01*
X45440889Y-2608409D01*
X45435387Y-2628940D01*
X44634042Y-1827595D01*
X44583462Y-1893511D01*
X44472054Y-2086479D01*
X44472045Y-2086497D01*
X44386763Y-2292381D01*
X44329088Y-2507632D01*
X44329085Y-2507645D01*
X44300000Y-2728575D01*
X600000Y-2728575D01*
X600000Y-724000D01*
X619685Y-656961D01*
X672489Y-611206D01*
X724000Y-600000D01*
X93276000Y-600000D01*
X93343039Y-619685D01*
G37*
%TD.AperFunction*%
%TD*%
M02*
