%TF.GenerationSoftware,KiCad,Pcbnew,10.0.0*%
%TF.CreationDate,2026-06-13T08:48:51-05:00*%
%TF.ProjectId,b2500_cluster_pwm_dimmer,62323530-305f-4636-9c75-737465725f70,rev?*%
%TF.SameCoordinates,Original*%
%TF.FileFunction,Soldermask,Bot*%
%TF.FilePolarity,Negative*%
%FSLAX46Y46*%
G04 Gerber Fmt 4.6, Leading zero omitted, Abs format (unit mm)*
G04 Created by KiCad (PCBNEW 10.0.0) date 2026-06-13 08:48:51*
%MOMM*%
%LPD*%
G01*
G04 APERTURE LIST*
G04 Aperture macros list*
%AMRoundRect*
0 Rectangle with rounded corners*
0 $1 Rounding radius*
0 $2 $3 $4 $5 $6 $7 $8 $9 X,Y pos of 4 corners*
0 Add a 4 corners polygon primitive as box body*
4,1,4,$2,$3,$4,$5,$6,$7,$8,$9,$2,$3,0*
0 Add four circle primitives for the rounded corners*
1,1,$1+$1,$2,$3*
1,1,$1+$1,$4,$5*
1,1,$1+$1,$6,$7*
1,1,$1+$1,$8,$9*
0 Add four rect primitives between the rounded corners*
20,1,$1+$1,$2,$3,$4,$5,0*
20,1,$1+$1,$4,$5,$6,$7,0*
20,1,$1+$1,$6,$7,$8,$9,0*
20,1,$1+$1,$8,$9,$2,$3,0*%
G04 Aperture macros list end*
%ADD10RoundRect,0.249999X0.850001X-0.850001X0.850001X0.850001X-0.850001X0.850001X-0.850001X-0.850001X0*%
%ADD11C,2.200000*%
%ADD12C,1.500000*%
%ADD13RoundRect,0.250001X0.949999X-0.949999X0.949999X0.949999X-0.949999X0.949999X-0.949999X-0.949999X0*%
%ADD14C,2.400000*%
%ADD15C,6.400000*%
%ADD16R,1.700000X1.700000*%
%ADD17C,1.700000*%
%ADD18C,2.000000*%
%ADD19RoundRect,0.250000X1.350000X1.350000X-1.350000X1.350000X-1.350000X-1.350000X1.350000X-1.350000X0*%
%ADD20C,3.200000*%
%ADD21R,1.500000X1.500000*%
%ADD22R,1.800000X1.800000*%
%ADD23C,1.800000*%
%ADD24RoundRect,0.250000X1.050000X-1.050000X1.050000X1.050000X-1.050000X1.050000X-1.050000X-1.050000X0*%
%ADD25C,2.600000*%
%ADD26R,1.905000X2.000000*%
%ADD27O,1.905000X2.000000*%
%ADD28RoundRect,0.250000X0.550000X-0.550000X0.550000X0.550000X-0.550000X0.550000X-0.550000X-0.550000X0*%
%ADD29C,1.600000*%
G04 APERTURE END LIST*
D10*
%TO.C,D3*%
X87000000Y-42000000D03*
D11*
X87000000Y-31840000D03*
%TD*%
D12*
%TO.C,TP4*%
X51000000Y-23000000D03*
%TD*%
%TO.C,TP5*%
X64000000Y-58000000D03*
%TD*%
D13*
%TO.C,D2*%
X46000000Y-13000000D03*
D14*
X46000000Y-2840000D03*
%TD*%
D15*
%TO.C,REF\u002A\u002A*%
X89000000Y-8000000D03*
%TD*%
D16*
%TO.C,JP1*%
X87000000Y-27000000D03*
D17*
X89540000Y-27000000D03*
%TD*%
D15*
%TO.C,REF\u002A\u002A*%
X6000000Y-56000000D03*
%TD*%
D18*
%TO.C,SW1*%
X57000000Y-18000000D03*
X63500000Y-18000000D03*
X57000000Y-22500000D03*
X63500000Y-22500000D03*
%TD*%
D19*
%TO.C,D1*%
X38000000Y-9000000D03*
D20*
X22760000Y-9000000D03*
%TD*%
D21*
%TO.C,Q2*%
X46000000Y-47000000D03*
D12*
X48540000Y-47000000D03*
X51080000Y-47000000D03*
%TD*%
%TO.C,TP7*%
X55000000Y-58000000D03*
%TD*%
D22*
%TO.C,U1*%
X60380000Y-34380000D03*
D23*
X60380000Y-36920000D03*
X60380000Y-39460000D03*
X60380000Y-42000000D03*
X60380000Y-44540000D03*
X60380000Y-47080000D03*
X60380000Y-49620000D03*
X75620000Y-49620000D03*
X75620000Y-47080000D03*
X75620000Y-44540000D03*
X75620000Y-42000000D03*
X75620000Y-39460000D03*
X75620000Y-36920000D03*
X75620000Y-34380000D03*
%TD*%
D24*
%TO.C,J1*%
X12000000Y-30000000D03*
D25*
X12000000Y-24920000D03*
X12000000Y-19840000D03*
X12000000Y-14760000D03*
X12000000Y-9680000D03*
%TD*%
D26*
%TO.C,Q1*%
X26000000Y-53000000D03*
D27*
X28540000Y-53000000D03*
X31080000Y-53000000D03*
%TD*%
D28*
%TO.C,D5*%
X36000000Y-51000000D03*
D29*
X36000000Y-43380000D03*
%TD*%
D28*
%TO.C,C1*%
X54000000Y-10000000D03*
D29*
X54000000Y-7500000D03*
%TD*%
D12*
%TO.C,TP1*%
X46000000Y-58000000D03*
%TD*%
%TO.C,TP3*%
X73000000Y-58000000D03*
%TD*%
%TO.C,TP6*%
X16000000Y-53000000D03*
%TD*%
%TO.C,TP2*%
X82000000Y-58000000D03*
%TD*%
D22*
%TO.C,U2*%
X71190000Y-20350000D03*
D23*
X73730000Y-20350000D03*
X76270000Y-20350000D03*
X78810000Y-20350000D03*
%TD*%
M02*
