%TF.GenerationSoftware,KiCad,Pcbnew,10.0.0*%
%TF.CreationDate,2026-06-13T14:23:22-05:00*%
%TF.ProjectId,b2500_cluster_pwm_dimmer,62323530-305f-4636-9c75-737465725f70,rev?*%
%TF.SameCoordinates,Original*%
%TF.FileFunction,Other,User*%
%FSLAX46Y46*%
G04 Gerber Fmt 4.6, Leading zero omitted, Abs format (unit mm)*
G04 Created by KiCad (PCBNEW 10.0.0) date 2026-06-13 14:23:22*
%MOMM*%
%LPD*%
G01*
G04 APERTURE LIST*
%ADD10C,0.050000*%
G04 APERTURE END LIST*
%TO.C,R3*%
D10*
X24150000Y-27050000D02*
X27850000Y-27050000D01*
X27850000Y-28950000D01*
X24150000Y-28950000D01*
X24150000Y-27050000D01*
%TO.C,D2*%
X43950000Y-1390000D02*
X48050000Y-1390000D01*
X48050000Y-14450000D01*
X43950000Y-14450000D01*
X43950000Y-1390000D01*
%TO.C,REF\u002A\u002A*%
X92450000Y-8000000D02*
G75*
G02*
X85550000Y-8000000I-3450000J0D01*
G01*
X85550000Y-8000000D02*
G75*
G02*
X92450000Y-8000000I3450000J0D01*
G01*
%TO.C,J1*%
X6290000Y-6640000D02*
X17100000Y-6640000D01*
X17100000Y-33040000D01*
X6290000Y-33040000D01*
X6290000Y-6640000D01*
%TO.C,TP6*%
X17250000Y-53000000D02*
G75*
G02*
X14750000Y-53000000I-1250000J0D01*
G01*
X14750000Y-53000000D02*
G75*
G02*
X17250000Y-53000000I1250000J0D01*
G01*
%TO.C,U2*%
X72230000Y-10230000D02*
X75770000Y-10230000D01*
X75770000Y-18850000D01*
X72230000Y-18850000D01*
X72230000Y-10230000D01*
%TO.C,R6*%
X32050000Y-45150000D02*
X33950000Y-45150000D01*
X33950000Y-48850000D01*
X32050000Y-48850000D01*
X32050000Y-45150000D01*
%TO.C,R1*%
X22150000Y-41050000D02*
X25850000Y-41050000D01*
X25850000Y-42950000D01*
X22150000Y-42950000D01*
X22150000Y-41050000D01*
%TO.C,R4*%
X32050000Y-22150000D02*
X33950000Y-22150000D01*
X33950000Y-25850000D01*
X32050000Y-25850000D01*
X32050000Y-22150000D01*
%TO.C,C3*%
X37020000Y-22120000D02*
X38980000Y-22120000D01*
X38980000Y-25880000D01*
X37020000Y-25880000D01*
X37020000Y-22120000D01*
%TO.C,C1*%
X57400000Y-8750000D02*
G75*
G02*
X50600000Y-8750000I-3400000J0D01*
G01*
X50600000Y-8750000D02*
G75*
G02*
X57400000Y-8750000I3400000J0D01*
G01*
%TO.C,TP2*%
X83250000Y-58000000D02*
G75*
G02*
X80750000Y-58000000I-1250000J0D01*
G01*
X80750000Y-58000000D02*
G75*
G02*
X83250000Y-58000000I1250000J0D01*
G01*
%TO.C,TP7*%
X56250000Y-58000000D02*
G75*
G02*
X53750000Y-58000000I-1250000J0D01*
G01*
X53750000Y-58000000D02*
G75*
G02*
X56250000Y-58000000I1250000J0D01*
G01*
%TO.C,D1*%
X20910000Y-6150000D02*
X39850000Y-6150000D01*
X39850000Y-11850000D01*
X20910000Y-11850000D01*
X20910000Y-6150000D01*
%TO.C,C2*%
X59120000Y-8020000D02*
X62880000Y-8020000D01*
X62880000Y-9980000D01*
X59120000Y-9980000D01*
X59120000Y-8020000D01*
%TO.C,C5*%
X40120000Y-57020000D02*
X43880000Y-57020000D01*
X43880000Y-58980000D01*
X40120000Y-58980000D01*
X40120000Y-57020000D01*
%TO.C,REF\u002A\u002A*%
X9450000Y-56000000D02*
G75*
G02*
X2550000Y-56000000I-3450000J0D01*
G01*
X2550000Y-56000000D02*
G75*
G02*
X9450000Y-56000000I3450000J0D01*
G01*
%TO.C,Q2*%
X44990000Y-44270000D02*
X44990000Y-49010000D01*
X44990000Y-44270000D02*
X52090000Y-44270000D01*
X52090000Y-49010000D02*
X44990000Y-49010000D01*
X52090000Y-49010000D02*
X52090000Y-44270000D01*
%TO.C,TP1*%
X47250000Y-58000000D02*
G75*
G02*
X44750000Y-58000000I-1250000J0D01*
G01*
X44750000Y-58000000D02*
G75*
G02*
X47250000Y-58000000I1250000J0D01*
G01*
%TO.C,R10*%
X32150000Y-57050000D02*
X35850000Y-57050000D01*
X35850000Y-58950000D01*
X32150000Y-58950000D01*
X32150000Y-57050000D01*
%TO.C,R5*%
X43150000Y-27050000D02*
X46850000Y-27050000D01*
X46850000Y-28950000D01*
X43150000Y-28950000D01*
X43150000Y-27050000D01*
%TO.C,D3*%
X85400000Y-30490000D02*
X88600000Y-30490000D01*
X88600000Y-43350000D01*
X85400000Y-43350000D01*
X85400000Y-30490000D01*
%TO.C,TP4*%
X52250000Y-23000000D02*
G75*
G02*
X49750000Y-23000000I-1250000J0D01*
G01*
X49750000Y-23000000D02*
G75*
G02*
X52250000Y-23000000I1250000J0D01*
G01*
%TO.C,SW1*%
X55500000Y-16500000D02*
X55750000Y-16500000D01*
X55500000Y-16750000D02*
X55500000Y-16500000D01*
X55500000Y-23750000D02*
X55500000Y-16750000D01*
X55500000Y-23750000D02*
X55500000Y-24000000D01*
X55500000Y-24000000D02*
X55750000Y-24000000D01*
X55750000Y-16500000D02*
X64750000Y-16500000D01*
X64750000Y-16500000D02*
X65000000Y-16500000D01*
X64750000Y-24000000D02*
X55750000Y-24000000D01*
X64750000Y-24000000D02*
X65000000Y-24000000D01*
X65000000Y-16500000D02*
X65000000Y-16750000D01*
X65000000Y-16750000D02*
X65000000Y-23750000D01*
X65000000Y-24000000D02*
X65000000Y-23750000D01*
%TO.C,D5*%
X34750000Y-42330000D02*
X37250000Y-42330000D01*
X37250000Y-52050000D01*
X34750000Y-52050000D01*
X34750000Y-42330000D01*
%TO.C,TP3*%
X74250000Y-58000000D02*
G75*
G02*
X71750000Y-58000000I-1250000J0D01*
G01*
X71750000Y-58000000D02*
G75*
G02*
X74250000Y-58000000I1250000J0D01*
G01*
%TO.C,JP1*%
X85230000Y-25230000D02*
X91320000Y-25230000D01*
X91320000Y-28770000D01*
X85230000Y-28770000D01*
X85230000Y-25230000D01*
%TO.C,R8*%
X53150000Y-45050000D02*
X56850000Y-45050000D01*
X56850000Y-46950000D01*
X53150000Y-46950000D01*
X53150000Y-45050000D01*
%TO.C,R2*%
X29050000Y-40150000D02*
X30950000Y-40150000D01*
X30950000Y-43850000D01*
X29050000Y-43850000D01*
X29050000Y-40150000D01*
%TO.C,Q1*%
X23290000Y-49600000D02*
X33790000Y-49600000D01*
X33790000Y-54500000D01*
X23290000Y-54500000D01*
X23290000Y-49600000D01*
%TO.C,TP5*%
X65250000Y-58000000D02*
G75*
G02*
X62750000Y-58000000I-1250000J0D01*
G01*
X62750000Y-58000000D02*
G75*
G02*
X65250000Y-58000000I1250000J0D01*
G01*
%TO.C,R9*%
X54050000Y-48150000D02*
X55950000Y-48150000D01*
X55950000Y-51850000D01*
X54050000Y-51850000D01*
X54050000Y-48150000D01*
%TO.C,D4*%
X49070000Y-28500000D02*
X50100000Y-28500000D01*
X49070000Y-29610000D02*
X49070000Y-28500000D01*
X49070000Y-30390000D02*
X50100000Y-30390000D01*
X49070000Y-31500000D02*
X49070000Y-30390000D01*
X50100000Y-28300000D02*
X51900000Y-28300000D01*
X50100000Y-28500000D02*
X50100000Y-28300000D01*
X50100000Y-29610000D02*
X49070000Y-29610000D01*
X50100000Y-30390000D02*
X50100000Y-29610000D01*
X50100000Y-31500000D02*
X49070000Y-31500000D01*
X50100000Y-31700000D02*
X50100000Y-31500000D01*
X51900000Y-28300000D02*
X51900000Y-29450000D01*
X51900000Y-29450000D02*
X52930000Y-29450000D01*
X51900000Y-30550000D02*
X51900000Y-31700000D01*
X51900000Y-31700000D02*
X50100000Y-31700000D01*
X52930000Y-29450000D02*
X52930000Y-30550000D01*
X52930000Y-30550000D02*
X51900000Y-30550000D01*
%TO.C,R7*%
X38150000Y-46050000D02*
X41850000Y-46050000D01*
X41850000Y-47950000D01*
X38150000Y-47950000D01*
X38150000Y-46050000D01*
%TO.C,C4*%
X80020000Y-31120000D02*
X81980000Y-31120000D01*
X81980000Y-34880000D01*
X80020000Y-34880000D01*
X80020000Y-31120000D01*
%TD*%
M02*
